<?xml version="1.0" encoding="UTF-8" standalone="no"?>
<svg
   xmlns:dc="http://purl.org/dc/elements/1.1/"
   xmlns:cc="http://creativecommons.org/ns#"
   xmlns:rdf="http://www.w3.org/1999/02/22-rdf-syntax-ns#"
   xmlns:svg="http://www.w3.org/2000/svg"
   xmlns="http://www.w3.org/2000/svg"
   viewBox="0 0 53.333332 53.333332"
   height="53.333332"
   width="53.333332"
   xml:space="preserve"
   id="svg2"
   version="1.1"><metadata
     id="metadata8"><rdf:RDF><cc:Work
         rdf:about=""><dc:format>image/svg+xml</dc:format><dc:type
           rdf:resource="http://purl.org/dc/dcmitype/StillImage" /></cc:Work></rdf:RDF></metadata><defs
     id="defs6"><clipPath
       id="clipPath18"
       clipPathUnits="userSpaceOnUse"><path
         id="path16"
         d="M 0,40 H 40 V 0 H 0 Z" /></clipPath></defs><g
     transform="matrix(1.3333333,0,0,-1.3333333,0,53.333333)"
     id="g10"><g
       id="g12"><g
         clip-path="url(#clipPath18)"
         id="g14"><path
           id="path20"
           style="fill:#ffffff;fill-opacity:1;fill-rule:nonzero;stroke:none"
           d="M 9.777,30.223 H 30.222 V 9.778 H 9.777 Z M 32.5,32.5 h -25 v -25 h 25 v 2.277 z" /><path
           id="path22"
           style="fill:#ffffff;fill-opacity:1;fill-rule:nonzero;stroke:none"
           d="m 27.188,24.552 -0.97,0.97 -0.483,0.483 -0.483,-0.483 -7.634,-7.633 -2.869,2.869 -0.483,0.483 -0.484,-0.483 -0.97,-0.971 -0.483,-0.484 0.483,-0.483 2.869,-2.869 -0.02,-0.019 0.483,-0.485 0.971,-0.97 0.483,-0.483 0.02,0.02 0.463,0.463 0.02,0.021 0.97,0.971 0.484,0.482 7.633,7.634 0.483,0.483 z" /></g></g></g></svg>