<?xml version="1.0" encoding="UTF-8" standalone="no"?>
<svg
   xmlns:dc="http://purl.org/dc/elements/1.1/"
   xmlns:cc="http://creativecommons.org/ns#"
   xmlns:rdf="http://www.w3.org/1999/02/22-rdf-syntax-ns#"
   xmlns:svg="http://www.w3.org/2000/svg"
   xmlns="http://www.w3.org/2000/svg"
   viewBox="0 0 53.333332 53.333332"
   height="53.333332"
   width="53.333332"
   xml:space="preserve"
   id="svg2"
   version="1.1"><metadata
     id="metadata8"><rdf:RDF><cc:Work
         rdf:about=""><dc:format>image/svg+xml</dc:format><dc:type
           rdf:resource="http://purl.org/dc/dcmitype/StillImage" /></cc:Work></rdf:RDF></metadata><defs
     id="defs6"><clipPath
       id="clipPath18"
       clipPathUnits="userSpaceOnUse"><path
         id="path16"
         d="M 0,40 H 40 V 0 H 0 Z" /></clipPath></defs><g
     transform="matrix(1.3333333,0,0,-1.3333333,0,53.333333)"
     id="g10"><g
       id="g12"><g
         clip-path="url(#clipPath18)"
         id="g14"><path
           id="path20"
           style="fill:#1a6fb6;fill-opacity:1;fill-rule:nonzero;stroke:none"
           d="m 21.567,18.433 c -0.419,-0.419 -0.975,-0.65 -1.567,-0.65 -0.592,0 -1.149,0.231 -1.567,0.65 -0.419,0.419 -0.65,0.975 -0.65,1.567 0,0.592 0.231,1.148 0.65,1.567 0.418,0.419 0.975,0.65 1.567,0.65 0.592,0 1.148,-0.231 1.567,-0.65 0.419,-0.419 0.65,-0.975 0.65,-1.567 0,-0.592 -0.231,-1.148 -0.65,-1.567 m 9.69,2.963 -1.221,1.334 v -1.134 h -6.708 c -0.383,0.797 -1.044,1.435 -1.857,1.789 v 6.651 h 1.134 l -1.334,1.221 -1.333,1.222 -1.334,-1.222 -1.334,-1.221 h 1.134 V 23.329 C 17.607,22.946 16.969,22.284 16.615,21.471 H 9.964 v 1.134 L 8.743,21.271 7.521,19.938 8.743,18.604 9.964,17.27 v 1.134 h 6.707 c 0.383,-0.798 1.045,-1.435 1.858,-1.79 v -6.65 h -1.134 l 1.334,-1.221 1.334,-1.222 1.333,1.222 1.334,1.221 h -1.134 v 6.707 c 0.798,0.384 1.435,1.045 1.79,1.858 h 6.65 v -1.134 l 1.221,1.334 1.222,1.334 z" /></g></g></g></svg>