<?xml version="1.0" encoding="UTF-8" standalone="no"?>
<svg width="700px" height="140px" viewBox="0 0 700 140" version="1.1" xmlns="http://www.w3.org/2000/svg" xmlns:xlink="http://www.w3.org/1999/xlink">
    <!-- Generator: Sketch 40.1 (33804) - http://www.bohemiancoding.com/sketch -->
    <title>css_sprite_features</title>
    <desc>Created with Sketch.</desc>
    <defs></defs>
    <g id="Page-1" stroke="none" stroke-width="1" fill="none" fill-rule="evenodd">
        <g id="css_sprite_features">
            <g id="Group" transform="translate(70.000000, 70.000000)">
                <rect id="Rectangle-path" fill="#1A6FB6" x="0" y="0" width="70" height="70"></rect>
                <path d="M45.007,37.859 C46.987,37.859 48.674,38.555 50.067,39.947 C51.459,41.34 52.155,43.026 52.155,45.007 C52.155,46.988 51.459,48.674 50.067,50.067 C48.674,51.459 46.988,52.155 45.007,52.155 C43.026,52.155 41.34,51.459 39.948,50.067 C38.555,48.674 37.86,46.988 37.86,45.007 C37.86,44.828 37.875,44.575 37.904,44.247 L29.863,40.226 C28.492,41.507 26.87,42.148 24.993,42.148 C23.013,42.148 21.326,41.452 19.934,40.059 C18.541,38.666 17.846,36.98 17.846,34.999 C17.846,33.018 18.542,31.332 19.934,29.94 C21.326,28.547 23.013,27.851 24.993,27.851 C26.869,27.851 28.492,28.492 29.863,29.772 L37.904,25.751 C37.874,25.424 37.86,25.17 37.86,24.991 C37.86,23.011 38.556,21.324 39.948,19.932 C41.34,18.539 43.027,17.843 45.007,17.843 C46.987,17.843 48.674,18.539 50.067,19.932 C51.459,21.324 52.155,23.011 52.155,24.991 C52.155,26.971 51.459,28.658 50.067,30.051 C48.674,31.444 46.988,32.14 45.007,32.14 C43.131,32.14 41.507,31.499 40.137,30.218 L32.096,34.239 C32.126,34.567 32.141,34.82 32.141,34.999 C32.141,35.178 32.126,35.431 32.096,35.759 L40.137,39.78 C41.507,38.5 43.13,37.859 45.007,37.859 L45.007,37.859 Z" id="Shape" fill="#FFFFFF"></path>
            </g>
            <g id="Group" transform="translate(0.000000, 70.000000)">
                <rect id="Rectangle-path" fill="#1A6FB6" x="0" y="0" width="70" height="70"></rect>
                <path d="M51.136,19.76 L47.55,19.76 L47.55,13.485 L51.136,13.485 L51.136,19.76 L51.136,19.76 Z M36.793,37.689 L33.207,37.689 L33.207,13.484 L36.793,13.485 L36.793,37.689 L36.793,37.689 Z M22.45,23.346 L18.864,23.346 L18.864,13.486 L22.45,13.485 L22.45,23.346 L22.45,23.346 Z M54.722,29.621 C54.723,30.106 54.545,30.527 54.19,30.882 C53.835,31.237 53.415,31.414 52.93,31.414 L45.758,31.414 C45.272,31.414 44.852,31.236 44.497,30.882 C44.143,30.528 43.965,30.107 43.965,29.621 L43.965,22.45 C43.965,21.963 44.143,21.543 44.497,21.188 C44.852,20.834 45.272,20.656 45.759,20.657 L52.93,20.657 C53.414,20.656 53.836,20.834 54.19,21.188 C54.544,21.542 54.723,21.963 54.722,22.45 L54.722,29.621 L54.722,29.621 Z M26.035,33.207 C26.035,33.692 25.858,34.112 25.503,34.468 C25.148,34.822 24.727,35 24.241,35 L17.07,35 C16.586,35.001 16.166,34.822 15.81,34.468 C15.456,34.113 15.278,33.693 15.278,33.208 L15.278,26.035 C15.278,25.549 15.456,25.129 15.81,24.774 C16.164,24.419 16.585,24.242 17.071,24.242 L24.242,24.242 C24.728,24.242 25.148,24.419 25.503,24.774 C25.857,25.128 26.036,25.548 26.036,26.035 L26.036,33.207 L26.035,33.207 Z M51.136,56.516 L47.55,56.516 L47.55,32.311 L51.136,32.311 L51.136,56.516 L51.136,56.516 Z M22.449,56.516 L18.864,56.516 L18.864,35.897 L22.45,35.897 L22.449,56.516 L22.449,56.516 Z M40.378,47.551 C40.378,48.036 40.201,48.456 39.846,48.811 C39.49,49.165 39.07,49.343 38.586,49.344 L31.414,49.344 C30.927,49.344 30.507,49.166 30.153,48.811 C29.799,48.457 29.621,48.037 29.62,47.551 L29.62,40.379 C29.62,39.894 29.798,39.473 30.152,39.118 C30.506,38.763 30.927,38.586 31.413,38.586 L38.584,38.586 C39.07,38.586 39.49,38.764 39.845,39.118 C40.2,39.472 40.378,39.892 40.377,40.379 L40.377,47.551 L40.378,47.551 Z M36.793,56.516 L33.208,56.516 L33.207,50.241 L36.793,50.241 L36.793,56.516 L36.793,56.516 Z" id="Shape" fill="#FFFFFF"></path>
            </g>
            <g id="Group" transform="translate(140.000000, 70.000000)">
                <rect id="Rectangle-path" fill="#1A6FB6" x="0" y="0" width="70" height="70"></rect>
                <path d="M47.728,18.03 L47.728,51.968 C47.728,53.118 47.308,54.113 46.468,54.952 C45.629,55.791 44.634,56.211 43.486,56.211 L26.516,56.211 C25.367,56.211 24.372,55.791 23.533,54.952 C22.694,54.112 22.274,53.118 22.274,51.968 L22.274,18.03 C22.274,16.882 22.694,15.886 23.533,15.048 C24.372,14.208 25.367,13.788 26.516,13.788 L43.486,13.788 C44.634,13.788 45.629,14.208 46.468,15.048 C47.307,15.887 47.728,16.882 47.728,18.03 L47.728,18.03 Z M44.545,46.666 L44.545,23.334 C44.545,23.046 44.441,22.798 44.231,22.588 C44.021,22.378 43.773,22.273 43.485,22.273 L26.515,22.273 C26.228,22.273 25.978,22.378 25.769,22.588 C25.558,22.798 25.454,23.046 25.454,23.334 L25.454,46.666 C25.454,46.954 25.558,47.203 25.769,47.412 C25.978,47.623 26.227,47.727 26.515,47.727 L43.485,47.727 C43.772,47.727 44.021,47.623 44.231,47.412 C44.441,47.203 44.545,46.954 44.545,46.666 L44.545,46.666 Z M38.182,18.561 C38.182,18.208 38.005,18.031 37.653,18.031 L32.35,18.031 C31.996,18.031 31.819,18.209 31.819,18.561 C31.819,18.915 31.996,19.091 32.35,19.091 L37.653,19.091 C38.005,19.091 38.182,18.914 38.182,18.561 L38.182,18.561 Z M36.874,53.842 C37.393,53.323 37.653,52.698 37.653,51.969 C37.653,51.24 37.393,50.616 36.874,50.097 C36.354,49.578 35.729,49.319 35.001,49.319 C34.272,49.319 33.647,49.579 33.128,50.097 C32.609,50.617 32.35,51.241 32.35,51.969 C32.35,52.698 32.609,53.323 33.128,53.842 C33.647,54.362 34.272,54.621 35.001,54.621 C35.729,54.621 36.354,54.361 36.874,53.842 L36.874,53.842 Z" id="Shape" fill="#FFFFFF"></path>
            </g>
            <g id="Group" transform="translate(210.000000, 70.000000)">
                <rect id="Rectangle-path" fill="#1A6FB6" x="0" y="0.001" width="70" height="69.999"></rect>
                <path d="M50.725,46.37 C50.725,48.157 50.182,49.567 49.095,50.602 C48.008,51.637 46.563,52.155 44.762,52.155 L25.24,52.155 C23.438,52.155 21.994,51.637 20.907,50.602 C19.82,49.567 19.277,48.157 19.277,46.37 C19.277,45.58 19.303,44.81 19.355,44.057 C19.407,43.305 19.511,42.494 19.668,41.622 C19.825,40.75 20.022,39.943 20.26,39.199 C20.498,38.454 20.818,37.728 21.22,37.021 C21.622,36.313 22.084,35.71 22.605,35.211 C23.126,34.712 23.763,34.314 24.515,34.016 C25.267,33.718 26.097,33.57 27.006,33.57 C27.14,33.57 27.452,33.73 27.944,34.049 C28.436,34.37 28.99,34.727 29.608,35.121 C30.226,35.515 31.03,35.873 32.021,36.193 C33.012,36.513 34.005,36.673 35.003,36.673 C36.001,36.673 36.995,36.513 37.985,36.193 C38.975,35.873 39.779,35.515 40.398,35.121 C41.017,34.727 41.57,34.37 42.062,34.049 C42.553,33.73 42.866,33.57 43,33.57 C43.908,33.57 44.738,33.718 45.49,34.016 C46.242,34.314 46.879,34.712 47.4,35.211 C47.921,35.71 48.383,36.313 48.785,37.021 C49.187,37.728 49.507,38.454 49.745,39.199 C49.983,39.943 50.181,40.751 50.337,41.622 C50.493,42.493 50.597,43.305 50.65,44.057 C50.699,44.811 50.725,45.58 50.725,46.37 L50.725,46.37 Z M41.064,20.358 C42.739,22.034 43.577,24.055 43.577,26.422 C43.577,28.79 42.739,30.812 41.064,32.486 C39.389,34.163 37.368,35 35,35 C32.632,35 30.611,34.163 28.936,32.487 C27.26,30.812 26.423,28.791 26.423,26.423 C26.423,24.056 27.26,22.034 28.936,20.359 C30.611,18.684 32.632,17.846 35,17.846 C37.368,17.846 39.389,18.684 41.064,20.358 L41.064,20.358 Z" id="Shape" fill="#FFFFFF"></path>
            </g>
            <g id="Group" transform="translate(280.000000, 70.000000)">
                <rect id="Rectangle-path" fill="#1A6FB6" x="0" y="0" width="70" height="70"></rect>
                <path d="M55.407,40.655 L49.45,34.698 C49.155,34.403 48.806,34.255 48.402,34.255 C47.999,34.255 47.65,34.403 47.355,34.698 C47.061,34.992 46.913,35.342 46.913,35.745 L46.913,38.723 L37.977,38.723 L37.977,29.787 L40.956,29.787 C41.358,29.787 41.708,29.641 42.003,29.346 C42.297,29.051 42.445,28.702 42.445,28.299 C42.445,27.896 42.297,27.546 42.003,27.251 L36.046,21.294 C35.751,20.999 35.402,20.853 34.999,20.853 C34.595,20.853 34.246,20.999 33.952,21.294 L27.995,27.251 C27.7,27.546 27.553,27.896 27.553,28.299 C27.553,28.702 27.7,29.051 27.995,29.346 C28.289,29.641 28.639,29.787 29.042,29.787 L32.021,29.787 L32.021,38.723 L23.085,38.723 L23.085,35.745 C23.085,35.342 22.937,34.992 22.643,34.698 C22.349,34.403 21.999,34.255 21.596,34.255 C21.193,34.255 20.844,34.403 20.549,34.698 L14.592,40.655 C14.297,40.949 14.15,41.299 14.15,41.702 C14.15,42.105 14.297,42.455 14.592,42.749 L20.549,48.706 C20.844,49.001 21.193,49.147 21.596,49.147 C21.999,49.147 22.348,49.001 22.643,48.706 C22.938,48.411 23.085,48.062 23.085,47.659 L23.085,44.68 L46.914,44.68 L46.914,47.659 C46.914,48.062 47.061,48.411 47.356,48.706 C47.651,49.001 48,49.147 48.403,49.147 C48.807,49.147 49.156,49.001 49.451,48.706 L55.408,42.749 C55.702,42.455 55.85,42.105 55.85,41.702 C55.85,41.299 55.702,40.949 55.407,40.655 L55.407,40.655 Z" id="Shape" fill="#FFFFFF"></path>
            </g>
            <g id="Group" transform="translate(350.000000, 70.000000)">
                <rect id="Rectangle-path" fill="#1A6FB6" x="0" y="0" width="70" height="70"></rect>
                <path d="M27.008,17.119 C29.457,16.641 32.121,16.402 35,16.402 C37.879,16.402 40.541,16.641 42.99,17.119 C45.439,17.597 47.377,18.243 48.803,19.059 C50.227,19.875 50.94,20.761 50.94,21.716 L50.94,24.372 C50.94,25.327 50.227,26.213 48.803,27.029 C47.377,27.845 45.44,28.492 42.99,28.969 C40.54,29.446 37.879,29.685 35,29.685 C32.121,29.685 29.457,29.447 27.008,28.969 C24.561,28.491 22.623,27.845 21.197,27.029 C19.771,26.213 19.058,25.327 19.058,24.372 L19.058,21.716 C19.058,20.761 19.771,19.875 21.197,19.059 C22.623,18.243 24.561,17.597 27.008,17.119 L27.008,17.119 Z M25.805,31.451 C28.657,32.046 31.721,32.344 35,32.344 C38.279,32.344 41.344,32.046 44.195,31.451 C47.045,30.856 49.293,29.977 50.939,28.815 L50.939,32.343 C50.939,33.297 50.226,34.183 48.802,34.999 C47.376,35.815 45.439,36.463 42.989,36.939 C40.54,37.417 37.878,37.656 34.999,37.656 C32.12,37.656 29.456,37.417 27.007,36.939 C24.56,36.462 22.622,35.815 21.196,34.999 C19.77,34.183 19.057,33.297 19.057,32.343 L19.057,28.815 C20.705,29.978 22.955,30.856 25.805,31.451 L25.805,31.451 Z M25.805,39.421 C28.657,40.017 31.721,40.314 35,40.314 C38.279,40.314 41.344,40.017 44.195,39.421 C47.045,38.826 49.293,37.947 50.939,36.785 L50.939,40.313 C50.939,41.268 50.226,42.153 48.802,42.97 C47.376,43.786 45.439,44.433 42.989,44.91 C40.539,45.387 37.878,45.626 34.999,45.626 C32.12,45.626 29.456,45.388 27.007,44.91 C24.56,44.432 22.622,43.786 21.196,42.97 C19.77,42.153 19.057,41.268 19.057,40.313 L19.057,36.785 C20.705,37.947 22.955,38.826 25.805,39.421 L25.805,39.421 Z M25.805,47.392 C28.657,47.987 31.721,48.284 35,48.284 C38.279,48.284 41.344,47.987 44.195,47.392 C47.045,46.796 49.293,45.918 50.939,44.756 L50.939,48.283 C50.939,49.238 50.226,50.124 48.802,50.94 C47.376,51.756 45.439,52.403 42.989,52.88 C40.539,53.357 37.878,53.596 34.999,53.596 C32.12,53.596 29.456,53.358 27.007,52.88 C24.56,52.402 22.622,51.756 21.196,50.94 C19.77,50.124 19.057,49.238 19.057,48.283 L19.057,44.756 C20.705,45.918 22.955,46.796 25.805,47.392 L25.805,47.392 Z" id="Shape" fill="#FFFFFF"></path>
            </g>
            <g id="Group" transform="translate(420.000000, 70.000000)">
                <rect id="Rectangle-path" fill="#1A6FB6" x="0" y="0.001" width="70" height="69.999"></rect>
                <path d="M29.518,39.68 L29.518,41.179 C29.518,41.779 29.24,42.2 28.684,42.443 C28.498,42.514 28.319,42.55 28.148,42.55 C27.762,42.55 27.441,42.414 27.184,42.143 L16.22,31.179 C15.949,30.908 15.814,30.586 15.814,30.215 C15.814,29.844 15.95,29.523 16.22,29.251 L27.184,18.286 C27.598,17.845 28.098,17.744 28.684,17.987 C29.24,18.23 29.518,18.65 29.518,19.25 L29.518,20.729 L21.017,29.251 C20.746,29.522 20.611,29.844 20.611,30.215 C20.611,30.586 20.747,30.907 21.017,31.179 L29.518,39.68 L29.518,39.68 Z M54.188,40.493 C54.188,41.321 54.067,42.274 53.824,43.352 C53.581,44.429 53.306,45.415 53,46.307 C52.694,47.199 52.351,48.091 51.972,48.984 C51.594,49.876 51.305,50.522 51.105,50.922 C50.906,51.321 50.763,51.608 50.676,51.779 C50.563,52.021 50.363,52.142 50.076,52.142 C49.991,52.142 49.927,52.135 49.885,52.121 C49.528,52.007 49.364,51.765 49.392,51.393 C50.005,45.682 49.248,41.65 47.122,39.293 C46.208,38.279 44.991,37.491 43.471,36.927 C41.95,36.364 40.041,35.989 37.742,35.803 L37.742,41.178 C37.742,41.778 37.464,42.199 36.907,42.442 C36.721,42.513 36.543,42.549 36.372,42.549 C35.986,42.549 35.665,42.413 35.408,42.142 L24.443,31.178 C24.172,30.907 24.037,30.585 24.037,30.214 C24.037,29.843 24.173,29.522 24.443,29.25 L35.408,18.285 C35.822,17.844 36.321,17.743 36.907,17.986 C37.464,18.229 37.742,18.649 37.742,19.249 L37.742,24.86 C43.61,25.259 47.886,26.837 50.569,29.592 C52.98,32.063 54.188,35.696 54.188,40.493 L54.188,40.493 Z" id="Shape" fill="#FFFFFF"></path>
            </g>
            <g id="Group" transform="translate(490.000000, 70.000000)">
                <rect id="Rectangle-path" fill="#1A6FB6" x="0" y="0.001" width="70" height="69.999"></rect>
                <path d="M54.777,47.361 L54.777,49.833 L15.222,49.833 L15.222,20.168 L17.695,20.168 L17.695,47.361 L54.777,47.361 L54.777,47.361 Z M27.584,35 L27.584,44.889 L22.64,44.889 L22.64,35 L27.584,35 L27.584,35 Z M35,25.112 L35,44.888 L30.057,44.888 L30.057,25.112 L35,25.112 L35,25.112 Z M42.417,30.056 L42.417,44.889 L37.473,44.889 L37.473,30.056 L42.417,30.056 L42.417,30.056 Z M49.833,22.64 L49.833,44.889 L44.89,44.889 L44.89,22.64 L49.833,22.64 L49.833,22.64 Z" id="Shape" fill="#FFFFFF"></path>
            </g>
            <g id="Group" transform="translate(560.000000, 69.000000)">
                <rect id="Rectangle-path" fill="#1A6FB6" x="0" y="0.999" width="70" height="70.001"></rect>
                <path d="M39.244,23.847 C39.244,21.586 37.767,19.88 35.323,19.88 C33.663,19.88 31.818,20.986 31.818,22.831 C31.818,25.414 35.83,26.798 39.658,28.644 C43.533,30.488 47.361,32.748 47.361,37.13 C47.361,40.174 45.423,42.849 42.564,43.863 C44.316,45.201 45.101,47.092 45.101,49.305 C45.101,54.517 39.935,57.054 35.276,57.054 C29.42,57.054 24.853,54.379 24.899,48.106 L30.619,48.106 C30.758,50.782 32.372,52.119 35.139,52.119 C37.031,52.119 38.552,51.104 38.552,49.075 C38.552,46.353 34.77,44.971 30.711,43.079 C26.699,41.188 22.639,38.836 22.639,34.315 C22.639,30.995 24.485,28.689 27.575,27.582 C26.283,26.198 25.592,24.86 25.592,22.924 C25.592,17.712 30.528,14.945 35.233,14.945 C40.674,14.945 44.964,18.128 44.964,23.847 L39.244,23.847 L39.244,23.847 Z M31.956,31.134 C31.588,30.949 31.172,30.626 30.711,30.673 C29.373,30.811 28.358,32.425 28.358,33.763 C28.358,34.639 28.82,35.47 29.835,36.023 L38.137,40.544 C38.46,40.682 38.967,40.866 39.52,40.866 C40.72,40.866 41.642,39.344 41.642,38.33 C41.642,36.946 40.673,36.023 39.567,35.424 L31.956,31.134 L31.956,31.134 Z" id="Shape" fill="#FFFFFF"></path>
            </g>
            <g id="Group" transform="translate(630.000000, 70.000000)">
                <rect id="Rectangle-path" fill="#1A6FB6" x="0" y="0.001" width="70" height="69.999"></rect>
                <path d="M55.211,47.272 C55.211,47.859 54.851,48.377 54.332,48.603 C54.152,48.67 53.948,48.715 53.768,48.715 C53.385,48.715 53.024,48.58 52.753,48.286 L43.662,39.195 L43.662,42.94 C43.662,46.526 40.752,49.436 37.165,49.436 L21.284,49.436 C17.697,49.436 14.787,46.526 14.787,42.94 L14.787,27.061 C14.787,23.474 17.697,20.564 21.284,20.564 L37.165,20.564 C40.752,20.564 43.662,23.474 43.662,27.061 L43.662,30.783 L52.753,21.715 C53.024,21.421 53.385,21.286 53.768,21.286 C53.949,21.286 54.153,21.331 54.332,21.398 C54.851,21.624 55.211,22.143 55.211,22.73 L55.211,47.272 L55.211,47.272 Z" id="Shape" fill="#FFFFFF"></path>
            </g>
            <g id="Group" transform="translate(70.000000, 0.000000)" fill="#1A6FB6">
                <path d="M70,0 L0,0 L0,70 L70,70 L70,67 L70,67 L70,67 L70,0 L70,0 L70,0 Z M3,3 L67,3 L67,67 L3,67 L3,3 L3,3 L3,3 Z" id="Shape"></path>
                <path d="M45.006,37.859 C46.986,37.859 48.673,38.555 50.066,39.947 C51.458,41.34 52.154,43.026 52.154,45.007 C52.154,46.988 51.458,48.674 50.066,50.067 C48.673,51.459 46.987,52.156 45.006,52.156 C43.025,52.156 41.339,51.459 39.947,50.067 C38.555,48.674 37.859,46.988 37.859,45.007 C37.859,44.828 37.874,44.575 37.904,44.247 L29.862,40.226 C28.492,41.507 26.869,42.148 24.992,42.148 C23.012,42.148 21.325,41.452 19.933,40.059 C18.54,38.666 17.844,36.98 17.844,34.999 C17.844,33.02 18.54,31.332 19.933,29.939 C21.325,28.547 23.012,27.851 24.992,27.851 C26.868,27.851 28.492,28.492 29.862,29.772 L37.904,25.751 C37.874,25.424 37.859,25.171 37.859,24.991 C37.859,23.01 38.555,21.324 39.947,19.932 C41.339,18.539 43.026,17.843 45.006,17.843 C46.986,17.843 48.673,18.539 50.066,19.932 C51.458,21.324 52.154,23.011 52.154,24.991 C52.154,26.971 51.458,28.659 50.066,30.051 C48.673,31.444 46.987,32.14 45.006,32.14 C43.13,32.14 41.506,31.499 40.137,30.218 L32.096,34.239 C32.126,34.567 32.141,34.82 32.141,34.999 C32.141,35.178 32.126,35.432 32.096,35.759 L40.137,39.78 C41.506,38.5 43.13,37.859 45.006,37.859 L45.006,37.859 Z" id="Shape"></path>
            </g>
            <g id="Group" fill="#1A6FB6">
                <path d="M70,0 L0,0 L0,70 L70,70 L70,67 L70,67 L70,67 L70,0 L70,0 L70,0 Z M3,3 L67,3 L67,67 L3,67 L3,3 L3,3 L3,3 Z" id="Shape"></path>
                <path d="M51.136,19.759 L47.55,19.759 L47.55,13.484 L51.136,13.484 L51.136,19.759 L51.136,19.759 Z M36.793,37.689 L33.207,37.689 L33.207,13.484 L36.793,13.485 L36.793,37.689 L36.793,37.689 Z M22.45,23.345 L18.865,23.345 L18.865,13.485 L22.45,13.484 L22.45,23.345 L22.45,23.345 Z M54.722,29.621 C54.723,30.106 54.545,30.527 54.19,30.882 C53.836,31.236 53.415,31.414 52.93,31.414 L45.758,31.414 C45.272,31.414 44.852,31.236 44.497,30.882 C44.143,30.528 43.965,30.107 43.965,29.621 L43.965,22.45 C43.965,21.963 44.143,21.543 44.497,21.188 C44.852,20.834 45.272,20.656 45.759,20.657 L52.93,20.657 C53.414,20.656 53.836,20.834 54.19,21.188 C54.544,21.542 54.723,21.963 54.722,22.45 L54.722,29.621 L54.722,29.621 Z M26.035,33.207 C26.035,33.692 25.858,34.112 25.503,34.468 C25.148,34.822 24.728,35 24.242,35 L17.07,35 C16.586,35.001 16.165,34.822 15.81,34.468 C15.456,34.113 15.277,33.693 15.278,33.208 L15.278,26.035 C15.278,25.549 15.456,25.129 15.811,24.774 C16.165,24.42 16.585,24.242 17.071,24.242 L24.242,24.242 C24.728,24.242 25.149,24.42 25.503,24.774 C25.857,25.128 26.037,25.548 26.036,26.035 L26.036,33.207 L26.035,33.207 Z M51.136,56.515 L47.55,56.515 L47.55,32.31 L51.136,32.31 L51.136,56.515 L51.136,56.515 Z M22.449,56.515 L18.865,56.515 L18.864,35.896 L22.45,35.896 L22.449,56.515 L22.449,56.515 Z M40.379,47.55 C40.379,48.035 40.202,48.455 39.847,48.81 C39.492,49.164 39.071,49.342 38.587,49.343 L31.415,49.343 C30.928,49.343 30.508,49.165 30.154,48.81 C29.8,48.456 29.622,48.036 29.621,47.55 L29.621,40.378 C29.621,39.893 29.799,39.472 30.153,39.117 C30.507,38.762 30.928,38.585 31.414,38.585 L38.585,38.585 C39.071,38.585 39.491,38.763 39.846,39.117 C40.201,39.471 40.379,39.891 40.379,40.378 L40.379,47.55 L40.379,47.55 Z M36.793,56.515 L33.208,56.515 L33.208,50.24 L36.794,50.24 L36.794,56.515 L36.793,56.515 Z" id="Shape"></path>
            </g>
            <g id="Group" transform="translate(140.000000, 0.000000)" fill="#1A6FB6">
                <path d="M70,0 L0,0 L0,70 L70,70 L70,67 L70,67 L70,67 L70,0 L70,0 L70,0 Z M3,3 L67,3 L67,67 L3,67 L3,3 L3,3 L3,3 Z" id="Shape"></path>
                <path d="M47.728,18.03 L47.728,51.968 C47.728,53.118 47.308,54.113 46.468,54.951 C45.629,55.791 44.634,56.211 43.486,56.211 L26.516,56.211 C25.367,56.211 24.372,55.791 23.533,54.951 C22.694,54.112 22.274,53.118 22.274,51.968 L22.274,18.03 C22.274,16.882 22.693,15.886 23.533,15.048 C24.372,14.208 25.367,13.788 26.516,13.788 L43.486,13.788 C44.634,13.788 45.629,14.208 46.468,15.048 C47.307,15.886 47.728,16.881 47.728,18.03 L47.728,18.03 Z M44.545,46.666 L44.545,23.333 C44.545,23.045 44.441,22.797 44.231,22.587 C44.021,22.377 43.773,22.272 43.485,22.272 L26.515,22.272 C26.228,22.272 25.978,22.377 25.769,22.587 C25.559,22.797 25.454,23.045 25.454,23.333 L25.454,46.665 C25.454,46.953 25.558,47.201 25.769,47.411 C25.978,47.622 26.227,47.726 26.515,47.726 L43.485,47.726 C43.772,47.726 44.021,47.622 44.231,47.411 C44.441,47.202 44.545,46.954 44.545,46.666 L44.545,46.666 Z M38.182,18.56 C38.182,18.207 38.005,18.03 37.653,18.03 L32.35,18.03 C31.996,18.03 31.819,18.208 31.819,18.56 C31.819,18.914 31.996,19.09 32.35,19.09 L37.653,19.09 C38.005,19.09 38.182,18.914 38.182,18.56 L38.182,18.56 Z M36.874,53.841 C37.393,53.322 37.653,52.697 37.653,51.968 C37.653,51.239 37.393,50.615 36.874,50.096 C36.354,49.577 35.729,49.318 35.001,49.318 C34.272,49.318 33.647,49.578 33.128,50.096 C32.609,50.616 32.35,51.24 32.35,51.968 C32.35,52.697 32.609,53.322 33.128,53.841 C33.647,54.361 34.272,54.62 35.001,54.62 C35.729,54.621 36.354,54.361 36.874,53.841 L36.874,53.841 Z" id="Shape"></path>
            </g>
            <g id="Group" transform="translate(210.000000, 0.000000)" fill="#1A6FB6">
                <path d="M70,0 L0,0 L0,70 L70,70 L70,67 L70,67 L70,67 L70,0 L70,0 L70,0 Z M3,3 L67,3 L67,67 L3,67 L3,3 L3,3 L3,3 Z" id="Shape"></path>
                <path d="M50.725,46.369 C50.725,48.156 50.182,49.566 49.095,50.602 C48.008,51.636 46.563,52.154 44.762,52.154 L25.24,52.154 C23.438,52.154 21.994,51.636 20.907,50.602 C19.82,49.566 19.277,48.156 19.277,46.369 C19.277,45.58 19.302,44.809 19.355,44.057 C19.407,43.305 19.511,42.494 19.668,41.622 C19.824,40.75 20.022,39.942 20.26,39.198 C20.498,38.454 20.819,37.727 21.22,37.02 C21.621,36.313 22.084,35.709 22.605,35.21 C23.126,34.712 23.763,34.313 24.515,34.015 C25.267,33.718 26.097,33.569 27.006,33.569 C27.14,33.569 27.452,33.729 27.944,34.049 C28.436,34.369 28.99,34.726 29.608,35.121 C30.226,35.516 31.03,35.873 32.021,36.192 C33.011,36.512 34.005,36.672 35.003,36.672 C36.001,36.672 36.995,36.512 37.985,36.192 C38.975,35.873 39.779,35.515 40.398,35.121 C41.016,34.725 41.57,34.369 42.062,34.049 C42.553,33.729 42.866,33.569 43,33.569 C43.908,33.569 44.738,33.718 45.49,34.015 C46.242,34.313 46.879,34.712 47.4,35.21 C47.921,35.709 48.383,36.313 48.785,37.02 C49.187,37.727 49.507,38.454 49.745,39.198 C49.983,39.942 50.181,40.75 50.337,41.622 C50.493,42.493 50.597,43.305 50.65,44.057 C50.699,44.809 50.725,45.58 50.725,46.369 L50.725,46.369 Z M41.064,20.358 C42.739,22.033 43.577,24.054 43.577,26.422 C43.577,28.789 42.739,30.811 41.064,32.486 C39.389,34.162 37.368,35 35,35 C32.632,35 30.611,34.162 28.936,32.487 C27.261,30.811 26.423,28.79 26.423,26.423 C26.423,24.055 27.26,22.033 28.936,20.359 C30.612,18.683 32.633,17.845 35,17.845 C37.367,17.845 39.389,18.682 41.064,20.358 L41.064,20.358 Z" id="Shape"></path>
            </g>
            <g id="Group" transform="translate(280.000000, 0.000000)" fill="#1A6FB6">
                <path d="M70,0 L0,0 L0,70 L70,70 L70,67 L70,67 L70,67 L70,0 L70,0 L70,0 Z M3,3 L67,3 L67,67 L3,67 L3,3 L3,3 L3,3 Z" id="Shape"></path>
                <path d="M55.407,40.655 L49.45,34.698 C49.155,34.403 48.806,34.255 48.402,34.255 C47.999,34.255 47.65,34.403 47.355,34.698 C47.061,34.992 46.913,35.342 46.913,35.745 L46.913,38.723 L37.977,38.723 L37.977,29.788 L40.956,29.788 C41.358,29.788 41.708,29.641 42.003,29.346 C42.297,29.051 42.445,28.702 42.445,28.299 C42.445,27.896 42.297,27.546 42.003,27.251 L36.046,21.294 C35.751,20.999 35.402,20.853 34.999,20.853 C34.595,20.853 34.246,20.999 33.952,21.294 L27.995,27.251 C27.7,27.546 27.553,27.896 27.553,28.299 C27.553,28.702 27.7,29.051 27.995,29.346 C28.289,29.641 28.639,29.788 29.042,29.788 L32.021,29.788 L32.021,38.723 L23.085,38.723 L23.085,35.745 C23.085,35.342 22.937,34.992 22.643,34.698 C22.349,34.403 21.999,34.255 21.596,34.255 C21.193,34.255 20.844,34.403 20.549,34.698 L14.592,40.655 C14.297,40.949 14.15,41.299 14.15,41.702 C14.15,42.105 14.297,42.455 14.592,42.749 L20.549,48.706 C20.844,49.001 21.193,49.147 21.596,49.147 C21.999,49.147 22.348,49.001 22.643,48.706 C22.938,48.411 23.085,48.062 23.085,47.659 L23.085,44.68 L46.914,44.68 L46.914,47.659 C46.914,48.062 47.061,48.411 47.356,48.706 C47.651,49.001 48,49.147 48.403,49.147 C48.807,49.147 49.156,49.001 49.451,48.706 L55.408,42.749 C55.702,42.455 55.85,42.105 55.85,41.702 C55.85,41.299 55.702,40.949 55.407,40.655 L55.407,40.655 Z" id="Shape"></path>
            </g>
            <g id="Group" transform="translate(350.000000, 0.000000)" fill="#1A6FB6">
                <path d="M70,0 L0,0 L0,70 L70,70 L70,67 L70,67 L70,67 L70,0 L70,0 L70,0 Z M3,3 L67,3 L67,67 L3,67 L3,3 L3,3 L3,3 Z" id="Shape"></path>
                <path d="M27.009,17.119 C29.458,16.641 32.122,16.403 35,16.403 C37.878,16.403 40.542,16.641 42.991,17.119 C45.439,17.597 47.377,18.243 48.803,19.059 C50.228,19.875 50.941,20.761 50.941,21.715 L50.941,24.372 C50.941,25.327 50.228,26.213 48.803,27.028 C47.377,27.845 45.44,28.492 42.991,28.969 C40.542,29.447 37.878,29.685 35,29.685 C32.122,29.685 29.458,29.447 27.009,28.969 C24.56,28.491 22.623,27.845 21.197,27.028 C19.771,26.213 19.059,25.327 19.059,24.372 L19.059,21.715 C19.059,20.761 19.771,19.875 21.197,19.059 C22.623,18.243 24.56,17.596 27.009,17.119 L27.009,17.119 Z M25.805,31.451 C28.656,32.046 31.721,32.344 35,32.344 C38.279,32.344 41.345,32.046 44.194,31.451 C47.045,30.856 49.294,29.977 50.94,28.814 L50.94,32.343 C50.94,33.297 50.227,34.183 48.802,34.999 C47.376,35.815 45.439,36.463 42.99,36.939 C40.541,37.417 37.877,37.656 34.999,37.656 C32.121,37.656 29.457,37.417 27.008,36.939 C24.559,36.462 22.622,35.815 21.196,34.999 C19.77,34.183 19.058,33.297 19.058,32.343 L19.058,28.814 C20.706,29.977 22.955,30.856 25.805,31.451 L25.805,31.451 Z M25.805,39.42 C28.656,40.016 31.721,40.313 35,40.313 C38.279,40.313 41.345,40.016 44.194,39.42 C47.045,38.825 49.294,37.946 50.94,36.784 L50.94,40.312 C50.94,41.267 50.227,42.152 48.802,42.969 C47.376,43.785 45.439,44.432 42.99,44.909 C40.541,45.387 37.877,45.625 34.999,45.625 C32.121,45.625 29.457,45.387 27.008,44.909 C24.559,44.431 22.622,43.785 21.196,42.969 C19.77,42.152 19.058,41.267 19.058,40.312 L19.058,36.784 C20.706,37.947 22.955,38.826 25.805,39.42 L25.805,39.42 Z M25.805,47.391 C28.656,47.986 31.721,48.283 35,48.283 C38.279,48.283 41.345,47.986 44.194,47.391 C47.045,46.795 49.294,45.916 50.94,44.754 L50.94,48.282 C50.94,49.237 50.227,50.123 48.802,50.939 C47.376,51.755 45.439,52.402 42.99,52.879 C40.541,53.357 37.877,53.595 34.999,53.595 C32.121,53.595 29.457,53.357 27.008,52.879 C24.559,52.401 22.622,51.755 21.196,50.939 C19.77,50.123 19.058,49.237 19.058,48.282 L19.058,44.754 C20.706,45.917 22.955,46.795 25.805,47.391 L25.805,47.391 Z" id="Shape"></path>
            </g>
            <g id="Group" transform="translate(420.000000, 0.000000)" fill="#1A6FB6">
                <path d="M70,0 L0,0 L0,70 L70,70 L70,67 L70,67 L70,67 L70,0 L70,0 L70,0 Z M3,3 L67,3 L67,67 L3,67 L3,3 L3,3 L3,3 Z" id="Shape"></path>
                <path d="M29.518,39.679 L29.518,41.177 C29.518,41.777 29.24,42.198 28.684,42.441 C28.498,42.512 28.319,42.548 28.148,42.548 C27.762,42.548 27.441,42.412 27.184,42.141 L16.22,31.177 C15.949,30.906 15.814,30.584 15.814,30.213 C15.814,29.842 15.95,29.521 16.22,29.25 L27.184,18.285 C27.598,17.843 28.098,17.743 28.684,17.985 C29.24,18.228 29.518,18.649 29.518,19.249 L29.518,20.727 L21.017,29.25 C20.746,29.521 20.611,29.842 20.611,30.213 C20.611,30.584 20.746,30.905 21.017,31.177 L29.518,39.679 L29.518,39.679 Z M54.188,40.493 C54.188,41.321 54.066,42.273 53.824,43.352 C53.581,44.429 53.306,45.415 53,46.306 C52.693,47.199 52.351,48.091 51.972,48.984 C51.594,49.876 51.305,50.521 51.105,50.922 C50.906,51.321 50.762,51.607 50.676,51.778 C50.562,52.02 50.363,52.142 50.076,52.142 C49.99,52.142 49.926,52.134 49.884,52.121 C49.528,52.006 49.363,51.765 49.392,51.392 C50.005,45.682 49.248,41.649 47.122,39.293 C46.208,38.279 44.99,37.49 43.47,36.927 C41.949,36.363 40.04,35.989 37.742,35.803 L37.742,41.177 C37.742,41.777 37.464,42.198 36.906,42.441 C36.72,42.512 36.543,42.548 36.372,42.548 C35.986,42.548 35.665,42.412 35.408,42.141 L24.443,31.177 C24.172,30.906 24.037,30.584 24.037,30.213 C24.037,29.842 24.172,29.521 24.443,29.25 L35.408,18.285 C35.822,17.843 36.321,17.743 36.906,17.985 C37.464,18.228 37.742,18.649 37.742,19.249 L37.742,24.859 C43.609,25.259 47.885,26.837 50.569,29.591 C52.98,32.062 54.188,35.696 54.188,40.493 L54.188,40.493 Z" id="Shape"></path>
            </g>
            <g id="Group" transform="translate(490.000000, 0.000000)" fill="#1A6FB6">
                <path d="M70,0 L0,0 L0,70 L70,70 L70,67 L70,67 L70,67 L70,0 L70,0 L70,0 Z M3,3 L67,3 L67,67 L3,67 L3,3 L3,3 L3,3 Z" id="Shape"></path>
                <path d="M54.777,47.361 L54.777,49.833 L15.222,49.833 L15.222,20.167 L17.695,20.167 L17.695,47.361 L54.777,47.361 L54.777,47.361 Z M27.584,35 L27.584,44.889 L22.64,44.889 L22.64,35 L27.584,35 L27.584,35 Z M35,25.111 L35,44.888 L30.056,44.888 L30.056,25.111 L35,25.111 L35,25.111 Z M42.417,30.056 L42.417,44.889 L37.473,44.889 L37.473,30.056 L42.417,30.056 L42.417,30.056 Z M49.833,22.639 L49.833,44.889 L44.89,44.889 L44.89,22.639 L49.833,22.639 L49.833,22.639 Z" id="Shape"></path>
            </g>
            <g id="Group" transform="translate(560.000000, 0.000000)" fill="#1A6FB6">
                <path d="M70,0 L0,0 L0,70 L70,70 L70,67 L70,67 L70,67 L70,0 L70,0 L70,0 Z M3,3 L67,3 L67,67 L3,67 L3,3 L3,3 L3,3 Z" id="Shape"></path>
                <path d="M39.243,22.847 C39.243,20.587 37.767,18.88 35.322,18.88 C33.662,18.88 31.817,19.987 31.817,21.832 C31.817,24.415 35.83,25.799 39.658,27.644 C43.532,29.489 47.361,31.748 47.361,36.13 C47.361,39.174 45.423,41.85 42.564,42.864 C44.316,44.201 45.1,46.092 45.1,48.306 C45.1,53.518 39.934,56.054 35.276,56.054 C29.419,56.054 24.852,53.379 24.898,47.107 L30.618,47.107 C30.757,49.782 32.371,51.12 35.139,51.12 C37.03,51.12 38.551,50.105 38.551,48.076 C38.551,45.354 34.77,43.971 30.711,42.08 C26.698,40.188 22.639,37.837 22.639,33.316 C22.639,29.996 24.485,27.689 27.575,26.582 C26.283,25.199 25.592,23.861 25.592,21.924 C25.592,16.713 30.528,13.945 35.232,13.945 C40.673,13.945 44.964,17.127 44.964,22.846 L39.243,22.846 L39.243,22.847 Z M31.955,30.134 C31.587,29.95 31.171,29.627 30.711,29.673 C29.373,29.812 28.357,31.426 28.357,32.763 C28.357,33.64 28.819,34.47 29.834,35.023 L38.137,39.544 C38.46,39.683 38.967,39.867 39.52,39.867 C40.719,39.867 41.641,38.345 41.641,37.33 C41.641,35.946 40.672,35.023 39.567,34.425 L31.955,30.134 L31.955,30.134 Z" id="Shape"></path>
            </g>
            <g id="Group" transform="translate(630.000000, 0.000000)" fill="#1A6FB6">
                <path d="M70,0 L0,0 L0,70 L70,70 L70,67 L70,67 L70,67 L70,0 L70,0 L70,0 Z M3,3 L67,3 L67,67 L3,67 L3,3 L3,3 L3,3 Z" id="Shape"></path>
                <path d="M55.212,47.271 C55.212,47.858 54.852,48.376 54.333,48.602 C54.152,48.669 53.949,48.715 53.769,48.715 C53.385,48.715 53.025,48.579 52.754,48.285 L43.662,39.195 L43.662,42.939 C43.662,46.525 40.753,49.436 37.166,49.436 L21.285,49.436 C17.698,49.436 14.788,46.525 14.788,42.939 L14.788,27.06 C14.788,23.473 17.698,20.563 21.285,20.563 L37.166,20.563 C40.753,20.563 43.662,23.473 43.662,27.06 L43.662,30.782 L52.754,21.714 C53.025,21.42 53.385,21.285 53.769,21.285 C53.95,21.285 54.153,21.33 54.333,21.397 C54.852,21.624 55.212,22.142 55.212,22.729 L55.212,47.271 L55.212,47.271 Z" id="Shape"></path>
            </g>
        </g>
    </g>
</svg>