<?xml version="1.0" encoding="UTF-8" standalone="no"?>
<svg
   xmlns:dc="http://purl.org/dc/elements/1.1/"
   xmlns:cc="http://creativecommons.org/ns#"
   xmlns:rdf="http://www.w3.org/1999/02/22-rdf-syntax-ns#"
   xmlns:svg="http://www.w3.org/2000/svg"
   xmlns="http://www.w3.org/2000/svg"
   viewBox="0 0 289.33334 62.666668"
   height="62.666668"
   width="289.33334"
   xml:space="preserve"
   id="svg2"
   version="1.1"><metadata
     id="metadata8"><rdf:RDF><cc:Work
         rdf:about=""><dc:format>image/svg+xml</dc:format><dc:type
           rdf:resource="http://purl.org/dc/dcmitype/StillImage" /></cc:Work></rdf:RDF></metadata><defs
     id="defs6"><clipPath
       id="clipPath18"
       clipPathUnits="userSpaceOnUse"><path
         id="path16"
         d="M 0,47 H 217 V 0 H 0 Z" /></clipPath></defs><g
     transform="matrix(1.3333333,0,0,-1.3333333,0,62.666667)"
     id="g10"><g
       id="g12"><g
         clip-path="url(#clipPath18)"
         id="g14"><path
           id="path20"
           style="fill:#ffffff;fill-opacity:1;fill-rule:nonzero;stroke:none"
           d="m 17.267,13.649 h -3.269 v 19.367 h 5.098 l 5.845,-12.163 5.847,12.163 h 5.071 V 13.649 h -3.27 V 28.776 L 25.829,15.34 H 24 l -6.733,13.436 z" /><path
           id="path22"
           style="fill:#ffffff;fill-opacity:1;fill-rule:nonzero;stroke:none"
           d="m 49.635,19.136 v 1.246 h -3.491 c -2.234,0 -3.352,-0.702 -3.352,-2.107 0,-0.72 0.276,-1.27 0.831,-1.648 0.553,-0.378 1.325,-0.567 2.314,-0.567 0.988,0 1.851,0.277 2.591,0.831 0.737,0.553 1.107,1.301 1.107,2.245 m 3.103,-5.487 h -2.826 v 1.967 c -1.22,-1.46 -2.853,-2.189 -4.903,-2.189 -1.534,0 -2.803,0.435 -3.81,1.302 -1.008,0.868 -1.511,2.028 -1.511,3.477 0,1.451 0.537,2.536 1.608,3.257 1.071,0.719 2.52,1.08 4.349,1.08 h 4.018 v 0.555 c 0,1.957 -1.09,2.936 -3.269,2.936 -1.367,0 -2.789,-0.499 -4.267,-1.496 l -1.386,1.939 c 1.792,1.423 3.825,2.133 6.096,2.133 1.736,0 3.154,-0.438 4.254,-1.315 1.098,-0.878 1.647,-2.259 1.647,-4.143 z" /><path
           id="path24"
           style="fill:#ffffff;fill-opacity:1;fill-rule:nonzero;stroke:none"
           d="m 60.722,25.896 v -7.481 c 0,-0.703 0.184,-1.262 0.553,-1.676 0.371,-0.417 0.887,-0.624 1.552,-0.624 0.665,0 1.302,0.323 1.911,0.97 l 1.276,-2.189 c -1.091,-0.98 -2.295,-1.469 -3.616,-1.469 -1.321,0 -2.448,0.458 -3.38,1.372 -0.934,0.914 -1.4,2.147 -1.4,3.699 v 7.398 h -1.855 v 2.493 h 1.855 v 4.627 h 3.104 V 28.389 H 64.6 v -2.493 z" /><path
           id="path26"
           style="fill:#ffffff;fill-opacity:1;fill-rule:nonzero;stroke:none"
           d="m 75.02,13.427 c -2.049,0 -3.814,0.698 -5.292,2.092 -1.478,1.395 -2.215,3.217 -2.215,5.472 0,2.253 0.771,4.086 2.312,5.501 1.543,1.412 3.423,2.118 5.639,2.118 2.217,0 4.092,-0.766 5.624,-2.3 L 79.26,24.066 c -1.276,1.109 -2.558,1.664 -3.852,1.664 -1.292,0 -2.414,-0.431 -3.366,-1.289 -0.951,-0.86 -1.427,-1.967 -1.427,-3.326 0,-1.357 0.47,-2.507 1.413,-3.448 0.943,-0.943 2.1,-1.414 3.477,-1.414 1.376,0 2.675,0.628 3.894,1.886 l 1.828,-1.996 c -1.792,-1.811 -3.86,-2.716 -6.207,-2.716" /><path
           id="path28"
           style="fill:#ffffff;fill-opacity:1;fill-rule:nonzero;stroke:none"
           d="m 87.548,21.629 v -7.98 H 84.444 V 34.18 h 3.104 v -8.479 c 0.443,0.905 1.112,1.615 2.008,2.134 0.896,0.517 1.862,0.775 2.896,0.775 1.662,0 3.006,-0.508 4.031,-1.523 1.024,-1.016 1.538,-2.484 1.538,-4.406 v -9.032 h -3.104 v 8.09 c 0,2.716 -1.127,4.073 -3.38,4.073 -1.071,0 -2.003,-0.355 -2.798,-1.067 -0.794,-0.71 -1.191,-1.75 -1.191,-3.116" /><path
           id="path30"
           style="fill:#ffffff;fill-opacity:1;fill-rule:nonzero;stroke:none"
           d="M 124.761,29.275 V 13.649 h -4.322 v 15.626 h -5.485 v 3.741 h 15.295 v -3.741 z" /><path
           id="path32"
           style="fill:#ffffff;fill-opacity:1;fill-rule:nonzero;stroke:none"
           d="m 139.699,19.329 v 0.719 h -2.604 c -1.662,0 -2.493,-0.517 -2.493,-1.55 0,-0.536 0.197,-0.947 0.594,-1.233 0.397,-0.287 0.964,-0.429 1.705,-0.429 0.738,0 1.39,0.225 1.953,0.679 0.564,0.451 0.845,1.055 0.845,1.814 m 4.183,-5.68 h -3.906 v 1.801 c -1.072,-1.349 -2.398,-2.023 -3.976,-2.023 -1.58,0 -2.904,0.458 -3.977,1.372 -1.07,0.914 -1.606,2.134 -1.606,3.657 0,1.524 0.555,2.665 1.664,3.422 1.106,0.757 2.621,1.135 4.542,1.135 h 3.104 v 0.085 c 0,1.588 -0.84,2.381 -2.521,2.381 -0.723,0 -1.483,-0.142 -2.288,-0.429 -0.804,-0.286 -1.48,-0.642 -2.035,-1.067 l -1.857,2.688 c 1.958,1.422 4.195,2.134 6.706,2.134 1.81,0 3.289,-0.453 4.433,-1.359 1.146,-0.904 1.717,-2.336 1.717,-4.294 z" /><path
           id="path34"
           style="fill:#ffffff;fill-opacity:1;fill-rule:nonzero;stroke:none"
           d="m 151.839,13.649 h -4.155 v 20.558 h 4.155 z" /><path
           id="path36"
           style="fill:#ffffff;fill-opacity:1;fill-rule:nonzero;stroke:none"
           d="m 164.695,24.648 c -0.571,0.48 -1.269,0.721 -2.091,0.721 -0.822,0 -1.575,-0.249 -2.257,-0.748 -0.683,-0.499 -1.082,-1.173 -1.191,-2.022 h 6.536 c -0.089,0.885 -0.422,1.568 -0.997,2.049 m 3.992,-8.838 c -1.683,-1.588 -3.653,-2.383 -5.916,-2.383 -2.264,0 -4.133,0.698 -5.611,2.092 -1.478,1.395 -2.217,3.264 -2.217,5.611 0,2.346 0.752,4.212 2.257,5.597 1.505,1.384 3.285,2.078 5.334,2.078 2.053,0 3.793,-0.619 5.223,-1.857 1.431,-1.238 2.147,-2.938 2.147,-5.098 v -2.215 h -10.86 c 0.13,-0.814 0.553,-1.479 1.275,-1.997 0.72,-0.517 1.533,-0.775 2.438,-0.775 1.458,0 2.661,0.49 3.6,1.469 z" /><path
           id="path38"
           style="fill:#ffffff;fill-opacity:1;fill-rule:nonzero;stroke:none"
           d="m 177.058,21.961 v -8.312 h -4.159 v 14.907 h 4.159 v -1.662 c 1.254,1.273 2.668,1.911 4.237,1.911 1.571,0 2.886,-0.555 3.949,-1.664 1.061,-1.107 1.593,-2.585 1.593,-4.432 v -9.06 h -4.155 v 8.422 c 0,2.291 -0.84,3.437 -2.521,3.437 -0.834,0 -1.557,-0.301 -2.176,-0.901 -0.62,-0.6 -0.927,-1.482 -0.927,-2.646" /><path
           id="path40"
           style="fill:#ffffff;fill-opacity:1;fill-rule:nonzero;stroke:none"
           d="m 195.348,25.563 v -6.678 c 0,-0.572 0.147,-1.02 0.441,-1.344 0.296,-0.323 0.647,-0.484 1.055,-0.484 0.776,0 1.431,0.35 1.967,1.052 l 1.55,-2.908 c -1.294,-1.183 -2.653,-1.774 -4.086,-1.774 -1.432,0 -2.641,0.471 -3.629,1.413 -0.989,0.942 -1.484,2.225 -1.484,3.851 v 6.872 h -1.744 v 2.993 h 1.744 v 4.46 h 4.186 v -4.46 h 3.602 v -2.993 z" /><path
           id="path42"
           style="fill:#ffffff;fill-opacity:1;fill-rule:nonzero;stroke:none"
           d="M 104.703,46.883 V 3.558 H 3.559 v 39.767 h 97.586 v 3.558 H 0 V 0 H 108.262 V 43.325 H 210.803 V 3.558 H 111.82 V 0 h 102.539 v 46.883 z" /></g></g></g></svg>