<?xml version="1.0" encoding="UTF-8"?>
<svg width="286px" height="63px" viewBox="0 0 286 63" version="1.1" xmlns="http://www.w3.org/2000/svg" xmlns:xlink="http://www.w3.org/1999/xlink">
    <!-- Generator: Sketch 40.3 (33839) - http://www.bohemiancoding.com/sketch -->
    <title>logo_matchtalent</title>
    <desc>Created with Sketch.</desc>
    <defs></defs>
    <g id="Page-1" stroke="none" stroke-width="1" fill="none" fill-rule="evenodd">
        <g id="logo_matchtalent" transform="translate(0.000000, -1.000000)" fill="#1A6FB6">
            <g id="g10" transform="translate(143.000000, 32.166667) scale(1, -1) translate(-143.000000, -32.166667) translate(0.000000, 0.666667)">
                <g id="g12">
                    <g id="g14-Clipped">
                        <g id="g14">
                            <polygon id="path20" points="23.0226661 18.1986662 18.6639995 18.1986662 18.6639995 44.0213322 25.4613327 44.0213322 33.2546658 27.8039993 41.0506656 44.0213322 47.8119988 44.0213322 47.8119988 18.1986662 43.4519989 18.1986662 43.4519989 38.367999 34.4386658 20.4533328 31.9999992 20.4533328 23.0226661 38.367999"></polygon>
                            <path d="M66.1799983,25.514666 L66.1799983,27.1759993 L61.5253318,27.1759993 C58.5466652,27.1759993 57.0559986,26.2399993 57.0559986,24.3666661 C57.0559986,23.4066661 57.4239986,22.6733328 58.1639985,22.1693328 C58.9013319,21.6653328 59.9306652,21.4133328 61.2493318,21.4133328 C62.5666651,21.4133328 63.7173317,21.7826661 64.7039984,22.5213328 C65.686665,23.2586661 66.1799983,24.2559994 66.1799983,25.514666 L66.1799983,25.514666 Z M70.3173316,18.1986662 L66.5493317,18.1986662 L66.5493317,20.8213328 C64.922665,18.8746662 62.7453318,17.9026662 60.0119985,17.9026662 C57.9666652,17.9026662 56.2746653,18.4826662 54.9319986,19.6386662 C53.5879987,20.7959995 52.917332,22.3426661 52.917332,24.2746661 C52.917332,26.2093327 53.633332,27.6559993 55.061332,28.6173326 C56.4893319,29.5759993 58.4213319,30.0573326 60.8599985,30.0573326 L66.2173317,30.0573326 L66.2173317,30.7973326 C66.2173317,33.4066658 64.7639984,34.7119991 61.8586651,34.7119991 C60.0359985,34.7119991 58.1399985,34.0466658 56.1693319,32.7173325 L54.321332,35.3026658 C56.7106652,37.1999991 59.4213318,38.1466657 62.4493318,38.1466657 C64.7639984,38.1466657 66.654665,37.5626657 68.1213316,36.3933324 C69.5853316,35.2226658 70.3173316,33.3813325 70.3173316,30.8693326 L70.3173316,18.1986662 Z" id="path22"></path>
                            <path d="M80.9626646,34.5279991 L80.9626646,24.5533327 C80.9626646,23.6159994 81.207998,22.8706661 81.699998,22.3186661 C82.1946646,21.7626661 82.8826646,21.4866661 83.7693312,21.4866661 C84.6559979,21.4866661 85.5053312,21.9173328 86.3173312,22.7799994 L88.0186645,19.8613328 C86.5639978,18.5546662 84.9586645,17.9026662 83.1973313,17.9026662 C81.435998,17.9026662 79.9333313,18.5133329 78.6906647,19.7319995 C77.4453314,20.9506661 76.8239981,22.5946661 76.8239981,24.6639994 L76.8239981,34.5279991 L74.3506648,34.5279991 L74.3506648,37.8519991 L76.8239981,37.8519991 L76.8239981,44.0213322 L80.9626646,44.0213322 L80.9626646,37.8519991 L86.1333312,37.8519991 L86.1333312,34.5279991 L80.9626646,34.5279991 Z" id="path24"></path>
                            <path d="M100.026664,17.9026662 C97.2946642,17.9026662 94.941331,18.8333329 92.9706643,20.6919995 C90.9999977,22.5519994 90.0173311,24.9813327 90.0173311,27.9879993 C90.0173311,30.9919992 91.0453311,33.4359992 93.0999977,35.3226658 C95.157331,37.2053324 97.6639976,38.1466657 100.618664,38.1466657 C103.574664,38.1466657 106.074664,37.1253324 108.117331,35.0799991 L105.679997,32.0879992 C103.978664,33.5666658 102.269331,34.3066658 100.543997,34.3066658 C98.8213309,34.3066658 97.3253309,33.7319992 96.0559976,32.5879992 C94.7879976,31.4413325 94.153331,29.9653326 94.153331,28.1533326 C94.153331,26.3439993 94.7799976,24.810666 96.0373309,23.5559994 C97.2946642,22.2986661 98.8373309,21.6706661 100.673331,21.6706661 C102.507997,21.6706661 104.239997,22.5079994 105.865331,24.1853327 L108.302664,21.5239995 C105.913331,19.1093329 103.155997,17.9026662 100.026664,17.9026662" id="path26"></path>
                            <path d="M116.730664,28.8386659 L116.730664,18.1986662 L112.591997,18.1986662 L112.591997,45.5733322 L116.730664,45.5733322 L116.730664,34.2679991 C117.32133,35.4746658 118.21333,36.4213324 119.407997,37.1133324 C120.602664,37.8026657 121.890664,38.1466657 123.26933,38.1466657 C125.48533,38.1466657 127.27733,37.4693324 128.643997,36.1159991 C130.00933,34.7613325 130.694663,32.8039992 130.694663,30.2413326 L130.694663,18.1986662 L126.555997,18.1986662 L126.555997,28.9853326 C126.555997,32.6066659 125.05333,34.4159991 122.04933,34.4159991 C120.62133,34.4159991 119.378664,33.9426658 118.318664,32.9933325 C117.259997,32.0466659 116.730664,30.6599992 116.730664,28.8386659" id="path28"></path>
                            <polygon id="path30" points="166.347996 39.0333324 166.347996 18.1986662 160.585329 18.1986662 160.585329 39.0333324 153.271996 39.0333324 153.271996 44.0213322 173.665329 44.0213322 173.665329 39.0333324"></polygon>
                            <path d="M186.265329,25.7719994 L186.265329,26.730666 L182.793329,26.730666 C180.577329,26.730666 179.469329,26.0413327 179.469329,24.6639994 C179.469329,23.9493327 179.731996,23.4013327 180.261329,23.0199994 C180.790662,22.6373328 181.546662,22.4479994 182.534662,22.4479994 C183.518662,22.4479994 184.387995,22.7479994 185.138662,23.3533327 C185.890662,23.9546661 186.265329,24.7599994 186.265329,25.7719994 L186.265329,25.7719994 Z M191.842662,18.1986662 L186.634662,18.1986662 L186.634662,20.5999995 C185.205329,18.8013329 183.437329,17.9026662 181.333329,17.9026662 C179.226662,17.9026662 177.461329,18.5133329 176.030662,19.7319995 C174.603996,20.9506661 173.889329,22.5773328 173.889329,24.6079994 C173.889329,26.6399993 174.629329,28.1613326 176.107996,29.1706659 C177.582662,30.1799992 179.602662,30.6839992 182.163995,30.6839992 L186.302662,30.6839992 L186.302662,30.7973326 C186.302662,32.9146658 185.182662,33.9719992 182.941329,33.9719992 C181.977329,33.9719992 180.963995,33.7826658 179.890662,33.3999992 C178.818662,33.0186658 177.917329,32.5439992 177.177329,31.9773325 L174.701329,35.5613324 C177.311996,37.4573324 180.294662,38.4066657 183.642662,38.4066657 C186.055995,38.4066657 188.027995,37.8026657 189.553329,36.5946658 C191.081329,35.3893324 191.842662,33.4799992 191.842662,30.8693326 L191.842662,18.1986662 Z" id="path32"></path>
                            <polygon id="path34" points="202.451995 18.1986662 196.911995 18.1986662 196.911995 45.6093322 202.451995 45.6093322"></polygon>
                            <path d="M219.593328,32.8639992 C218.831995,33.5039992 217.901328,33.8253325 216.805328,33.8253325 C215.709328,33.8253325 214.705328,33.4933325 213.795995,32.8279992 C212.885328,32.1626659 212.353328,31.2639992 212.207995,30.1319992 L220.922661,30.1319992 C220.803994,31.3119992 220.359994,32.2226659 219.593328,32.8639992 L219.593328,32.8639992 Z M224.915994,21.0799995 C222.671994,18.9626662 220.045328,17.9026662 217.027995,17.9026662 C214.009328,17.9026662 211.517328,18.8333329 209.546661,20.6919995 C207.575995,22.5519994 206.590662,25.0439994 206.590662,28.1733326 C206.590662,31.3013326 207.593328,33.7893325 209.599995,35.6359991 C211.606661,37.4813324 213.979995,38.4066657 216.711995,38.4066657 C219.449328,38.4066657 221.769328,37.5813324 223.675994,35.9306658 C225.583994,34.2799991 226.538661,32.0133325 226.538661,29.1333326 L226.538661,26.1799993 L212.058661,26.1799993 C212.231995,25.094666 212.795995,24.2079994 213.758661,23.5173327 C214.718661,22.8279994 215.802661,22.4839994 217.009328,22.4839994 C218.953328,22.4839994 220.557328,23.1373328 221.809328,24.4426661 L224.915994,21.0799995 Z" id="path36"></path>
                            <path d="M236.077327,29.2813326 L236.077327,18.1986662 L230.531994,18.1986662 L230.531994,38.0746657 L236.077327,38.0746657 L236.077327,35.8586658 C237.749327,37.5559991 239.634661,38.4066657 241.726661,38.4066657 C243.821327,38.4066657 245.574661,37.6666657 246.991994,36.1879991 C248.40666,34.7119991 249.115994,32.7413325 249.115994,30.2786659 L249.115994,18.1986662 L243.575994,18.1986662 L243.575994,29.4279993 C243.575994,32.4826659 242.455994,34.0106658 240.214661,34.0106658 C239.102661,34.0106658 238.138661,33.6093325 237.313327,32.8093325 C236.486661,32.0093325 236.077327,30.8333326 236.077327,29.2813326" id="path38"></path>
                            <path d="M260.463993,34.0839991 L260.463993,25.1799994 C260.463993,24.4173327 260.659993,23.8199994 261.051993,23.3879994 C261.44666,22.9573328 261.91466,22.7426661 262.45866,22.7426661 C263.493327,22.7426661 264.36666,23.2093328 265.081327,24.1453327 L267.147993,20.2679995 C265.42266,18.6906662 263.61066,17.9026662 261.699993,17.9026662 C259.79066,17.9026662 258.17866,18.5306662 256.861327,19.7866662 C255.54266,21.0426661 254.88266,22.7533328 254.88266,24.9213327 L254.88266,34.0839991 L252.557327,34.0839991 L252.557327,38.0746657 L254.88266,38.0746657 L254.88266,44.0213322 L260.463993,44.0213322 L260.463993,38.0746657 L265.26666,38.0746657 L265.26666,34.0839991 L260.463993,34.0839991 Z" id="path40"></path>
                            <polygon id="path42" points="139.603997 62.5106651 139.603997 4.74399988 4.74533321 4.74399988 4.74533321 57.7666652 134.859997 57.7666652 134.859997 62.5106651 0 62.5106651 0 0 144.34933 0 144.34933 57.7666652 281.07066 57.7666652 281.07066 4.74399988 149.09333 4.74399988 149.09333 0 285.811993 0 285.811993 62.5106651"></polygon>
                        </g>
                    </g>
                </g>
            </g>
        </g>
    </g>
</svg>