<?xml version="1.0" encoding="UTF-8" standalone="no"?>
<svg
   xmlns:dc="http://purl.org/dc/elements/1.1/"
   xmlns:cc="http://creativecommons.org/ns#"
   xmlns:rdf="http://www.w3.org/1999/02/22-rdf-syntax-ns#"
   xmlns:svg="http://www.w3.org/2000/svg"
   xmlns="http://www.w3.org/2000/svg"
   viewBox="0 0 145.33333 37.333332"
   height="37.333332"
   width="145.33333"
   xml:space="preserve"
   id="svg2"
   version="1.1"><metadata
     id="metadata8"><rdf:RDF><cc:Work
         rdf:about=""><dc:format>image/svg+xml</dc:format><dc:type
           rdf:resource="http://purl.org/dc/dcmitype/StillImage" /></cc:Work></rdf:RDF></metadata><defs
     id="defs6"><clipPath
       id="clipPath18"
       clipPathUnits="userSpaceOnUse"><path
         id="path16"
         d="M 0,28 H 109 V 0 H 0 Z" /></clipPath></defs><g
     transform="matrix(1.3333333,0,0,-1.3333333,0,37.333333)"
     id="g10"><g
       id="g12"><g
         clip-path="url(#clipPath18)"
         id="g14"><path
           id="path20"
           style="fill:#ffffff;fill-opacity:1;fill-rule:evenodd;stroke:none"
           d="m 108.147,1.749 c -0.187,-0.333 -0.453,-0.599 -0.799,-0.792 -0.347,-0.194 -0.711,-0.291 -1.1,-0.291 -0.384,0 -0.744,0.097 -1.079,0.293 -0.332,0.195 -0.602,0.471 -0.798,0.823 -0.2,0.353 -0.299,0.723 -0.299,1.11 0,0.387 0.099,0.757 0.297,1.106 0.194,0.349 0.462,0.62 0.794,0.815 0.333,0.194 0.697,0.289 1.092,0.289 0.611,0 1.126,-0.212 1.542,-0.64 0.42,-0.426 0.632,-0.957 0.632,-1.59 0,-0.418 -0.095,-0.793 -0.282,-1.123 m 0.239,3.901 V 4.64 c -0.276,0.382 -0.599,0.672 -0.963,0.862 -0.366,0.189 -0.773,0.285 -1.224,0.285 -0.782,0 -1.452,-0.281 -2.006,-0.844 -0.556,-0.562 -0.834,-1.24 -0.834,-2.03 0,-0.808 0.276,-1.493 0.824,-2.058 0.55,-0.562 1.216,-0.843 1.994,-0.843 0.438,0 0.842,0.09 1.211,0.269 0.37,0.181 0.702,0.449 0.998,0.813 V 0.146 h 0.704 V 5.65 Z" /><path
           id="path22"
           style="fill:#ffffff;fill-opacity:1;fill-rule:evenodd;stroke:none"
           d="m 95.395,0.146 h 0.707 v 5.506 h -0.707 z" /><path
           id="path24"
           style="fill:#ffffff;fill-opacity:1;fill-rule:evenodd;stroke:none"
           d="m 95.747,7.911 c -0.158,0 -0.295,-0.057 -0.408,-0.172 -0.115,-0.115 -0.172,-0.254 -0.172,-0.416 0,-0.16 0.057,-0.297 0.172,-0.412 0.113,-0.114 0.25,-0.172 0.408,-0.172 0.158,0 0.297,0.058 0.412,0.172 0.112,0.115 0.17,0.252 0.17,0.412 0,0.162 -0.058,0.301 -0.17,0.416 -0.115,0.115 -0.254,0.172 -0.412,0.172" /><path
           id="path26"
           style="fill:#ffffff;fill-opacity:1;fill-rule:evenodd;stroke:none"
           d="M 86.906,1.749 C 86.719,1.416 86.451,1.15 86.104,0.957 85.758,0.763 85.392,0.666 85.004,0.666 c -0.381,0 -0.741,0.097 -1.075,0.293 -0.335,0.195 -0.603,0.471 -0.801,0.823 -0.198,0.353 -0.299,0.723 -0.299,1.11 0,0.387 0.099,0.757 0.297,1.106 0.196,0.349 0.462,0.62 0.794,0.815 0.333,0.194 0.695,0.289 1.09,0.289 0.613,0 1.129,-0.212 1.547,-0.64 0.419,-0.426 0.629,-0.957 0.629,-1.59 0,-0.418 -0.095,-0.793 -0.28,-1.123 m 0.239,2.883 c -0.278,0.385 -0.599,0.674 -0.963,0.865 -0.367,0.192 -0.775,0.29 -1.228,0.29 -0.782,0 -1.449,-0.281 -2.006,-0.844 -0.556,-0.562 -0.834,-1.24 -0.834,-2.03 0,-0.808 0.276,-1.493 0.826,-2.058 0.552,-0.562 1.216,-0.843 1.995,-0.843 0.437,0 0.841,0.09 1.211,0.269 0.369,0.181 0.702,0.449 0.999,0.813 V 0.146 h 0.705 v 7.631 h -0.705 z" /><path
           id="path28"
           style="fill:#ffffff;fill-opacity:1;fill-rule:evenodd;stroke:none"
           d="m 70.121,3.454 c 0.145,0.505 0.36,0.885 0.646,1.137 0.39,0.348 0.86,0.522 1.4,0.522 0.331,0 0.646,-0.069 0.944,-0.208 0.3,-0.138 0.539,-0.32 0.722,-0.547 0.182,-0.225 0.32,-0.528 0.415,-0.904 z m 4.296,1.266 c -0.563,0.711 -1.315,1.067 -2.258,1.067 -0.915,0 -1.643,-0.347 -2.19,-1.042 -0.43,-0.545 -0.646,-1.164 -0.646,-1.861 0,-0.739 0.256,-1.405 0.763,-1.99 0.507,-0.589 1.212,-0.882 2.113,-0.882 0.405,0 0.77,0.059 1.091,0.184 0.32,0.121 0.612,0.299 0.867,0.534 0.26,0.235 0.486,0.543 0.684,0.927 L 74.242,1.971 C 74.024,1.614 73.822,1.354 73.637,1.194 73.45,1.036 73.223,0.907 72.957,0.811 72.691,0.713 72.417,0.666 72.136,0.666 c -0.585,0 -1.072,0.203 -1.472,0.609 -0.396,0.409 -0.6,0.929 -0.616,1.567 h 4.978 C 75.019,3.593 74.814,4.218 74.417,4.72" /><path
           id="path30"
           style="fill:#ffffff;fill-opacity:1;fill-rule:evenodd;stroke:none"
           d="m 61.214,5.497 c -0.291,0.192 -0.628,0.29 -1.008,0.29 -0.408,0 -0.788,-0.113 -1.141,-0.337 C 58.709,5.227 58.416,4.897 58.18,4.464 58.069,4.789 57.937,5.038 57.786,5.21 57.634,5.385 57.436,5.525 57.198,5.628 56.958,5.733 56.705,5.787 56.438,5.787 56.041,5.787 55.667,5.68 55.309,5.47 55.049,5.308 54.796,5.05 54.548,4.699 V 5.652 H 53.843 V 0.146 h 0.705 v 2.332 c 0,0.689 0.069,1.198 0.206,1.533 0.137,0.332 0.347,0.597 0.634,0.796 0.283,0.198 0.59,0.295 0.917,0.295 0.283,0 0.528,-0.072 0.734,-0.216 0.206,-0.143 0.351,-0.333 0.434,-0.571 0.082,-0.237 0.123,-0.689 0.123,-1.352 V 0.146 h 0.705 v 2.153 c 0,0.791 0.065,1.353 0.198,1.689 0.131,0.337 0.339,0.609 0.624,0.811 0.283,0.201 0.598,0.303 0.94,0.303 0.284,0 0.525,-0.068 0.729,-0.203 0.202,-0.134 0.347,-0.312 0.432,-0.532 0.083,-0.222 0.127,-0.628 0.127,-1.219 V 0.146 h 0.724 v 3.002 c 0,0.688 -0.069,1.203 -0.212,1.547 -0.14,0.343 -0.358,0.613 -0.649,0.802" /><path
           id="path32"
           style="fill:#ffffff;fill-opacity:1;fill-rule:evenodd;stroke:none"
           d="m 45.633,0.146 h 0.705 v 5.506 h -0.705 z" /><path
           id="path34"
           style="fill:#ffffff;fill-opacity:1;fill-rule:evenodd;stroke:none"
           d="m 45.983,7.911 c -0.158,0 -0.294,-0.057 -0.408,-0.172 -0.114,-0.115 -0.171,-0.254 -0.171,-0.416 0,-0.16 0.057,-0.297 0.171,-0.412 0.114,-0.114 0.25,-0.172 0.408,-0.172 0.16,0 0.298,0.058 0.412,0.172 0.114,0.115 0.171,0.252 0.171,0.412 0,0.162 -0.057,0.301 -0.171,0.416 -0.114,0.115 -0.252,0.172 -0.412,0.172" /><path
           id="path36"
           style="fill:#ffffff;fill-opacity:1;fill-rule:evenodd;stroke:none"
           d="M 37.5,7.704 H 36.794 V 5.652 H 35.83 V 5.04 h 0.964 V 0.146 H 37.5 V 5.04 h 1.119 V 5.652 H 37.5 Z" /><path
           id="path38"
           style="fill:#ffffff;fill-opacity:1;fill-rule:evenodd;stroke:none"
           d="m 27.973,0.146 h 0.705 v 7.631 h -0.705 z" /><path
           id="path40"
           style="fill:#ffffff;fill-opacity:1;fill-rule:evenodd;stroke:none"
           d="M 19.751,3.084 C 19.751,2.395 19.716,1.945 19.646,1.733 19.541,1.422 19.35,1.173 19.074,0.982 18.798,0.79 18.462,0.695 18.066,0.695 c -0.395,0 -0.736,0.099 -1.022,0.293 -0.286,0.197 -0.48,0.464 -0.581,0.8 -0.067,0.236 -0.102,0.668 -0.102,1.296 V 5.652 H 15.657 V 3.004 c 0,-0.782 0.088,-1.368 0.265,-1.758 0.177,-0.389 0.446,-0.691 0.806,-0.909 0.359,-0.216 0.807,-0.327 1.343,-0.327 0.538,0 0.985,0.111 1.341,0.327 0.356,0.218 0.623,0.518 0.799,0.903 0.178,0.384 0.266,0.954 0.266,1.713 v 2.699 h -0.726 z" /><path
           id="path42"
           style="fill:#ffffff;fill-opacity:1;fill-rule:evenodd;stroke:none"
           d="M 7.37,5.497 C 7.079,5.689 6.743,5.787 6.363,5.787 5.955,5.787 5.574,5.674 5.221,5.45 4.867,5.227 4.572,4.897 4.336,4.464 4.225,4.789 4.093,5.038 3.941,5.21 3.79,5.385 3.594,5.525 3.354,5.628 3.114,5.733 2.86,5.787 2.594,5.787 2.199,5.787 1.823,5.68 1.464,5.47 1.205,5.308 0.951,5.05 0.706,4.699 V 5.652 H 0 V 0.146 h 0.706 v 2.332 c 0,0.689 0.068,1.198 0.204,1.533 C 1.046,4.343 1.258,4.608 1.543,4.807 1.828,5.005 2.135,5.102 2.461,5.102 2.746,5.102 2.99,5.03 3.196,4.886 3.402,4.743 3.546,4.553 3.629,4.315 3.711,4.078 3.753,3.626 3.753,2.963 V 0.146 h 0.705 v 2.153 c 0,0.791 0.065,1.353 0.197,1.689 C 4.786,4.325 4.993,4.597 5.278,4.799 5.562,5 5.876,5.102 6.22,5.102 6.502,5.102 6.745,5.034 6.948,4.899 7.152,4.765 7.295,4.587 7.38,4.367 7.464,4.145 7.506,3.739 7.506,3.148 V 0.146 H 8.231 V 3.148 C 8.231,3.836 8.161,4.351 8.02,4.695 7.878,5.038 7.662,5.308 7.37,5.497" /><path
           id="path44"
           style="fill:#ffffff;fill-opacity:1;fill-rule:evenodd;stroke:none"
           d="M 12.799,28 10.027,17.159 7.259,28 H 0 V 10.185 H 4.503 V 23.769 L 7.972,10.185 h 4.079 l 3.475,13.584 V 10.185 h 4.503 v 0.488 c -1.212,0.103 -2.205,0.552 -2.929,1.38 -0.82,0.936 -1.236,2.011 -1.236,3.194 0,1.114 0.353,2.12 1.049,2.991 0.79,0.995 1.845,1.525 3.116,1.632 V 28 Z M 17.59,16.321 h 2.439 v 2.127 C 19.428,18.367 18.892,18.132 18.437,17.733 18.076,17.416 17.801,16.924 17.59,16.321 m 0.698,-3.413 c 0.488,-0.495 1.065,-0.766 1.741,-0.846 v 2.926 h -2.606 c 0.059,-0.83 0.331,-1.539 0.865,-2.08" /><path
           id="path46"
           style="fill:#ffffff;fill-opacity:1;fill-rule:evenodd;stroke:none"
           d="M 33.822,28 31.049,17.159 28.282,28 h -7.26 v -8.14 c 1.268,-0.126 2.326,-0.665 3.123,-1.659 0.648,-0.805 0.982,-1.82 0.993,-3.016 l 0.002,-0.197 h -4.118 v -2.913 c 0.214,0.035 0.425,0.086 0.631,0.159 0.393,0.144 0.729,0.332 0.999,0.56 0.273,0.231 0.577,0.619 0.904,1.151 l 0.095,0.155 1.265,-0.66 -0.09,-0.173 C 24.507,12.657 24.137,12.16 23.723,11.788 23.306,11.41 22.83,11.119 22.308,10.925 21.922,10.779 21.484,10.705 21.022,10.667 v -0.482 h 4.504 v 13.584 l 3.468,-13.584 h 4.08 l 3.475,13.584 V 10.185 h 4.503 V 28 Z M 22.934,17.398 c -0.264,0.323 -0.618,0.588 -1.053,0.787 -0.275,0.126 -0.564,0.198 -0.859,0.245 v -2.109 h 2.409 c -0.134,0.418 -0.282,0.812 -0.497,1.077" /><path
           id="path48"
           style="fill:#ffffff;fill-opacity:1;fill-rule:evenodd;stroke:none"
           d="m 49.354,12.799 c -0.31,-0.551 -0.728,-0.977 -1.255,-1.276 -0.527,-0.3 -1.106,-0.449 -1.736,-0.449 -0.63,0 -1.21,0.149 -1.737,0.449 -0.526,0.299 -0.945,0.725 -1.255,1.276 -0.31,0.55 -0.465,1.144 -0.465,1.782 0,0.988 0.341,1.831 1.02,2.527 0.679,0.697 1.491,1.045 2.437,1.045 0.94,0 1.751,-0.348 2.433,-1.045 0.682,-0.696 1.023,-1.539 1.023,-2.527 0,-0.638 -0.155,-1.232 -0.465,-1.782 m -2.988,6.471 c -1.37,0 -2.504,-0.496 -3.401,-1.484 -0.816,-0.899 -1.225,-1.959 -1.225,-3.182 0,-1.231 0.431,-2.308 1.293,-3.231 0.863,-0.921 1.974,-1.382 3.333,-1.382 1.356,0 2.464,0.461 3.326,1.382 0.862,0.923 1.293,2 1.293,3.231 0,1.23 -0.408,2.292 -1.224,3.19 -0.897,0.983 -2.029,1.476 -3.395,1.476" /><path
           id="path50"
           style="fill:#ffffff;fill-opacity:1;fill-rule:evenodd;stroke:none"
           d="m 55.269,19.27 c -0.418,0 -0.82,-0.125 -1.206,-0.374 -0.386,-0.248 -0.751,-0.627 -1.099,-1.137 v 1.293 h -1.167 v -8.845 h 1.167 v 2.99 c 0,1.532 0.071,2.55 0.212,3.055 0.185,0.656 0.453,1.139 0.806,1.45 0.352,0.312 0.721,0.467 1.101,0.467 0.162,0 0.362,-0.051 0.602,-0.153 l 0.594,0.952 c -0.358,0.201 -0.695,0.302 -1.01,0.302" /><path
           id="path52"
           style="fill:#ffffff;fill-opacity:1;fill-rule:evenodd;stroke:none"
           d="m 63.657,12.779 c -0.299,-0.533 -0.728,-0.957 -1.285,-1.269 -0.556,-0.313 -1.144,-0.47 -1.768,-0.47 -0.616,0 -1.192,0.157 -1.731,0.474 -0.534,0.315 -0.964,0.757 -1.283,1.322 -0.319,0.566 -0.478,1.161 -0.478,1.783 0,0.623 0.158,1.217 0.474,1.778 0.316,0.56 0.74,0.998 1.277,1.307 0.534,0.31 1.117,0.465 1.751,0.465 0.982,0 1.812,-0.342 2.484,-1.027 0.673,-0.686 1.009,-1.538 1.009,-2.557 0,-0.669 -0.15,-1.272 -0.45,-1.806 m 0.383,4.645 c -0.443,0.619 -0.959,1.081 -1.547,1.388 -0.586,0.305 -1.243,0.458 -1.969,0.458 -1.254,0 -2.33,-0.453 -3.221,-1.355 -0.894,-0.904 -1.341,-1.99 -1.341,-3.261 0,-1.297 0.443,-2.397 1.329,-3.304 0.885,-0.906 1.95,-1.359 3.2,-1.359 0.705,0 1.355,0.145 1.945,0.434 0.594,0.289 1.128,0.724 1.604,1.304 v -1.52 h 1.135 v 8.843 H 64.04 Z" /><path
           id="path54"
           style="fill:#ffffff;fill-opacity:1;fill-rule:evenodd;stroke:none"
           d="m 63.06,23.2 h -1.747 l -1.77,-2.498 h 1.122 z" /><path
           id="path56"
           style="fill:#ffffff;fill-opacity:1;fill-rule:evenodd;stroke:none"
           d="m 73.107,18.766 c -0.512,0.336 -1.098,0.504 -1.761,0.504 -0.655,0 -1.258,-0.15 -1.813,-0.446 -0.554,-0.299 -1.059,-0.75 -1.514,-1.358 v 1.586 h -1.135 v -8.843 h 1.135 v 3.237 c 0,1.162 0.053,1.965 0.162,2.402 0.173,0.673 0.533,1.235 1.079,1.69 0.547,0.454 1.165,0.682 1.851,0.682 0.605,0 1.096,-0.148 1.47,-0.443 0.376,-0.295 0.63,-0.735 0.769,-1.319 0.087,-0.34 0.13,-1.02 0.13,-2.038 v -4.211 h 1.133 v 4.546 c 0,1.202 -0.123,2.085 -0.367,2.655 -0.245,0.568 -0.623,1.02 -1.139,1.356" /><path
           id="path58"
           style="fill:#ffffff;fill-opacity:1;fill-rule:evenodd;stroke:none"
           d="m 83.48,12.779 c -0.298,-0.533 -0.728,-0.957 -1.285,-1.269 -0.556,-0.313 -1.146,-0.47 -1.768,-0.47 -0.615,0 -1.192,0.157 -1.731,0.474 -0.539,0.315 -0.965,0.757 -1.283,1.322 -0.319,0.566 -0.479,1.161 -0.479,1.783 0,0.623 0.158,1.217 0.475,1.778 0.315,0.56 0.74,0.998 1.276,1.307 0.534,0.31 1.119,0.465 1.75,0.465 0.984,0 1.812,-0.342 2.485,-1.027 0.674,-0.686 1.011,-1.538 1.011,-2.557 0,-0.669 -0.152,-1.272 -0.451,-1.806 m 0.383,4.636 c -0.444,0.618 -0.959,1.082 -1.547,1.391 -0.587,0.308 -1.244,0.464 -1.968,0.464 -1.255,0 -2.331,-0.453 -3.222,-1.355 -0.894,-0.904 -1.341,-1.99 -1.341,-3.261 0,-1.297 0.444,-2.397 1.327,-3.304 0.885,-0.906 1.952,-1.359 3.202,-1.359 0.706,0 1.353,0.145 1.945,0.434 0.594,0.289 1.127,0.724 1.604,1.304 v -1.52 h 1.133 v 12.258 h -1.133 z" /><path
           id="path60"
           style="fill:#ffffff;fill-opacity:1;fill-rule:evenodd;stroke:none"
           d="m 93.158,14.925 c 0,-1.105 -0.056,-1.827 -0.172,-2.167 -0.168,-0.499 -0.475,-0.902 -0.917,-1.208 -0.441,-0.308 -0.982,-0.46 -1.618,-0.46 -0.636,0 -1.183,0.158 -1.643,0.473 -0.457,0.313 -0.771,0.741 -0.933,1.281 -0.108,0.38 -0.164,1.073 -0.164,2.081 v 4.127 H 86.58 v -4.255 c 0,-1.256 0.141,-2.196 0.426,-2.821 0.283,-0.624 0.715,-1.114 1.295,-1.46 0.576,-0.351 1.295,-0.525 2.16,-0.525 0.862,0 1.579,0.174 2.151,0.525 0.573,0.346 1,0.832 1.284,1.447 0.285,0.618 0.427,1.537 0.427,2.752 v 4.337 h -1.165 z" /><path
           id="path62"
           style="fill:#ffffff;fill-opacity:1;fill-rule:evenodd;stroke:none"
           d="m 108.856,17.516 c -0.227,0.551 -0.574,0.981 -1.041,1.29 -0.469,0.309 -1.008,0.463 -1.62,0.463 -0.653,0 -1.267,-0.18 -1.834,-0.541 -0.57,-0.36 -1.044,-0.888 -1.422,-1.582 -0.178,0.52 -0.39,0.921 -0.633,1.2 -0.245,0.279 -0.559,0.504 -0.945,0.671 -0.384,0.168 -0.792,0.252 -1.219,0.252 -0.636,0 -1.241,-0.169 -1.817,-0.509 -0.416,-0.261 -0.824,-0.673 -1.22,-1.237 v 1.529 h -1.132 v -8.843 h 1.132 v 3.744 c 0,1.105 0.109,1.925 0.332,2.462 0.217,0.536 0.557,0.963 1.015,1.279 0.459,0.317 0.948,0.475 1.478,0.475 0.453,0 0.847,-0.115 1.177,-0.344 0.331,-0.23 0.563,-0.537 0.698,-0.918 0.133,-0.383 0.198,-1.108 0.198,-2.174 v -4.524 h 1.133 v 3.459 c 0,1.267 0.104,2.172 0.314,2.714 0.212,0.541 0.545,0.975 1.002,1.301 0.456,0.324 0.963,0.486 1.511,0.486 0.456,0 0.848,-0.107 1.175,-0.324 0.325,-0.217 0.556,-0.504 0.691,-0.857 0.135,-0.356 0.204,-1.007 0.204,-1.954 v -4.825 h 1.166 v 4.821 c 0,1.105 -0.113,1.933 -0.343,2.486" /></g></g></g></svg>