<?xml version="1.0" encoding="UTF-8" standalone="no"?>
<svg
   xmlns:dc="http://purl.org/dc/elements/1.1/"
   xmlns:cc="http://creativecommons.org/ns#"
   xmlns:rdf="http://www.w3.org/1999/02/22-rdf-syntax-ns#"
   xmlns:svg="http://www.w3.org/2000/svg"
   xmlns="http://www.w3.org/2000/svg"
   viewBox="0 0 53.333332 53.333332"
   height="53.333332"
   width="53.333332"
   xml:space="preserve"
   id="svg2"
   version="1.1"><metadata
     id="metadata8"><rdf:RDF><cc:Work
         rdf:about=""><dc:format>image/svg+xml</dc:format><dc:type
           rdf:resource="http://purl.org/dc/dcmitype/StillImage" /></cc:Work></rdf:RDF></metadata><defs
     id="defs6"><clipPath
       id="clipPath18"
       clipPathUnits="userSpaceOnUse"><path
         id="path16"
         d="M 0,40 H 40 V 0 H 0 Z" /></clipPath></defs><g
     transform="matrix(1.3333333,0,0,-1.3333333,0,53.333333)"
     id="g10"><g
       id="g12"><g
         clip-path="url(#clipPath18)"
         id="g14"><path
           id="path20"
           style="fill:#4e4e4e;fill-opacity:1;fill-rule:nonzero;stroke:none"
           d="m 30.391,8.068 -7.891,8.51 c 0.291,0.225 0.568,0.467 0.83,0.725 L 31.197,8.816 Z M 8.421,23.929 c 0,4.622 3.761,8.384 8.384,8.384 4.623,0 8.384,-3.762 8.384,-8.384 0,-4.623 -3.761,-8.384 -8.384,-8.384 -4.623,0 -8.384,3.761 -8.384,8.384 M 32.187,9.105 23.956,17.982 c 1.345,1.614 2.154,3.687 2.154,5.947 0,5.131 -4.174,9.305 -9.305,9.305 -5.131,0 -9.305,-4.174 -9.305,-9.305 0,-5.13 4.174,-9.306 9.305,-9.306 1.811,0 3.502,0.523 4.933,1.422 l 8.289,-8.941 0.314,-0.338 0.338,0.314 1.483,1.375 0.338,0.313 z" /></g></g></g></svg>