<?xml version="1.0" encoding="UTF-8" standalone="no"?>
<svg
   xmlns:dc="http://purl.org/dc/elements/1.1/"
   xmlns:cc="http://creativecommons.org/ns#"
   xmlns:rdf="http://www.w3.org/1999/02/22-rdf-syntax-ns#"
   xmlns:svg="http://www.w3.org/2000/svg"
   xmlns="http://www.w3.org/2000/svg"
   viewBox="0 0 53.333332 53.333332"
   height="53.333332"
   width="53.333332"
   xml:space="preserve"
   id="svg2"
   version="1.1"><metadata
     id="metadata8"><rdf:RDF><cc:Work
         rdf:about=""><dc:format>image/svg+xml</dc:format><dc:type
           rdf:resource="http://purl.org/dc/dcmitype/StillImage" /></cc:Work></rdf:RDF></metadata><defs
     id="defs6"><clipPath
       id="clipPath18"
       clipPathUnits="userSpaceOnUse"><path
         id="path16"
         d="M 0,40 H 40 V 0 H 0 Z" /></clipPath></defs><g
     transform="matrix(1.3333333,0,0,-1.3333333,0,53.333333)"
     id="g10"><g
       id="g12"><g
         clip-path="url(#clipPath18)"
         id="g14"><path
           id="path20"
           style="fill:#4e4e4e;fill-opacity:1;fill-rule:nonzero;stroke:none"
           d="m 20.606,10.3 h -1.114 v 2.444 c -0.857,0.013 -1.57,0.105 -2.137,0.275 -0.567,0.17 -0.99,0.337 -1.267,0.502 l 0.36,1.063 c 0.164,-0.088 0.346,-0.177 0.548,-0.265 0.202,-0.089 0.435,-0.17 0.7,-0.246 0.264,-0.075 0.57,-0.135 0.917,-0.179 0.346,-0.044 0.753,-0.067 1.22,-0.067 0.491,0 0.91,0.051 1.257,0.152 0.347,0.099 0.63,0.234 0.85,0.404 0.221,0.169 0.378,0.373 0.473,0.611 0.095,0.238 0.142,0.489 0.142,0.753 0,0.414 -0.078,0.759 -0.236,1.035 -0.157,0.277 -0.378,0.518 -0.661,0.725 -0.283,0.207 -0.627,0.39 -1.03,0.551 -0.404,0.159 -0.846,0.329 -1.325,0.507 -0.341,0.128 -0.688,0.272 -1.042,0.432 -0.353,0.16 -0.671,0.357 -0.955,0.59 -0.284,0.233 -0.514,0.517 -0.69,0.851 -0.177,0.335 -0.265,0.736 -0.265,1.203 0,0.933 0.255,1.656 0.766,2.167 0.511,0.511 1.302,0.842 2.375,0.994 v 2.254 h 1.114 v -2.198 c 0.593,-0.012 1.115,-0.072 1.564,-0.179 0.449,-0.108 0.824,-0.224 1.128,-0.351 l -0.321,-1.045 c -0.215,0.089 -0.532,0.193 -0.949,0.313 -0.417,0.12 -0.979,0.179 -1.686,0.179 -1.794,0 -2.691,-0.649 -2.691,-1.947 0,-0.352 0.063,-0.646 0.19,-0.879 0.126,-0.233 0.31,-0.437 0.551,-0.614 0.241,-0.177 0.531,-0.335 0.872,-0.474 0.341,-0.138 0.719,-0.283 1.136,-0.434 0.454,-0.178 0.893,-0.358 1.316,-0.54 0.423,-0.184 0.795,-0.408 1.118,-0.672 0.322,-0.266 0.578,-0.587 0.768,-0.966 0.189,-0.378 0.284,-0.839 0.284,-1.381 0,-0.884 -0.291,-1.597 -0.872,-2.139 -0.582,-0.542 -1.385,-0.852 -2.408,-0.927 z" /><path
           id="path22"
           style="fill:#4e4e4e;fill-opacity:1;fill-rule:nonzero;stroke:none"
           d="m 20,7.264 c -6.21,0 -11.262,5.052 -11.262,11.262 0,6.21 5.052,11.263 11.262,11.263 6.21,0 11.262,-5.053 11.262,-11.263 C 31.262,12.316 26.21,7.264 20,7.264 m 6.927,21.66 0.842,1.454 -1.081,0.625 -0.833,-1.439 c -1.529,0.815 -3.248,1.322 -5.07,1.435 v 1.727 h 2.465 v 1.248 h -6.178 v -1.248 h 2.465 V 31.015 C 12.859,30.771 7.5,25.264 7.5,18.526 c 0,-6.892 5.607,-12.5 12.5,-12.5 6.893,0 12.5,5.608 12.5,12.5 0,4.332 -2.216,8.155 -5.573,10.398" /></g></g></g></svg>