<?xml version="1.0" encoding="UTF-8" standalone="no"?>
<svg
   xmlns:dc="http://purl.org/dc/elements/1.1/"
   xmlns:cc="http://creativecommons.org/ns#"
   xmlns:rdf="http://www.w3.org/1999/02/22-rdf-syntax-ns#"
   xmlns:svg="http://www.w3.org/2000/svg"
   xmlns="http://www.w3.org/2000/svg"
   viewBox="0 0 53.333332 53.333332"
   height="53.333332"
   width="53.333332"
   xml:space="preserve"
   id="svg2"
   version="1.1"><metadata
     id="metadata8"><rdf:RDF><cc:Work
         rdf:about=""><dc:format>image/svg+xml</dc:format><dc:type
           rdf:resource="http://purl.org/dc/dcmitype/StillImage" /></cc:Work></rdf:RDF></metadata><defs
     id="defs6"><clipPath
       id="clipPath18"
       clipPathUnits="userSpaceOnUse"><path
         id="path16"
         d="M 0,40 H 40 V 0 H 0 Z" /></clipPath></defs><g
     transform="matrix(1.3333333,0,0,-1.3333333,0,53.333333)"
     id="g10"><g
       id="g12"><g
         clip-path="url(#clipPath18)"
         id="g14"><path
           id="path20"
           style="fill:#1a6fb6;fill-opacity:1;fill-rule:nonzero;stroke:none"
           d="m 25.179,9.914 c -0.272,0.758 -0.447,1.445 -0.538,2.055 l -1.798,-0.354 c -0.041,-0.183 -0.078,-0.357 -0.112,-0.527 l 1.715,-1.15 C 24.348,9.941 24.247,9.943 24.147,9.945 L 22.7,10.918 c -0.065,-0.357 -0.113,-0.674 -0.15,-0.943 -0.205,0.004 -0.414,0.004 -0.622,0.004 -0.076,0.683 -0.211,1.732 -0.439,2.972 L 16.925,9.891 C 16.698,9.881 16.479,9.869 16.26,9.859 l 5.16,3.457 c -0.07,0.368 -0.148,0.75 -0.234,1.143 l -3.88,0.76 C 17.069,13.648 16.589,11.859 15.788,9.834 12.442,9.643 10.185,9.285 10.185,8.877 c 0,-0.611 4.997,-1.107 11.16,-1.107 6.164,0 11.16,0.496 11.16,1.107 0,0.477 -3.055,0.883 -7.326,1.037 m -2.725,9.443 c 0.69,0.201 1.465,0.063 2.051,-0.439 0.057,-0.049 0.111,-0.1 0.162,-0.154 0.323,-0.342 0.439,-0.709 0.437,-1.129 -0.171,0.56 -0.565,1.054 -1.136,1.334 -0.977,0.475 -2.131,0.157 -2.744,-0.694 0.617,0.371 1.401,0.432 2.095,0.094 0.751,-0.363 1.234,-1.015 1.286,-1.74 -0.088,0.09 -0.215,0.148 -0.353,0.148 -0.274,0 -0.497,-0.222 -0.497,-0.498 0,-0.273 0.223,-0.496 0.497,-0.496 0.089,0 0.172,0.026 0.244,0.067 -0.026,-0.077 -0.057,-0.153 -0.095,-0.229 -0.003,-0.01 -0.013,-0.033 -0.027,-0.06 l 0.584,-0.391 c 0.019,0.041 0.039,0.082 0.059,0.121 0.099,-0.213 0.318,-0.363 0.572,-0.363 0.35,0 0.634,0.281 0.634,0.633 0,0.06 -0.011,0.121 -0.029,0.177 0.16,0.082 0.27,0.246 0.27,0.438 0,0.06 -0.014,0.115 -0.033,0.17 0.461,0.093 0.955,0.043 1.411,-0.18 0.691,-0.342 1.122,-1 1.206,-1.709 0.303,1.004 -0.156,2.106 -1.129,2.586 -0.578,0.285 -1.219,0.291 -1.773,0.072 0.39,0.573 1.107,0.873 1.82,0.705 0.588,-0.14 1.033,-0.568 1.221,-1.097 0.054,0.82 -0.487,1.584 -1.317,1.781 -0.721,0.172 -1.441,-0.137 -1.83,-0.719 -0.031,0.578 -0.286,1.143 -0.758,1.547 -0.822,0.707 -2.018,0.696 -2.828,0.025 m 1.209,-5.144 c -0.084,-0.19 -0.16,-0.381 -0.232,-0.574 l 1.126,-0.754 c -0.018,0.59 0.042,1.095 0.149,1.533 z m 1.236,0.808 -0.589,0.393 c -0.011,-0.021 -0.019,-0.037 -0.024,-0.043 -0.201,-0.305 -0.381,-0.635 -0.542,-0.978 l 1.004,0.197 c 0.045,0.152 0.095,0.295 0.151,0.431 m -2.018,-3.234 1.739,0.342 c -0.025,0.191 -0.044,0.379 -0.055,0.557 l -1.191,0.798 C 23.167,12.912 23.007,12.33 22.881,11.787 m -9.436,12.869 c -0.042,-0.114 -0.069,-0.237 -0.069,-0.366 0,-0.412 0.236,-0.766 0.579,-0.945 -0.036,-0.122 -0.061,-0.249 -0.061,-0.382 0,-0.754 0.612,-1.365 1.367,-1.365 0.548,0 1.016,0.323 1.234,0.786 0.042,-0.087 0.085,-0.173 0.125,-0.264 l 1.258,0.843 c -0.027,0.062 -0.05,0.112 -0.059,0.129 -0.081,0.164 -0.147,0.329 -0.205,0.495 0.157,-0.089 0.335,-0.145 0.529,-0.145 0.591,0 1.072,0.48 1.072,1.07 0,0.59 -0.481,1.07 -1.072,1.07 -0.298,0 -0.568,-0.123 -0.762,-0.319 0.116,1.563 1.155,2.966 2.774,3.754 1.496,0.727 3.185,0.594 4.512,-0.202 -1.317,1.835 -3.806,2.515 -5.91,1.49 -1.232,-0.599 -2.082,-1.663 -2.449,-2.876 -0.006,0.908 0.244,1.7 0.944,2.438 0.11,0.114 0.227,0.226 0.35,0.332 1.262,1.083 2.931,1.382 4.418,0.946 -1.744,1.443 -4.323,1.469 -6.097,-0.055 -1.022,-0.873 -1.572,-2.09 -1.637,-3.331 -0.839,1.252 -2.393,1.92 -3.947,1.549 -1.785,-0.425 -2.954,-2.073 -2.836,-3.841 0.406,1.142 1.363,2.064 2.634,2.366 1.54,0.367 3.08,-0.284 3.923,-1.515 -1.197,0.468 -2.578,0.456 -3.82,-0.157 -2.098,-1.035 -3.084,-3.412 -2.434,-5.578 0.18,1.536 1.108,2.951 2.601,3.686 0.981,0.481 2.044,0.59 3.038,0.387 m 6.471,-5.836 c -0.155,0.416 -0.323,0.828 -0.503,1.234 l -2.248,0.442 c 0.231,-0.94 0.359,-2.033 0.321,-3.305 z m -1.895,3.825 -1.267,-0.85 c 0.115,-0.292 0.225,-0.598 0.319,-0.932 l 2.165,-0.424 c -0.346,0.742 -0.733,1.454 -1.169,2.109 -0.006,0.013 -0.025,0.049 -0.048,0.097 m 3.081,-7.819 -3.751,0.735 c 0.053,0.416 0.093,0.818 0.116,1.201 l 2.571,1.722 C 20.481,17.252 20.831,16 21.102,14.826" /></g></g></g></svg>