<?xml version="1.0" encoding="UTF-8"?>
<svg width="104px" height="55px" viewBox="0 0 104 55" version="1.1" xmlns="http://www.w3.org/2000/svg" xmlns:xlink="http://www.w3.org/1999/xlink">
    <!-- Generator: Sketch 40.3 (33839) - http://www.bohemiancoding.com/sketch -->
    <title>persons</title>
    <desc>Created with Sketch.</desc>
    <defs></defs>
    <g id="Page-1" stroke="none" stroke-width="1" fill="none" fill-rule="evenodd">
        <g id="Desktop-HD" transform="translate(-236.000000, -1186.000000)" fill="#1A6FB6">
            <g id="screen-3-video" transform="translate(236.000000, 1133.000000)">
                <g id="text" transform="translate(0.000000, 49.000000)">
                    <g id="persons" transform="translate(0.000000, 4.000000)">
                        <g id="secretary" transform="translate(54.000000, 1.000000)">
                            <g id="Capa_1">
                                <g id="Group">
                                    <path d="M49.1308924,51.3929521 L43.2982838,51.3929521 L43.2982838,49.6312133 C43.2982838,45.5967993 42.2244851,42.4830337 40.1067506,40.3763527 C37.4078947,37.6916728 34.0203661,37.6853678 33.8816934,37.6853678 L29.5829519,37.6853678 L29.5829519,34.9413059 C32.3289474,33.8012427 34.065103,31.9033153 35.1229977,30.257589 C36.7743707,27.6885776 37.1467963,25.2162051 37.1617849,25.1122295 C37.1677346,25.0713041 37.1707094,25.0301495 37.1707094,24.9888802 L37.1707094,24.8047735 C37.7734554,24.6558602 38.2978261,24.3442773 38.7141876,23.8824055 C39.9290618,22.5346203 39.8585812,20.4082218 39.7718535,19.5565847 C39.7058352,18.9084281 39.4130435,18.3644763 38.925286,17.9835382 C38.8295195,17.9087949 38.7291762,17.8426495 38.6259725,17.784414 L38.6259725,14.1631511 C38.6259725,9.65333822 36.5771167,6.55046313 34.8581236,4.74160858 C33.0035469,2.78991654 31.15,1.90044938 31.071968,1.86353632 C30.7994279,1.73456988 30.4797483,1.75829971 30.2295195,1.92566948 L29.2824943,2.55835015 C25.7522883,-0.437110235 22.2409611,0.0147881511 22.08627,0.0363398753 C21.6625858,0.0959510271 21.3473684,0.459120506 21.3473684,0.887747616 L21.3473684,1.76517792 C18.1653318,1.41221112 16.0443936,2.44944516 15.9467963,2.49828045 C15.7397025,2.60202678 15.5832952,2.78521643 15.5129291,3.00623624 C15.4425629,3.22725605 15.4644165,3.46730558 15.573341,3.67204696 L16.029405,4.52872799 C16.1501144,5.02888848 15.8442792,5.36832814 14.7177346,6.36624175 C14.2008009,6.82421588 13.6148741,7.34317682 13.008238,8.01185345 C11.1509153,10.0588087 11.4343249,15.9346341 11.5655606,17.6940802 C11.3998856,17.7720332 11.2391304,17.8669525 11.0895881,17.9836528 C10.6018307,18.3644763 10.3090389,18.9084281 10.2430206,19.556814 C10.1564073,20.408451 10.0859268,22.5348496 11.3008009,23.8825202 C11.7217391,24.3495506 12.2534325,24.6625092 12.8645309,24.809359 L12.8645309,24.9889949 C12.8645309,25.0302641 12.8675057,25.0715334 12.8734554,25.1123441 C12.8884439,25.2163197 13.260984,27.6886922 14.912357,30.2577036 C15.9702517,31.9034299 17.7062929,33.8013573 20.4524027,34.9414206 L20.4524027,37.6854824 L16.1597254,37.6854824 C16.0173913,37.6875459 12.6276888,37.6913289 9.92860412,40.3764674 C7.81086957,42.4831484 6.73707094,45.5970286 6.73707094,49.631328 L6.73707094,51.3930668 L0.904691076,51.3930668 C0.430778032,51.3930668 0.0465675057,51.7780172 0.0465675057,52.252843 C0.0465675057,52.7276687 0.430778032,53.1126192 0.904691076,53.1126192 L49.1310069,53.1126192 C49.6050343,53.1126192 49.9891304,52.7276687 49.9891304,52.252843 C49.989016,51.7779026 49.6049199,51.3929521 49.1308924,51.3929521 L49.1308924,51.3929521 Z M33.8879863,39.4049202 L33.889016,39.4049202 C33.9566362,39.4049202 36.7159039,39.4262427 38.8975973,41.5965471 C40.6789474,43.3684886 41.582151,46.0718544 41.582151,49.6312133 L41.582151,51.3929521 L32.7251716,51.3929521 L35.4003432,48.6918791 C35.6537757,48.4360097 35.7210526,48.0489958 35.5687643,47.7223955 L34.6533181,45.7587812 L36.2467963,43.2833135 C36.4708238,42.935276 36.4154462,42.4766141 36.1149886,42.1923147 L33.1696796,39.4050348 L33.8879863,39.4050348 L33.8879863,39.4049202 Z M17.0244851,45.2261785 L15.5605263,42.9517837 L17.4319222,41.1807594 L17.4319222,49.1321992 L16.2180778,47.9066168 L17.080778,46.0560345 C17.2057208,45.7880136 17.1845538,45.4747111 17.0244851,45.2261785 L17.0244851,45.2261785 Z M19.1481693,41.8112619 C20.2569794,43.9274578 22.471167,45.3750917 25.0177346,45.3750917 C27.520595,45.3750917 29.7032037,43.9773248 30.8302059,41.9201669 L30.8302059,51.3928375 L19.1481693,51.3928375 L19.1481693,41.8112619 L19.1481693,41.8112619 Z M32.8974828,46.0560345 L33.7602975,47.9066168 L32.5464531,49.1323138 L32.5464531,41.1807594 L34.417849,42.9517837 L32.9537757,45.2261785 C32.7938215,45.4747111 32.7726545,45.7880136 32.8974828,46.0560345 L32.8974828,46.0560345 Z M37.4406178,22.7298468 C37.3581236,22.821327 37.2679634,22.8967581 37.1708238,22.9600376 L37.1708238,19.1086986 C37.2653318,19.1195891 37.3598398,19.1349505 37.45,19.1567315 C37.4993135,19.176449 37.5505721,19.1920396 37.6037757,19.2022423 C37.7061785,19.2381236 37.7987414,19.2831759 37.8724256,19.3411821 C37.9544622,19.4057227 38.0414188,19.5025908 38.0647597,19.7309474 C38.1665904,20.7329879 38.0562929,22.0468406 37.4406178,22.7298468 L37.4406178,22.7298468 Z M14.2782609,9.16830979 C14.821968,8.56910308 15.370595,8.08315756 15.8546911,7.65430117 C17.040389,6.60399853 18.1602975,5.61204604 17.6508009,3.95359501 C17.6346682,3.90109134 17.6136156,3.85030723 17.5878719,3.80181585 L17.5533181,3.7369314 C18.458238,3.48289618 20.041762,3.21670946 22.0401602,3.60991379 C22.2921053,3.6594369 22.5526316,3.59340609 22.7506865,3.43027788 C22.9487414,3.2669204 23.0636156,3.02331713 23.0636156,2.76630136 L23.0636156,1.72849413 C23.3953089,1.74534574 23.8227689,1.7918883 24.3141876,1.90182502 C25.8814645,2.25226981 27.328833,3.04819332 28.6161327,4.26769993 C28.9065217,4.54305759 29.3487414,4.58054384 29.6816934,4.35837766 L30.7518307,3.64361702 C32.1927918,4.48596845 36.9098398,7.73557869 36.9098398,14.1632658 L36.9098398,15.0569745 C36.9088101,15.0560574 36.9078947,15.054911 36.9069794,15.0539939 L35.1025172,13.3527834 L35.1025172,11.3531731 C35.1025172,11.0952403 34.9869565,10.8510638 34.7877574,10.6877063 C34.5636156,10.5040581 32.3859268,8.89306676 25.0313501,8.89306676 C17.6768879,8.89306676 15.4990847,10.5040581 15.2749428,10.6877063 C15.0757437,10.8510638 14.9601831,11.0953549 14.9601831,11.3531731 L14.9601831,13.3526687 L13.1851259,15.0262518 C13.1914188,12.6327494 13.4621281,10.067865 14.2782609,9.16830979 L14.2782609,9.16830979 Z M12.5744851,22.7298468 C11.9589245,22.0469552 11.8485126,20.7331025 11.9504577,19.7311766 C11.9736842,19.5027054 12.0606407,19.4059519 12.1426773,19.3412968 C12.3162471,19.204535 12.5918764,19.1356383 12.8645309,19.1061766 L12.8645309,22.9727623 C12.759611,22.90719 12.6627002,22.8276321 12.5744851,22.7298468 L12.5744851,22.7298468 Z M16.3895881,29.3794708 C15.0469108,27.3147469 14.6427918,25.2706576 14.5808924,24.9184932 L14.5808924,16.0713958 L16.4064073,14.3501238 C16.5787185,14.1875688 16.6764302,13.9610464 16.6764302,13.7239774 L16.6764302,11.8465701 C17.4693364,11.4625367 19.8141876,10.6125046 25.0312357,10.6125046 C30.2482838,10.6125046 32.5932494,11.4625367 33.3861556,11.8465701 L33.3861556,13.7240921 C33.3861556,13.961161 33.4838673,14.1876834 33.6561785,14.3502384 L35.4544622,16.0457172 L35.4544622,24.9183786 C35.391762,25.2745552 34.9872998,27.3166957 33.6457666,29.3795855 C31.72254,32.3369864 28.8464531,33.9633391 25.097254,34.213706 L24.9378719,34.213706 C21.1889016,33.9632245 18.3128146,32.3368718 16.3895881,29.3794708 L16.3895881,29.3794708 Z M21.3106407,39.4049202 C21.7845538,39.4049202 22.1687643,39.0199697 22.1687643,38.545144 L22.1687643,35.5108217 C22.9895881,35.7212949 23.8820366,35.8682594 24.8544622,35.9313096 C24.8729977,35.932456 24.8914188,35.9331438 24.9099542,35.9331438 L25.1256293,35.9331438 C25.1441648,35.9331438 25.1625858,35.9325706 25.1811213,35.9313096 C26.1536613,35.8681447 27.0459954,35.7212949 27.8668192,35.5108217 L27.8668192,38.545144 C27.8668192,39.0199697 28.2509153,39.4049202 28.7249428,39.4049202 L29.8810069,39.4049202 C29.5542334,41.802091 27.4987414,43.6555393 25.017849,43.6555393 C22.5370709,43.6555393 20.4814645,41.802091 20.1546911,39.4049202 L21.3106407,39.4049202 L21.3106407,39.4049202 Z M8.45343249,49.6312133 C8.45343249,39.5228815 15.8363844,39.4049202 16.1537757,39.4049202 L16.8090389,39.4049202 L13.86373,42.1922001 C13.5632723,42.4764994 13.5077803,42.9351614 13.7318078,43.2831988 L15.3251716,45.7586665 L14.4097254,47.7223955 C14.2574371,48.0489958 14.324714,48.4360097 14.5781465,48.6917645 L17.2532037,51.3928375 L8.45343249,51.3928375 L8.45343249,49.6312133 L8.45343249,49.6312133 Z" id="Shape"></path>
                                    <ellipse id="Oval" cx="18.9265446" cy="17.8413885" rx="1.02414188" ry="1.02611427"></ellipse>
                                    <ellipse id="Oval" cx="31.1090389" cy="17.8413885" rx="1.02414188" ry="1.02611427"></ellipse>
                                    <path d="M24.7965675,23.8859593 L25.239016,23.8859593 C26.3448513,23.8859593 27.2474828,23.0073826 27.2940503,21.9106521 C27.2969108,21.8816489 27.2985126,21.8523019 27.2985126,21.8224963 L27.2985126,17.1813096 C27.2985126,16.7064839 26.9144165,16.3215334 26.440389,16.3215334 C25.9663616,16.3215334 25.5822654,16.7064839 25.5822654,17.1813096 L25.5822654,21.8224963 C25.5822654,22.0121056 25.4282609,22.1664068 25.239016,22.1664068 L24.7965675,22.1664068 C24.6073227,22.1664068 24.4533181,22.0121056 24.4533181,21.8224963 C24.4533181,21.3476706 24.0691076,20.9627201 23.5951945,20.9627201 C23.1212815,20.9627201 22.7370709,21.3476706 22.7370709,21.8224963 C22.7370709,22.9603815 23.6608696,23.8859593 24.7965675,23.8859593 L24.7965675,23.8859593 Z" id="Shape"></path>
                                    <path d="M30.3374142,28.4728081 C30.6350114,28.1031044 30.5771167,27.5619039 30.2081236,27.2638481 C29.8391304,26.9655631 29.2989703,27.0237986 29.0014874,27.3932731 C28.9923341,27.4047368 27.9615561,28.5326486 25.2290618,28.5326486 C22.3905034,28.5326486 21.0067506,27.3524624 20.9391304,27.2931952 C20.589016,26.9780585 20.0496568,27.004425 19.7318078,27.3537234 C19.4124714,27.7046267 19.4375286,28.2484639 19.7877574,28.5683006 C19.8630435,28.6370827 21.671968,30.252201 25.2290618,30.252201 C28.8018307,30.2523157 30.1908467,28.6549661 30.3374142,28.4728081 L30.3374142,28.4728081 Z" id="Shape"></path>
                                </g>
                            </g>
                        </g>
                        <g id="Capa_1">
                            <g id="Group">
                                <path d="M49.0385845,52.23 L43.2195205,52.23 L43.2195205,50.4568846 C43.2195205,46.3961538 42.1481735,43.2620769 40.0351598,41.1415385 C37.3869863,38.4838846 34.0732877,38.433 33.8339041,38.433 L33.8244292,38.433 L29.5353881,38.433 L29.5353881,35.8098462 C29.5353881,35.7641538 29.5308219,35.7195 29.5239726,35.6756538 C30.1033105,35.4336923 30.6365297,35.157 31.1289954,34.8564231 C32.7522831,35.6807308 34.3159817,35.9758846 35.7218037,35.9758846 C39.1239726,35.9756538 41.6003425,34.2521538 41.7453196,34.149 C41.9730594,33.9868846 42.1085616,33.723 42.1085616,33.4414615 L42.1085616,16.2482308 C42.1085616,10.5752308 40.1891553,6.25615385 36.4038813,3.411 C33.4773973,1.21142308 29.4205479,0 24.9805936,0 C20.5406393,0 16.48379,1.21142308 13.5573059,3.41111538 C9.77203196,6.25626923 7.85262557,10.5753462 7.85262557,16.2483462 L7.85262557,33.4416923 C7.85262557,33.7232308 7.98812785,33.9871154 8.21575342,34.1492308 C8.36084475,34.2523846 10.8366438,35.9762308 14.2393836,35.9761154 C15.6449772,35.976 17.2093607,35.6807308 18.8321918,34.8566538 C19.3246575,35.1571154 19.8577626,35.4339231 20.4372146,35.6758846 C20.4303653,35.7197308 20.4257991,35.7643846 20.4257991,35.8100769 L20.4257991,38.4332308 L16.1429224,38.4332308 C15.9984018,38.4338077 12.6189498,38.4391154 9.9260274,41.1417692 C7.8130137,43.2621923 6.74166667,46.3962692 6.74166667,50.4571154 L6.74166667,52.2302308 L0.92260274,52.2302308 C0.449657534,52.2302308 0.0664383562,52.6175769 0.0664383562,53.0956154 C0.0664383562,53.5736538 0.449657534,53.961 0.92260274,53.961 L49.0385845,53.961 C49.5115297,53.961 49.8947489,53.5736538 49.8947489,53.0956154 C49.8947489,52.6174615 49.5115297,52.23 49.0385845,52.23 L49.0385845,52.23 Z M18.9071918,40.2265385 C19.2289954,42.9820385 21.3489726,45.1887692 24.0456621,45.6086538 C23.8114155,46.0166538 23.391895,46.2288462 23.019863,46.3382308 C21.7092466,46.7238462 19.7304795,46.2023077 18.6450913,44.4765 C17.230137,42.2267308 18.4327626,40.6999615 18.9071918,40.2265385 L18.9071918,40.2265385 Z M31.0541096,40.2256154 C31.5061644,40.6759615 32.7399543,42.2127692 31.31621,44.4765 C30.2307078,46.2021923 28.2520548,46.7236154 26.9414384,46.3382308 C26.5692922,46.2288462 26.1497717,46.0166538 25.9156393,45.6086538 C28.6126712,45.1887692 30.7326484,42.9815769 31.0541096,40.2256154 L31.0541096,40.2256154 Z M16.3721461,30.0730385 C15.0325342,27.9948462 14.6293379,25.9373077 14.5675799,25.5830769 L14.5675799,16.1148462 C14.8861872,16.1299615 15.2761416,16.1416154 15.7252283,16.1416154 C17.4533105,16.1416154 20.1020548,15.9696923 22.9069635,15.1510385 C25.7955479,14.3079231 28.2442922,12.9634615 30.2047945,11.1465 C30.9142694,12.5149615 32.4373288,14.6443846 35.3936073,15.7968462 L35.3936073,25.5829615 C35.3310502,25.9415769 34.9272831,27.9970385 33.5890411,30.0731538 C31.6702055,33.0498462 28.8006849,34.6866923 25.0601598,34.9388077 L24.9009132,34.9388077 C21.1605023,34.6865769 18.2909817,33.0497308 16.3721461,30.0730385 L16.3721461,30.0730385 Z M9.56495434,32.9628462 L9.56495434,16.2482308 C9.56495434,11.1523846 11.2519406,7.30061538 14.5791096,4.79976923 C17.2122146,2.82069231 20.9062785,1.73076923 24.9805936,1.73076923 C29.0549087,1.73076923 32.7489726,2.82069231 35.3820776,4.79988462 C38.7092466,7.30073077 40.3962329,11.1525 40.3962329,16.2483462 L40.3962329,32.9596154 C39.3625571,33.5544231 36.2530822,35.0278846 32.7334475,33.6799615 C33.7375571,32.8035 34.4976027,31.8439615 35.0627854,30.9568846 C36.7103881,28.3711154 37.0820776,25.8826154 37.0969178,25.7779615 C37.1028539,25.7368846 37.1058219,25.6953462 37.1058219,25.6538077 L37.1058219,15.1846154 C37.1058219,14.8083462 36.8652968,14.4752308 36.5107306,14.3604231 C32.4297945,13.0393846 31.3593607,9.54011538 31.3167808,9.39519231 C31.2312785,9.09496154 30.9922374,8.86453846 30.6914384,8.79253846 C30.390411,8.72042308 30.0747717,8.81803846 29.8651826,9.04742308 C28.034589,11.0503846 23.7634703,14.4107308 15.7251142,14.4107308 C14.5545662,14.4107308 13.8181507,14.3259231 13.8114155,14.3251154 C13.5678082,14.2954615 13.325,14.3736923 13.1424658,14.5378846 C12.9597032,14.7020769 12.855137,14.9374615 12.855137,15.1845 L12.855137,25.6536923 C12.855137,25.6952308 12.858105,25.7367692 12.8640411,25.7778462 C12.8789954,25.8825 13.2506849,28.371 14.8981735,30.9567692 C15.4634703,31.8439615 16.2238584,32.8038462 17.2284247,33.6805385 C13.6861872,35.0451923 10.5993151,33.567 9.56495434,32.9628462 L9.56495434,32.9628462 Z M24.8174658,36.6676154 C24.8359589,36.6688846 24.8543379,36.6694615 24.8728311,36.6694615 L25.088242,36.6694615 C25.1067352,36.6694615 25.1251142,36.6688846 25.1436073,36.6676154 C26.1138128,36.6040385 27.0041096,36.4562308 27.8230594,36.2443846 L27.8230594,39.2985 C27.8230594,39.7765385 28.2062785,40.1638846 28.6792237,40.1638846 L29.3360731,40.1638846 C29.0170091,42.3040385 27.1855023,43.95 24.9805936,43.95 C22.7756849,43.95 20.9441781,42.3039231 20.6251142,40.1638846 L21.2819635,40.1638846 C21.7549087,40.1638846 22.1381279,39.7765385 22.1381279,39.2985 L22.1381279,36.2443846 C22.9570776,36.4562308 23.8472603,36.6040385 24.8174658,36.6676154 L24.8174658,36.6676154 Z M8.45410959,50.4568846 C8.45410959,40.2825 15.8202055,40.164 16.1368721,40.1638846 L16.8380137,40.1638846 C16.1591324,41.4362308 15.8696347,43.2894231 17.2001142,45.405 C18.4089041,47.3270769 20.4398402,48.1804615 22.1808219,48.1803462 C22.6479452,48.1803462 23.0945205,48.1189615 23.4982877,48.0002308 C24.0913242,47.8257692 24.5902968,47.5421538 24.9807078,47.1736154 C25.3711187,47.5421538 25.8700913,47.8257692 26.4631279,48.0002308 C26.8670091,48.1189615 27.313242,48.1803462 27.7805936,48.1803462 C29.5214612,48.1803462 31.5526256,47.3268462 32.7613014,45.405 C34.0917808,43.2894231 33.8022831,41.4362308 33.1234018,40.1638846 L33.8305936,40.1638846 L33.831621,40.1638846 C33.8990868,40.1638846 36.6520548,40.1853462 38.8287671,42.3698077 C40.6060502,44.1533077 41.5071918,46.8741923 41.5071918,50.4568846 L41.5071918,52.23 L8.45410959,52.23 L8.45410959,50.4568846 L8.45410959,50.4568846 Z" id="Shape"></path>
                                <ellipse id="Oval" cx="18.9033105" cy="20.0766923" rx="1.02191781" ry="1.03292308"></ellipse>
                                <ellipse id="Oval" cx="31.0577626" cy="20.0766923" rx="1.02180365" ry="1.03280769"></ellipse>
                                <path d="M24.8321918,25.6592308 L25.1289954,25.6592308 C26.0156393,25.6592308 26.7400685,24.9531923 26.7861872,24.0684231 C26.7890411,24.0392308 26.7906393,24.0096923 26.7906393,23.9796923 L26.7906393,21.9237692 C26.7906393,21.4457308 26.4074201,21.0583846 25.9344749,21.0583846 C25.4615297,21.0583846 25.0783105,21.4457308 25.0783105,21.9237692 L25.0783105,23.9284615 L24.8815068,23.9284615 C24.8552511,23.4743077 24.4826484,23.1143077 24.0268265,23.1143077 C23.5539954,23.1143077 23.1706621,23.5016538 23.1706621,23.9796923 C23.1706621,24.9058846 23.9159817,25.6592308 24.8321918,25.6592308 L24.8321918,25.6592308 Z" id="Shape"></path>
                                <path d="M30.1591324,27.9436154 C29.7909817,27.6436154 29.2519406,27.7017692 28.9552511,28.074 C28.9461187,28.0854231 27.9176941,29.2206923 25.1914384,29.2206923 C22.3610731,29.2206923 20.9803653,28.0343077 20.9114155,27.9732692 C20.5618721,27.6557308 20.0238584,27.6823846 19.7067352,28.0340769 C19.3881279,28.3872692 19.4131279,28.9346538 19.7625571,29.2565769 C19.8375571,29.3258077 21.6424658,30.9513462 25.1914384,30.9513462 C28.7560502,30.9514615 30.141895,29.3438077 30.2881279,29.1604615 C30.5850457,28.7884615 30.5272831,28.2437308 30.1591324,27.9436154 Z" id="Shape"></path>
                            </g>
                        </g>
                    </g>
                </g>
            </g>
        </g>
    </g>
</svg>