<?xml version="1.0" encoding="UTF-8" standalone="no"?>
<svg
   xmlns:dc="http://purl.org/dc/elements/1.1/"
   xmlns:cc="http://creativecommons.org/ns#"
   xmlns:rdf="http://www.w3.org/1999/02/22-rdf-syntax-ns#"
   xmlns:svg="http://www.w3.org/2000/svg"
   xmlns="http://www.w3.org/2000/svg"
   viewBox="0 0 53.333332 53.333332"
   height="53.333332"
   width="53.333332"
   xml:space="preserve"
   id="svg2"
   version="1.1"><metadata
     id="metadata8"><rdf:RDF><cc:Work
         rdf:about=""><dc:format>image/svg+xml</dc:format><dc:type
           rdf:resource="http://purl.org/dc/dcmitype/StillImage" /></cc:Work></rdf:RDF></metadata><defs
     id="defs6"><clipPath
       id="clipPath18"
       clipPathUnits="userSpaceOnUse"><path
         id="path16"
         d="M 0,40 H 40 V 0 H 0 Z" /></clipPath></defs><g
     transform="matrix(1.3333333,0,0,-1.3333333,0,53.333333)"
     id="g10"><g
       id="g12"><g
         clip-path="url(#clipPath18)"
         id="g14"><path
           id="path20"
           style="fill:#1a6fb6;fill-opacity:1;fill-rule:nonzero;stroke:none"
           d="m 11.717,27.009 c -0.585,0 -1.062,0.476 -1.062,1.062 0,0.585 0.477,1.062 1.062,1.062 0.585,0 1.061,-0.477 1.061,-1.062 0,-0.586 -0.476,-1.062 -1.061,-1.062 m 0,2.973 c -1.054,0 -1.911,-0.857 -1.911,-1.911 0,-1.054 0.857,-1.912 1.911,-1.912 1.054,0 1.911,0.858 1.911,1.912 0,1.054 -0.857,1.911 -1.911,1.911" /><path
           id="path22"
           style="fill:#1a6fb6;fill-opacity:1;fill-rule:nonzero;stroke:none"
           d="m 28.495,29.133 c 0.235,0 0.425,-0.191 0.425,-0.425 0,-0.234 -0.19,-0.425 -0.425,-0.425 -0.234,0 -0.425,0.191 -0.425,0.425 0,0.234 0.191,0.425 0.425,0.425" /><path
           id="path24"
           style="fill:#1a6fb6;fill-opacity:1;fill-rule:nonzero;stroke:none"
           d="m 26.796,29.133 c 0.235,0 0.425,-0.191 0.425,-0.425 0,-0.234 -0.19,-0.425 -0.425,-0.425 -0.234,0 -0.425,0.191 -0.425,0.425 0,0.234 0.191,0.425 0.425,0.425" /><path
           id="path26"
           style="fill:#1a6fb6;fill-opacity:1;fill-rule:nonzero;stroke:none"
           d="m 29.345,27.858 c 0.235,0 0.425,-0.19 0.425,-0.424 0,-0.235 -0.19,-0.425 -0.425,-0.425 -0.235,0 -0.425,0.19 -0.425,0.425 0,0.234 0.19,0.424 0.425,0.424" /><path
           id="path28"
           style="fill:#1a6fb6;fill-opacity:1;fill-rule:nonzero;stroke:none"
           d="m 27.646,27.858 c 0.235,0 0.424,-0.19 0.424,-0.424 0,-0.235 -0.189,-0.425 -0.424,-0.425 -0.235,0 -0.425,0.19 -0.425,0.425 0,0.234 0.19,0.424 0.425,0.424" /><path
           id="path30"
           style="fill:#1a6fb6;fill-opacity:1;fill-rule:nonzero;stroke:none"
           d="m 25.098,29.133 c 0.234,0 0.423,-0.191 0.423,-0.425 0,-0.234 -0.189,-0.425 -0.423,-0.425 -0.236,0 -0.426,0.191 -0.426,0.425 0,0.234 0.19,0.425 0.426,0.425" /><path
           id="path32"
           style="fill:#1a6fb6;fill-opacity:1;fill-rule:nonzero;stroke:none"
           d="m 25.947,27.858 c 0.235,0 0.424,-0.19 0.424,-0.424 0,-0.235 -0.189,-0.425 -0.424,-0.425 -0.235,0 -0.426,0.19 -0.426,0.425 0,0.234 0.191,0.424 0.426,0.424" /><path
           id="path34"
           style="fill:#1a6fb6;fill-opacity:1;fill-rule:nonzero;stroke:none"
           d="m 23.398,29.133 c 0.235,0 0.424,-0.191 0.424,-0.425 0,-0.234 -0.189,-0.425 -0.424,-0.425 -0.235,0 -0.425,0.191 -0.425,0.425 0,0.234 0.19,0.425 0.425,0.425" /><path
           id="path36"
           style="fill:#1a6fb6;fill-opacity:1;fill-rule:nonzero;stroke:none"
           d="m 24.248,27.858 c 0.234,0 0.424,-0.19 0.424,-0.424 0,-0.235 -0.19,-0.425 -0.424,-0.425 -0.235,0 -0.426,0.19 -0.426,0.425 0,0.234 0.191,0.424 0.426,0.424" /><path
           id="path38"
           style="fill:#1a6fb6;fill-opacity:1;fill-rule:nonzero;stroke:none"
           d="m 21.699,29.133 c 0.235,0 0.424,-0.191 0.424,-0.425 0,-0.234 -0.189,-0.425 -0.424,-0.425 -0.234,0 -0.426,0.191 -0.426,0.425 0,0.234 0.192,0.425 0.426,0.425" /><path
           id="path40"
           style="fill:#1a6fb6;fill-opacity:1;fill-rule:nonzero;stroke:none"
           d="m 22.549,27.858 c 0.234,0 0.424,-0.19 0.424,-0.424 0,-0.235 -0.19,-0.425 -0.424,-0.425 -0.235,0 -0.426,0.19 -0.426,0.425 0,0.234 0.191,0.424 0.426,0.424" /><path
           id="path42"
           style="fill:#1a6fb6;fill-opacity:1;fill-rule:nonzero;stroke:none"
           d="m 9.214,24.46 c -0.61,0 -1.108,0.497 -1.108,1.108 v 5.005 c 0,0.612 0.498,1.109 1.108,1.109 h 21.571 c 0.611,0 1.109,-0.497 1.109,-1.109 v -5.005 c 0,-0.61 -0.498,-1.107 -1.109,-1.107 H 9.214 Z m 22.68,-1.957 v -5.005 c 0,-0.611 -0.498,-1.108 -1.109,-1.108 H 9.214 c -0.61,0 -1.108,0.497 -1.108,1.107 v 5.006 c 0,0.61 0.498,1.107 1.108,1.107 h 21.571 c 0.611,0 1.109,-0.497 1.109,-1.107 m 0,-8.071 V 9.427 c 0,-0.611 -0.498,-1.108 -1.109,-1.108 H 9.214 C 8.604,8.318 8.106,8.815 8.106,9.427 v 5.005 c 0,0.611 0.498,1.108 1.108,1.108 h 21.571 c 0.611,0 1.109,-0.497 1.109,-1.108 m 0.849,11.136 v 5.005 c 0,1.08 -0.878,1.958 -1.958,1.958 H 9.214 c -1.079,0 -1.957,-0.878 -1.957,-1.958 v -5.005 c 0,-0.624 0.299,-1.173 0.755,-1.532 -0.456,-0.359 -0.755,-0.91 -0.755,-1.533 v -5.005 c 0,-0.625 0.299,-1.175 0.755,-1.533 C 7.556,15.606 7.257,15.056 7.257,14.432 V 9.427 c 0,-1.08 0.878,-1.958 1.957,-1.958 h 21.571 c 1.08,0 1.957,0.878 1.957,1.958 v 5.005 c 0,0.624 -0.299,1.174 -0.754,1.533 0.456,0.358 0.755,0.908 0.755,1.532 v 5.006 c 0,0.624 -0.299,1.174 -0.755,1.532 0.456,0.36 0.755,0.909 0.755,1.533" /><path
           id="path44"
           style="fill:#1a6fb6;fill-opacity:1;fill-rule:nonzero;stroke:none"
           d="m 11.717,21.063 c 0.585,0 1.061,-0.477 1.061,-1.063 0,-0.586 -0.476,-1.062 -1.061,-1.062 -0.585,0 -1.062,0.476 -1.062,1.062 0,0.586 0.477,1.063 1.062,1.063 m 0,-2.974 c 1.054,0 1.911,0.857 1.911,1.911 0,1.054 -0.857,1.911 -1.911,1.911 -1.054,0 -1.911,-0.857 -1.911,-1.911 0,-1.054 0.857,-1.911 1.911,-1.911" /><path
           id="path46"
           style="fill:#1a6fb6;fill-opacity:1;fill-rule:nonzero;stroke:none"
           d="m 28.495,21.063 c 0.235,0 0.425,-0.191 0.425,-0.425 0,-0.236 -0.19,-0.426 -0.425,-0.426 -0.234,0 -0.425,0.19 -0.425,0.426 0,0.234 0.191,0.425 0.425,0.425" /><path
           id="path48"
           style="fill:#1a6fb6;fill-opacity:1;fill-rule:nonzero;stroke:none"
           d="m 26.796,21.063 c 0.235,0 0.425,-0.191 0.425,-0.425 0,-0.236 -0.19,-0.426 -0.425,-0.426 -0.234,0 -0.425,0.19 -0.425,0.426 0,0.234 0.191,0.425 0.425,0.425" /><path
           id="path50"
           style="fill:#1a6fb6;fill-opacity:1;fill-rule:nonzero;stroke:none"
           d="m 29.345,19.787 c 0.235,0 0.425,-0.189 0.425,-0.424 0,-0.235 -0.19,-0.425 -0.425,-0.425 -0.235,0 -0.425,0.19 -0.425,0.425 0,0.235 0.19,0.424 0.425,0.424" /><path
           id="path52"
           style="fill:#1a6fb6;fill-opacity:1;fill-rule:nonzero;stroke:none"
           d="m 27.646,19.787 c 0.235,0 0.424,-0.189 0.424,-0.424 0,-0.235 -0.189,-0.425 -0.424,-0.425 -0.235,0 -0.425,0.19 -0.425,0.425 0,0.235 0.19,0.424 0.425,0.424" /><path
           id="path54"
           style="fill:#1a6fb6;fill-opacity:1;fill-rule:nonzero;stroke:none"
           d="m 25.098,21.063 c 0.234,0 0.423,-0.191 0.423,-0.425 0,-0.236 -0.189,-0.426 -0.423,-0.426 -0.236,0 -0.426,0.19 -0.426,0.426 0,0.234 0.19,0.425 0.426,0.425" /><path
           id="path56"
           style="fill:#1a6fb6;fill-opacity:1;fill-rule:nonzero;stroke:none"
           d="m 25.947,19.787 c 0.235,0 0.424,-0.189 0.424,-0.424 0,-0.235 -0.189,-0.425 -0.424,-0.425 -0.235,0 -0.426,0.19 -0.426,0.425 0,0.235 0.191,0.424 0.426,0.424" /><path
           id="path58"
           style="fill:#1a6fb6;fill-opacity:1;fill-rule:nonzero;stroke:none"
           d="m 23.398,21.063 c 0.235,0 0.424,-0.191 0.424,-0.425 0,-0.236 -0.189,-0.426 -0.424,-0.426 -0.235,0 -0.425,0.19 -0.425,0.426 0,0.234 0.19,0.425 0.425,0.425" /><path
           id="path60"
           style="fill:#1a6fb6;fill-opacity:1;fill-rule:nonzero;stroke:none"
           d="m 24.248,19.787 c 0.234,0 0.424,-0.189 0.424,-0.424 0,-0.235 -0.19,-0.425 -0.424,-0.425 -0.235,0 -0.426,0.19 -0.426,0.425 0,0.235 0.191,0.424 0.426,0.424" /><path
           id="path62"
           style="fill:#1a6fb6;fill-opacity:1;fill-rule:nonzero;stroke:none"
           d="m 21.699,21.063 c 0.235,0 0.424,-0.191 0.424,-0.425 0,-0.236 -0.189,-0.426 -0.424,-0.426 -0.234,0 -0.426,0.19 -0.426,0.426 0,0.234 0.192,0.425 0.426,0.425" /><path
           id="path64"
           style="fill:#1a6fb6;fill-opacity:1;fill-rule:nonzero;stroke:none"
           d="m 22.549,19.787 c 0.234,0 0.424,-0.189 0.424,-0.424 0,-0.235 -0.19,-0.425 -0.424,-0.425 -0.235,0 -0.426,0.19 -0.426,0.425 0,0.235 0.191,0.424 0.426,0.424" /><path
           id="path66"
           style="fill:#1a6fb6;fill-opacity:1;fill-rule:nonzero;stroke:none"
           d="m 11.717,12.991 c 0.585,0 1.061,-0.476 1.061,-1.061 0,-0.586 -0.476,-1.063 -1.061,-1.063 -0.585,0 -1.062,0.477 -1.062,1.063 0,0.585 0.477,1.061 1.062,1.061 m 0,-2.973 c 1.054,0 1.911,0.857 1.911,1.912 0,1.053 -0.857,1.911 -1.911,1.911 -1.054,0 -1.911,-0.858 -1.911,-1.911 0,-1.055 0.857,-1.912 1.911,-1.912" /><path
           id="path68"
           style="fill:#1a6fb6;fill-opacity:1;fill-rule:nonzero;stroke:none"
           d="m 28.495,12.991 c 0.235,0 0.425,-0.19 0.425,-0.425 0,-0.234 -0.19,-0.424 -0.425,-0.424 -0.234,0 -0.425,0.19 -0.425,0.424 0,0.235 0.191,0.425 0.425,0.425" /><path
           id="path70"
           style="fill:#1a6fb6;fill-opacity:1;fill-rule:nonzero;stroke:none"
           d="m 26.796,12.991 c 0.235,0 0.425,-0.19 0.425,-0.425 0,-0.234 -0.19,-0.424 -0.425,-0.424 -0.234,0 -0.425,0.19 -0.425,0.424 0,0.235 0.191,0.425 0.425,0.425" /><path
           id="path72"
           style="fill:#1a6fb6;fill-opacity:1;fill-rule:nonzero;stroke:none"
           d="m 29.345,11.717 c 0.235,0 0.425,-0.191 0.425,-0.425 0,-0.234 -0.19,-0.425 -0.425,-0.425 -0.235,0 -0.425,0.191 -0.425,0.425 0,0.234 0.19,0.425 0.425,0.425" /><path
           id="path74"
           style="fill:#1a6fb6;fill-opacity:1;fill-rule:nonzero;stroke:none"
           d="m 27.646,11.717 c 0.235,0 0.424,-0.191 0.424,-0.425 0,-0.234 -0.189,-0.425 -0.424,-0.425 -0.235,0 -0.425,0.191 -0.425,0.425 0,0.234 0.19,0.425 0.425,0.425" /><path
           id="path76"
           style="fill:#1a6fb6;fill-opacity:1;fill-rule:nonzero;stroke:none"
           d="m 25.098,12.991 c 0.234,0 0.423,-0.19 0.423,-0.425 0,-0.234 -0.189,-0.424 -0.423,-0.424 -0.236,0 -0.426,0.19 -0.426,0.424 0,0.235 0.19,0.425 0.426,0.425" /><path
           id="path78"
           style="fill:#1a6fb6;fill-opacity:1;fill-rule:nonzero;stroke:none"
           d="m 25.947,11.717 c 0.235,0 0.424,-0.191 0.424,-0.425 0,-0.234 -0.189,-0.425 -0.424,-0.425 -0.235,0 -0.426,0.191 -0.426,0.425 0,0.234 0.191,0.425 0.426,0.425" /><path
           id="path80"
           style="fill:#1a6fb6;fill-opacity:1;fill-rule:nonzero;stroke:none"
           d="m 23.398,12.991 c 0.235,0 0.424,-0.19 0.424,-0.425 0,-0.234 -0.189,-0.424 -0.424,-0.424 -0.235,0 -0.425,0.19 -0.425,0.424 0,0.235 0.19,0.425 0.425,0.425" /><path
           id="path82"
           style="fill:#1a6fb6;fill-opacity:1;fill-rule:nonzero;stroke:none"
           d="m 24.248,11.717 c 0.234,0 0.424,-0.191 0.424,-0.425 0,-0.234 -0.19,-0.425 -0.424,-0.425 -0.235,0 -0.426,0.191 -0.426,0.425 0,0.234 0.191,0.425 0.426,0.425" /><path
           id="path84"
           style="fill:#1a6fb6;fill-opacity:1;fill-rule:nonzero;stroke:none"
           d="m 21.699,12.991 c 0.235,0 0.424,-0.19 0.424,-0.425 0,-0.234 -0.189,-0.424 -0.424,-0.424 -0.234,0 -0.426,0.19 -0.426,0.424 0,0.235 0.192,0.425 0.426,0.425" /><path
           id="path86"
           style="fill:#1a6fb6;fill-opacity:1;fill-rule:nonzero;stroke:none"
           d="m 22.549,11.717 c 0.234,0 0.424,-0.191 0.424,-0.425 0,-0.234 -0.19,-0.425 -0.424,-0.425 -0.235,0 -0.426,0.191 -0.426,0.425 0,0.234 0.191,0.425 0.426,0.425" /></g></g></g></svg>