<?xml version="1.0" encoding="UTF-8" standalone="no"?>
<svg
   xmlns:dc="http://purl.org/dc/elements/1.1/"
   xmlns:cc="http://creativecommons.org/ns#"
   xmlns:rdf="http://www.w3.org/1999/02/22-rdf-syntax-ns#"
   xmlns:svg="http://www.w3.org/2000/svg"
   xmlns="http://www.w3.org/2000/svg"
   viewBox="0 0 53.333332 53.333332"
   height="53.333332"
   width="53.333332"
   xml:space="preserve"
   id="svg2"
   version="1.1"><metadata
     id="metadata8"><rdf:RDF><cc:Work
         rdf:about=""><dc:format>image/svg+xml</dc:format><dc:type
           rdf:resource="http://purl.org/dc/dcmitype/StillImage" /></cc:Work></rdf:RDF></metadata><defs
     id="defs6"><clipPath
       id="clipPath18"
       clipPathUnits="userSpaceOnUse"><path
         id="path16"
         d="M 0,40 H 40 V 0 H 0 Z" /></clipPath></defs><g
     transform="matrix(1.3333333,0,0,-1.3333333,0,53.333333)"
     id="g10"><g
       id="g12"><g
         clip-path="url(#clipPath18)"
         id="g14"><path
           id="path20"
           style="fill:#4e4e4e;fill-opacity:1;fill-rule:nonzero;stroke:none"
           d="m 20.51,9.685 v 0.936 H 19.367 V 9.699 c -5.221,0.349 -9.391,4.594 -9.618,9.847 h 0.815 v 1.144 h -0.8 c 0.345,5.181 4.528,9.329 9.726,9.614 v -0.925 h 1.143 v 0.925 c 5.277,-0.289 9.509,-4.559 9.741,-9.85 h -0.938 v -1.143 h 0.923 C 30.015,14.085 25.767,9.91 20.51,9.685 M 32.5,20.454 H 31.508 C 31.274,26.371 26.535,31.149 20.633,31.44 v 1.003 H 19.49 V 31.44 C 13.667,31.153 8.975,26.497 8.626,20.69 H 7.5 V 19.546 H 8.615 C 8.843,13.668 13.52,8.913 19.367,8.562 V 7.557 H 20.51 V 8.55 c 5.883,0.228 10.639,4.909 10.988,10.761 H 32.5 Z" /><path
           id="path22"
           style="fill:#4e4e4e;fill-opacity:1;fill-rule:nonzero;stroke:none"
           d="m 20.062,17.354 c -1.458,0 -2.643,1.185 -2.643,2.643 0,1.457 1.185,2.643 2.643,2.643 1.457,0 2.642,-1.186 2.642,-2.643 0,-1.458 -1.185,-2.643 -2.642,-2.643 m 6.281,3.214 h -2.552 c -0.248,1.625 -1.533,2.91 -3.158,3.158 v 2.552 H 19.49 V 23.726 C 17.865,23.478 16.581,22.193 16.333,20.568 H 13.78 l -10e-4,-1.143 h 2.554 c 0.248,-1.625 1.532,-2.909 3.157,-3.157 v -2.553 h 1.143 v 2.553 c 1.625,0.248 2.91,1.532 3.158,3.157 h 2.552 z" /></g></g></g></svg>