<?xml version="1.0" encoding="UTF-8"?>
<svg width="266px" height="209px" viewBox="0 0 266 209" version="1.1" xmlns="http://www.w3.org/2000/svg" xmlns:xlink="http://www.w3.org/1999/xlink">
    <!-- Generator: Sketch 40.3 (33839) - http://www.bohemiancoding.com/sketch -->
    <title>videoconferencia_2</title>
    <desc>Created with Sketch.</desc>
    <defs>
        <rect id="path-1" x="0" y="0" width="266" height="179.458647" rx="5.28000019"></rect>
        <mask id="mask-2" maskContentUnits="userSpaceOnUse" maskUnits="objectBoundingBox" x="0" y="0" width="266" height="179.458647" fill="white">
            <use xlink:href="#path-1"></use>
        </mask>
    </defs>
    <g id="Page-1" stroke="none" stroke-width="1" fill="none" fill-rule="evenodd">
        <g id="Desktop-HD" transform="translate(-896.000000, -873.000000)">
            <g id="screen-2" transform="translate(288.000000, 873.000000)">
                <g id="videoconferencia_2" transform="translate(608.000000, 0.000000)">
                    <g id="desktop" stroke="#1A6FB6">
                        <use id="Rectangle-5" mask="url(#mask-2)" stroke-width="3.52000013" xlink:href="#path-1"></use>
                        <ellipse id="Oval-6" cx="13.2119205" cy="13.1954887" rx="4.40397351" ry="4.39849624"></ellipse>
                        <ellipse id="Oval-7" cx="30.8278146" cy="13.1954887" rx="4.40397351" ry="4.39849624"></ellipse>
                        <ellipse id="Oval-8" cx="48.4437086" cy="13.1954887" rx="4.40397351" ry="4.39849624"></ellipse>
                        <path d="M133.880795,179.458647 L133.880795,207.506836" id="Line-3" stroke-width="1.76000006" stroke-linecap="square"></path>
                        <path d="M99,207.759398 L169.463576,207.759398" id="Line-4" stroke-width="1.76000006" stroke-linecap="square"></path>
                    </g>
                    <g id="but-send" transform="translate(203.000000, 128.000000) rotate(-360.000000) translate(-203.000000, -128.000000) translate(184.000000, 119.000000)" fill="#1A6FB6">
                        <path d="M0.5,5.0157632 C0.5,4.45927847 0.95149098,4.00815847 1.49542604,4.00815847 L12.1902796,4.00815847 C12.7400382,4.00815847 13.1857056,4.45654378 13.1857056,5.0157632 L13.1857056,5.11483801 C13.1857056,5.67132274 12.7342147,6.12244274 12.1902796,6.12244274 L1.49542604,6.12244274 C0.945667421,6.12244274 0.5,5.67405743 0.5,5.11483801 L0.5,5.0157632 Z M3.67142641,9.24433175 C3.67142641,8.68784702 4.11755867,8.23672702 4.6716385,8.23672702 L12.1854936,8.23672702 C12.7378954,8.23672702 13.1857056,8.68511233 13.1857056,9.24433175 L13.1857056,9.34340656 C13.1857056,9.89989129 12.7395734,10.3510113 12.1854936,10.3510113 L4.6716385,10.3510113 C4.11923662,10.3510113 3.67142641,9.90262597 3.67142641,9.34340656 L3.67142641,9.24433175 Z M37.5,2.72448812 C37.5,1.68622229 36.6505098,0.836732056 35.6122439,0.836732056 L18.2448881,0.836732056 C17.2066223,0.836732056 16.3571321,1.68622229 16.3571321,2.72448812 L16.3571321,15.5612294 C16.3571321,16.5994952 17.2066223,17.4489854 18.2448881,17.4489854 L35.6122439,17.4489854 C36.6505098,17.4489854 37.5,16.5994952 37.5,15.5612294 L37.5,2.72448812 Z M6.84285282,13.4729003 C6.84285282,12.9164156 7.29901515,12.4652956 7.83392358,12.4652956 L12.1946349,12.4652956 C12.7419882,12.4652956 13.1857056,12.9136809 13.1857056,13.4729003 L13.1857056,13.5719751 C13.1857056,14.1284598 12.7295433,14.5795798 12.1946349,14.5795798 L7.83392358,14.5795798 C7.28657031,14.5795798 6.84285282,14.1311945 6.84285282,13.5719751 L6.84285282,13.4729003 Z M35.9897951,3.16103171 C35.9897951,4.16390212 35.0223202,5.47353289 34.2554193,6.07525514 C32.6744236,7.31409506 31.0934278,8.56473345 29.5242306,9.81537185 C28.8989114,10.3227063 27.7662578,11.408166 26.9403645,11.408166 L26.928566,11.408166 L26.9167676,11.408166 C26.0908743,11.408166 24.9582206,10.3227063 24.3329014,9.81537185 C22.7637042,8.56473345 21.1827085,7.31409506 19.6017128,6.07525514 C18.53985,5.23756339 17.8673369,4.06951432 17.8673369,2.72448812 C17.8673369,2.52391404 18.044314,2.34693691 18.2448881,2.34693691 L35.6122439,2.34693691 C36.060586,2.34693691 35.9897951,2.86606983 35.9897951,3.16103171 L35.9897951,3.16103171 Z M35.9897951,15.5612294 C35.9897951,15.7618035 35.812818,15.9387806 35.6122439,15.9387806 L18.2448881,15.9387806 C18.044314,15.9387806 17.8673369,15.7618035 17.8673369,15.5612294 L17.8673369,6.50000026 C18.1151049,6.78316367 18.3864698,7.04273012 18.6814317,7.27869963 C20.3686137,8.57653193 22.0675942,9.89796118 23.7075822,11.2665843 C24.5924679,12.0098883 25.6897261,12.9183709 26.9167676,12.9183709 L26.928566,12.9183709 L26.9403645,12.9183709 C28.1674059,12.9183709 29.2646642,12.0098883 30.1495498,11.2665843 C31.7895379,9.89796118 33.4885184,8.57653193 35.1757003,7.27869963 C35.4706622,7.04273012 35.7420272,6.78316367 35.9897951,6.50000026 L35.9897951,15.5612294 Z" id="Combined-Shape"></path>
                    </g>
                    <g id="mail" transform="translate(15.000000, 42.000000)" fill="#1A6FB6">
                        <g id="mail-messages">
                            <rect id="Rectangle-473-Copy-3" opacity="0.5" x="7" y="45" width="48" height="3"></rect>
                            <rect id="Rectangle-473-Copy-16" opacity="0.5" x="7" y="52" width="48" height="3"></rect>
                            <rect id="Rectangle-473-Copy-7" opacity="0.5" x="7" y="64" width="48" height="3"></rect>
                            <rect id="Rectangle-473-Copy-19" opacity="0.5" x="7" y="71" width="48" height="3"></rect>
                            <rect id="Rectangle-471-Copy-2" opacity="0.133491848" x="0" y="0" width="62" height="21" rx="2.60000014"></rect>
                            <rect id="Rectangle-473-Copy" x="7" y="6" width="48" height="3"></rect>
                            <rect id="Rectangle-473-Copy-12" x="7" y="13" width="48" height="3"></rect>
                            <rect id="Rectangle-473-Copy-2" opacity="0.5" x="7" y="26" width="48" height="3"></rect>
                            <rect id="Rectangle-473-Copy-13" opacity="0.5" x="7" y="33" width="48" height="3"></rect>
                        </g>
                        <g id="mail-message-text" transform="translate(82.000000, 0.000000)">
                            <rect id="Rectangle-473-Copy-3" opacity="0.5" x="0" y="7" width="143" height="3"></rect>
                            <rect id="Rectangle-473-Copy-6" opacity="0.5" x="0" y="35" width="143" height="3"></rect>
                            <rect id="Rectangle-473-Copy-5" opacity="0.5" x="0" y="21" width="143" height="3"></rect>
                            <rect id="Rectangle-473-Copy-4" x="0" y="0" width="143" height="3"></rect>
                            <rect id="Rectangle-473-Copy-16" opacity="0.5" x="0" y="14" width="143" height="3"></rect>
                            <rect id="Rectangle-473-Copy-18" opacity="0.5" x="0" y="42" width="143" height="3"></rect>
                            <rect id="Rectangle-473-Copy-17" opacity="0.5" x="0" y="28" width="143" height="3"></rect>
                        </g>
                        <g id="calendar" transform="translate(82.000000, 59.000000)">
                            <rect id="Rectangle-2" opacity="0.133491848" x="0" y="10" width="5" height="5"></rect>
                            <rect id="Rectangle-2-Copy" opacity="0.133491848" x="10" y="10" width="5" height="5"></rect>
                            <rect id="Rectangle-2-Copy-2" opacity="0.133491848" x="20" y="10" width="5" height="5"></rect>
                            <rect id="Rectangle-2-Copy-3" opacity="0.133491848" x="30" y="10" width="5" height="5"></rect>
                            <rect id="Rectangle-2-Copy-4" opacity="0.133491848" x="40" y="10" width="5" height="5"></rect>
                            <rect id="Rectangle-2-Copy-5" opacity="0.133491848" x="50" y="10" width="5" height="5"></rect>
                            <rect id="Rectangle-2-Copy-6" opacity="0.133491848" x="60" y="10" width="5" height="5"></rect>
                            <rect id="Rectangle-2-Copy-14" opacity="0.133491848" x="0" y="20" width="5" height="5"></rect>
                            <rect id="Rectangle-2-Copy-13" opacity="0.133491848" x="10" y="20" width="5" height="5"></rect>
                            <rect id="Rectangle-2-Copy-12" opacity="0.133491848" x="20" y="20" width="5" height="5"></rect>
                            <rect id="Rectangle-2-Copy-11" opacity="0.133491848" x="30" y="20" width="5" height="5"></rect>
                            <rect id="Rectangle-2-Copy-10" opacity="0.133491848" x="40" y="20" width="5" height="5"></rect>
                            <rect id="Rectangle-2-Copy-9" opacity="0.133491848" x="50" y="20" width="5" height="5"></rect>
                            <rect id="Rectangle-2-Copy-8" opacity="0.133491848" x="60" y="20" width="5" height="5"></rect>
                            <rect id="Rectangle-2-Copy-21" opacity="0.133491848" x="0" y="30" width="5" height="5"></rect>
                            <rect id="Rectangle-2-Copy-20" x="10" y="30" width="5" height="5"></rect>
                            <rect id="Rectangle-2-Copy-19" opacity="0.133491848" x="20" y="30" width="5" height="5"></rect>
                            <rect id="Rectangle-2-Copy-18" opacity="0.133491848" x="30" y="30" width="5" height="5"></rect>
                            <rect id="Rectangle-2-Copy-17" opacity="0.133491848" x="40" y="30" width="5" height="5"></rect>
                            <rect id="Rectangle-2-Copy-16" opacity="0.133491848" x="50" y="30" width="5" height="5"></rect>
                            <rect id="Rectangle-2-Copy-15" opacity="0.133491848" x="60" y="30" width="5" height="5"></rect>
                            <rect id="Rectangle-2-Copy-28" opacity="0.133491848" x="0" y="40" width="5" height="5"></rect>
                            <rect id="Rectangle-2-Copy-27" opacity="0.133491848" x="10" y="40" width="5" height="5"></rect>
                            <rect id="Rectangle-2-Copy-26" opacity="0.133491848" x="20" y="40" width="5" height="5"></rect>
                            <rect id="Rectangle-2-Copy-25" opacity="0.133491848" x="30" y="40" width="5" height="5"></rect>
                            <rect id="Rectangle-2-Copy-24" opacity="0.133491848" x="40" y="40" width="5" height="5"></rect>
                            <rect id="Rectangle-2-Copy-23" opacity="0.133491848" x="50" y="40" width="5" height="5"></rect>
                            <rect id="Rectangle-2-Copy-22" opacity="0.133491848" x="60" y="40" width="5" height="5"></rect>
                            <rect id="Rectangle-2-Copy-35" opacity="0.133491848" x="0" y="50" width="5" height="5"></rect>
                            <rect id="Rectangle-2-Copy-34" opacity="0.133491848" x="10" y="50" width="5" height="5"></rect>
                            <rect id="Rectangle-2-Copy-33" opacity="0.133491848" x="20" y="50" width="5" height="5"></rect>
                            <rect id="Rectangle-2-Copy-32" opacity="0.133491848" x="30" y="50" width="5" height="5"></rect>
                            <rect id="Rectangle-2-Copy-31" opacity="0.133491848" x="40" y="50" width="5" height="5"></rect>
                            <rect id="Rectangle-2-Copy-30" opacity="0.133491848" x="50" y="50" width="5" height="5"></rect>
                            <rect id="Rectangle-2-Copy-29" opacity="0.133491848" x="60" y="50" width="5" height="5"></rect>
                            <rect id="Rectangle-2-Copy-7" opacity="0.133491848" x="10" y="0" width="45" height="5"></rect>
                            <polygon id="Star" opacity="0.133491848" transform="translate(58.500000, 2.732051) rotate(-270.000000) translate(-58.500000, -2.732051) " points="58.5 4.23205081 56.7679492 4.23205081 57.6339746 2.73205081 58.5 1.23205081 59.3660254 2.73205081 60.2320508 4.23205081"></polygon>
                            <polygon id="Star-Copy" opacity="0.133491848" transform="translate(6.500000, 2.732051) scale(-1, 1) rotate(-270.000000) translate(-6.500000, -2.732051) " points="6.5 4.23205081 4.76794919 4.23205081 5.6339746 2.73205081 6.5 1.23205081 7.3660254 2.73205081 8.23205081 4.23205081"></polygon>
                        </g>
                    </g>
                    <g id="logo-matchtalent" transform="translate(234.000000, 14.000000) scale(1, -1) translate(-234.000000, -14.000000) translate(211.000000, 9.000000)" fill="#1A6FB6">
                        <polygon id="path20" points="3.7029463 2.88867717 3.00190202 2.88867717 3.00190202 6.98751305 4.09517939 6.98751305 5.34865254 4.41333322 6.60255461 6.98751305 7.69004177 6.98751305 7.69004177 2.88867717 6.98878304 2.88867717 6.98878304 6.09015857 5.53908611 3.24656076 5.14685302 3.24656076 3.7029463 6.09015857"></polygon>
                        <path d="M10.6443354,4.04994698 L10.6443354,4.31365068 L9.89568274,4.31365068 C9.4165965,4.31365068 9.17683894,4.16507925 9.17683894,3.86772478 C9.17683894,3.71534383 9.23602775,3.59894171 9.35504871,3.51894171 C9.4736408,3.43894171 9.6391979,3.39894171 9.85129113,3.39894171 C10.0631699,3.39894171 10.2482422,3.45756605 10.4069368,3.57481473 C10.5649881,3.69185176 10.6443354,3.85015863 10.6443354,4.04994698 L10.6443354,4.04994698 L10.6443354,4.04994698 Z M11.3097806,2.88867717 L10.7037387,2.88867717 L10.7037387,3.30497346 C10.442107,2.99597876 10.0919065,2.84169305 9.65227948,2.84169305 C9.32330979,2.84169305 9.05116994,2.93375654 8.83521656,3.1172486 C8.61904874,3.3009523 8.51117927,3.54645494 8.51117927,3.8531216 C8.51117927,4.16021154 8.62634011,4.38984116 8.85601843,4.54243375 C9.08569674,4.69460306 9.396438,4.77100517 9.78867109,4.77100517 L10.6503401,4.77100517 L10.6503401,4.88846549 C10.6503401,5.30264537 10.4165872,5.50984113 9.94929579,5.50984113 C9.65613962,5.50984113 9.35118857,5.40423267 9.03422821,5.19322738 L8.73699745,5.60359775 C9.1212958,5.90476176 9.55727714,6.0550263 10.0442981,6.0550263 C10.4165872,6.0550263 10.7206804,5.96232789 10.9565778,5.77671943 C11.1920463,5.59089933 11.3097806,5.29862421 11.3097806,4.89989406 L11.3097806,2.88867717 L11.3097806,2.88867717 Z" id="path22"></path>
                        <path d="M13.021967,5.48063478 L13.021967,3.8973544 C13.021967,3.74857133 13.0614263,3.63026446 13.1405591,3.54264541 C13.2201209,3.45439144 13.3307782,3.41058192 13.4733889,3.41058192 C13.6159997,3.41058192 13.7526057,3.47894171 13.8832071,3.61587292 L14.1568481,3.15259251 C13.9228808,2.94518511 13.6646803,2.84169305 13.381389,2.84169305 C13.0980976,2.84169305 12.8564099,2.93862427 12.6565405,3.13206341 C12.4562421,3.32550256 12.3563074,3.58645494 12.3563074,3.91492054 L12.3563074,5.48063478 L11.9584985,5.48063478 L11.9584985,6.00825383 L12.3563074,6.00825383 L12.3563074,6.98751305 L13.021967,6.98751305 L13.021967,6.00825383 L13.8536127,6.00825383 L13.8536127,5.48063478 L13.021967,5.48063478 L13.021967,5.48063478 Z" id="path24"></path>
                        <path d="M16.0882047,2.84169305 C15.6487921,2.84169305 15.270284,2.98941792 14.9533236,3.28444437 C14.6363633,3.57968244 14.478312,3.9652909 14.478312,4.44253957 C14.478312,4.91936495 14.6436547,5.30730146 14.9741255,5.60677235 C15.3050253,5.90560832 15.7081954,6.0550263 16.1834215,6.0550263 C16.658862,6.0550263 17.0609599,5.8929099 17.3895008,5.56825383 L16.997482,5.09333321 C16.7238411,5.32804219 16.4489134,5.44550251 16.1714121,5.44550251 C15.8943399,5.44550251 15.6537246,5.35428559 15.449566,5.17269829 C15.245622,4.9906877 15.1435427,4.756402 15.1435427,4.46878295 C15.1435427,4.18158719 15.2443353,3.93820095 15.4465637,3.73904752 C15.6487921,3.53947081 15.8969134,3.43978827 16.1922141,3.43978827 C16.4873002,3.43978827 16.7658736,3.57269832 17.027291,3.8389417 L17.4193096,3.41650786 C17.0350113,3.03322744 16.591524,2.84169305 16.0882047,2.84169305" id="path26"></path>
                        <path d="M18.774862,4.57756602 L18.774862,2.88867717 L18.1092023,2.88867717 L18.1092023,7.23386225 L18.774862,7.23386225 L18.774862,5.43936494 C18.8698643,5.63089933 19.0133328,5.78116387 19.205482,5.89100514 C19.3976313,6.00042313 19.6047921,6.0550263 19.8265356,6.0550263 C20.1829552,6.0550263 20.471179,5.94751308 20.6909925,5.73269827 C20.9105915,5.51767183 21.0208199,5.206984 21.0208199,4.80021152 L21.0208199,2.88867717 L20.3551604,2.88867717 L20.3551604,4.60084644 C20.3551604,5.17566125 20.1134727,5.462857 19.6303118,5.462857 C19.4006335,5.462857 19.2007641,5.38772473 19.0302746,5.2370369 C18.8599995,5.08677237 18.774862,4.86666654 18.774862,4.57756602" id="path28"></path>
                        <polygon id="path30" points="26.7552721 6.19576705 26.7552721 2.88867717 25.8284096 2.88867717 25.8284096 6.19576705 24.6521392 6.19576705 24.6521392 6.98751305 27.9321858 6.98751305 27.9321858 6.19576705"></polygon>
                        <path d="M29.9587592,4.09079356 L29.9587592,4.24296286 L29.4003256,4.24296286 C29.0439061,4.24296286 28.8656963,4.13354487 28.8656963,3.91492054 C28.8656963,3.80148138 28.9079434,3.71449725 28.9930809,3.65396816 C29.0782184,3.59322743 29.1998128,3.56317451 29.3587219,3.56317451 C29.5169876,3.56317451 29.6568104,3.61079356 29.777547,3.70687821 C29.8984981,3.80232795 29.9587592,3.93015863 29.9587592,4.09079356 L29.9587592,4.09079356 L29.9587592,4.09079356 Z M30.8558128,2.88867717 L30.0181624,2.88867717 L30.0181624,3.26984119 C29.7882697,2.98433856 29.5039061,2.84169305 29.1655005,2.84169305 C28.8266659,2.84169305 28.5427312,2.93862427 28.312624,3.13206341 C28.0831602,3.32550256 27.9682138,3.58370362 27.9682138,3.90603165 C27.9682138,4.22857132 28.0872347,4.47005279 28.3250623,4.63026443 C28.5622463,4.79047606 28.8871414,4.87047606 29.2991041,4.87047606 L29.9647638,4.87047606 L29.9647638,4.88846549 C29.9647638,5.22455013 29.784624,5.39238083 29.4241298,5.39238083 C29.2690809,5.39238083 29.1060971,5.3623279 28.9334631,5.30158717 C28.7610435,5.24105806 28.6160739,5.16571416 28.4970529,5.07576706 L28.0988152,5.64465594 C28.5187126,5.94560832 28.9984421,6.09629614 29.5369317,6.09629614 C29.9250901,6.09629614 30.2422649,6.00042313 30.4875984,5.80867711 C30.7333606,5.61735435 30.8558128,5.31428559 30.8558128,4.89989406 L30.8558128,2.88867717 L30.8558128,2.88867717 Z" id="path32"></path>
                        <polygon id="path34" points="32.562209 2.88867717 31.67116 2.88867717 31.67116 7.23957654 32.562209 7.23957654"></polygon>
                        <path d="M35.3192066,5.21650781 C35.1967544,5.31809511 35.0470667,5.3691004 34.870787,5.3691004 C34.6945073,5.3691004 34.5330248,5.31640198 34.3867684,5.21079352 C34.2402975,5.10518506 34.1547311,4.96253956 34.1313558,4.78285702 L35.5330154,4.78285702 C35.5139291,4.9701586 35.4425165,5.11470887 35.3192066,5.21650781 L35.3192066,5.21650781 L35.3192066,5.21650781 Z M36.1752997,3.34603167 C35.8143767,3.00994702 35.3919059,2.84169305 34.9066006,2.84169305 C34.4210807,2.84169305 34.0202695,2.98941792 33.7033091,3.28444437 C33.3863488,3.57968244 33.2278687,3.975238 33.2278687,4.47195756 C33.2278687,4.96846549 33.3891367,5.36338611 33.7118873,5.65650779 C34.0346378,5.94941784 34.4163628,6.09629614 34.8557754,6.09629614 C35.2960458,6.09629614 35.6691926,5.96529086 35.9758592,5.70328029 C36.2827403,5.4412697 36.4362881,5.08148135 36.4362881,4.62433851 L36.4362881,4.15555544 L34.1073371,4.15555544 C34.135216,3.98328032 34.2259293,3.84253959 34.3807637,3.73290995 C34.5351693,3.62349197 34.7095189,3.56888879 34.9035982,3.56888879 C35.2162695,3.56888879 35.4742556,3.67259251 35.6756262,3.87978827 L36.1752997,3.34603167 L36.1752997,3.34603167 Z" id="path36"></path>
                        <path d="M37.9704792,4.64783057 L37.9704792,2.88867717 L37.0785725,2.88867717 L37.0785725,6.04359773 L37.9704792,6.04359773 L37.9704792,5.69185171 C38.2394022,5.9612697 38.5426378,6.09629614 38.8791133,6.09629614 C39.2160176,6.09629614 39.4980224,5.97883583 39.725985,5.74412684 C39.9535187,5.50984113 40.0676074,5.1970369 40.0676074,4.80613744 L40.0676074,2.88867717 L39.1765585,2.88867717 L39.1765585,4.671111 C39.1765585,5.15597871 38.9964186,5.39851838 38.6359245,5.39851838 C38.4570713,5.39851838 38.3020224,5.33481468 38.1692764,5.20783056 C38.0363161,5.08084643 37.9704792,4.89417978 37.9704792,4.64783057" id="path38"></path>
                        <path d="M41.8928101,5.41015859 L41.8928101,3.9968253 C41.8928101,3.8757671 41.9243345,3.78095229 41.9873835,3.71238086 C42.0508614,3.64402108 42.1261341,3.609947 42.2136306,3.609947 C42.3800456,3.609947 42.5205117,3.68402108 42.6354582,3.83259249 L42.967859,3.21714278 C42.6903579,2.96677241 42.3989173,2.84169305 42.0916073,2.84169305 C41.7845117,2.84169305 41.525239,2.94137559 41.3133603,3.14074067 C41.101267,3.34010573 40.9951131,3.61164013 40.9951131,3.9557671 L40.9951131,5.41015859 L40.6211085,5.41015859 L40.6211085,6.04359773 L40.9951131,6.04359773 L40.9951131,6.98751305 L41.8928101,6.98751305 L41.8928101,6.04359773 L42.665267,6.04359773 L42.665267,5.41015859 L41.8928101,5.41015859 L41.8928101,5.41015859 Z" id="path40"></path>
                        <polygon id="path42" points="22.4537897 9.92232779 22.4537897 0.753015854 0.763235411 0.753015854 0.763235411 9.16931194 21.6907687 9.16931194 21.6907687 9.92232779 0 9.92232779 0 0 23.2170251 0 23.2170251 9.16931194 45.2071691 9.16931194 45.2071691 0.753015854 23.9800461 0.753015854 23.9800461 0 45.9697611 0 45.9697611 9.92232779"></polygon>
                    </g>
                </g>
            </g>
        </g>
    </g>
</svg>