<?xml version="1.0" encoding="UTF-8"?>
<svg width="266px" height="209px" viewBox="0 0 266 209" version="1.1" xmlns="http://www.w3.org/2000/svg" xmlns:xlink="http://www.w3.org/1999/xlink">
    <!-- Generator: Sketch 40.3 (33839) - http://www.bohemiancoding.com/sketch -->
    <title>videoconferencia_3</title>
    <desc>Created with Sketch.</desc>
    <defs>
        <rect id="path-1" x="0" y="0" width="266" height="179" rx="5.28000019"></rect>
        <mask id="mask-2" maskContentUnits="userSpaceOnUse" maskUnits="objectBoundingBox" x="0" y="0" width="266" height="179" fill="white">
            <use xlink:href="#path-1"></use>
        </mask>
        <rect id="path-3" x="20" y="29" width="131" height="106" rx="5.28000019"></rect>
        <mask id="mask-4" maskContentUnits="userSpaceOnUse" maskUnits="objectBoundingBox" x="0" y="0" width="131" height="106" fill="white">
            <use xlink:href="#path-3"></use>
        </mask>
        <rect id="path-5" x="0" y="0" width="52" height="40" rx="5.28000019"></rect>
        <mask id="mask-6" maskContentUnits="userSpaceOnUse" maskUnits="objectBoundingBox" x="0" y="0" width="52" height="40" fill="white">
            <use xlink:href="#path-5"></use>
        </mask>
        <polygon id="path-7" points="-1.42108547e-14 0 86 0 86 21.4520548 13.3934426 21.4520548 8.45901639 27 3.52459016 21.4520548 -1.42108547e-14 21.4520548"></polygon>
        <mask id="mask-8" maskContentUnits="userSpaceOnUse" maskUnits="objectBoundingBox" x="0" y="0" width="86" height="27" fill="white">
            <use xlink:href="#path-7"></use>
        </mask>
        <polygon id="path-9" points="0 0 86 0 86 21.4520548 13.3934426 21.4520548 8.45901639 27 3.52459016 21.4520548 0 21.4520548"></polygon>
        <mask id="mask-10" maskContentUnits="userSpaceOnUse" maskUnits="objectBoundingBox" x="0" y="0" width="86" height="27" fill="white">
            <use xlink:href="#path-9"></use>
        </mask>
    </defs>
    <g id="Page-1" stroke="none" stroke-width="1" fill="none" fill-rule="evenodd">
        <g id="Desktop-HD" transform="translate(-896.000000, -1133.000000)">
            <g id="screen-3-video" transform="translate(236.000000, 1133.000000)">
                <g id="videoconferencia_3" transform="translate(660.000000, 0.000000)">
                    <g id="desktop" stroke="#1A6FB6">
                        <use id="Rectangle-5" mask="url(#mask-2)" stroke-width="3.52000013" xlink:href="#path-1"></use>
                        <circle id="Oval-6" cx="13.5" cy="13.5" r="4.5"></circle>
                        <circle id="Oval-7" cx="30.5" cy="13.5" r="4.5"></circle>
                        <circle id="Oval-8" cx="48.5" cy="13.5" r="4.5"></circle>
                        <path d="M133.761589,179 L133.761589,207.048189" id="Line-3" stroke-width="1.76000006" stroke-linecap="square"></path>
                        <path d="M99,208 L169,208" id="Line-4" stroke-width="1.76000006" stroke-linecap="square"></path>
                    </g>
                    <use id="Rectangle-5" stroke="#1A6FB6" mask="url(#mask-4)" stroke-width="3.52000013" xlink:href="#path-3"></use>
                    <g id="Group-3" transform="translate(157.000000, 95.000000)">
                        <use id="Rectangle-5-Copy" stroke="#1A6FB6" mask="url(#mask-6)" stroke-width="3.52000013" xlink:href="#path-5"></use>
                        <g id="Capa_1" transform="translate(11.000000, 8.000000)" fill="#1A6FB6">
                            <g id="Group">
                                <path d="M29.4231507,30.9511111 L25.9317123,30.9511111 L25.9317123,29.9003761 C25.9317123,27.4940171 25.2889041,25.6367863 24.0210959,24.3801709 C22.4321918,22.805265 20.4439726,22.7751111 20.3003425,22.7751111 L20.2946575,22.7751111 L17.7212329,22.7751111 L17.7212329,21.2206496 C17.7212329,21.1935726 17.7184932,21.1671111 17.7143836,21.1411282 C18.0619863,20.9977436 18.3819178,20.8337778 18.6773973,20.6556581 C19.6513699,21.1441368 20.589589,21.3190427 21.4330822,21.3190427 C23.4743836,21.318906 24.9602055,20.2975726 25.0471918,20.2364444 C25.1838356,20.1403761 25.265137,19.984 25.265137,19.8171624 L25.265137,9.6285812 C25.265137,6.26680342 24.1134932,3.70735043 21.8423288,2.02133333 C20.0864384,0.717880342 17.6523288,0 14.9883562,0 C12.3243836,0 9.89027397,0.717880342 8.13438356,2.02140171 C5.86321918,3.7074188 4.71157534,6.26687179 4.71157534,9.62864957 L4.71157534,19.8172991 C4.71157534,19.9841368 4.79287671,20.1405128 4.92945205,20.2365812 C5.01650685,20.2977094 6.5019863,21.3192479 8.54363014,21.3191795 C9.3869863,21.3191111 10.3256164,21.1441368 11.2993151,20.6557949 C11.5947945,20.8338462 11.9146575,20.9978803 12.2623288,21.141265 C12.2582192,21.1672479 12.2554795,21.1937094 12.2554795,21.2207863 L12.2554795,22.7752479 L9.68575342,22.7752479 C9.5990411,22.7755897 7.57136986,22.778735 5.95561644,24.3803077 C4.68780822,25.6368547 4.045,27.4940855 4.045,29.9005128 L4.045,30.9512479 L0.553561644,30.9512479 C0.269794521,30.9512479 0.0398630137,31.1807863 0.0398630137,31.4640684 C0.0398630137,31.7473504 0.269794521,31.9768889 0.553561644,31.9768889 L29.4231507,31.9768889 C29.7069178,31.9768889 29.9368493,31.7473504 29.9368493,31.4640684 C29.9368493,31.1807179 29.7069178,30.9511111 29.4231507,30.9511111 L29.4231507,30.9511111 Z M11.3443151,23.8379487 C11.5373973,25.4708376 12.8093836,26.7785299 14.4273973,27.0273504 C14.2868493,27.2691282 14.035137,27.3948718 13.8119178,27.4596923 C13.0255479,27.6882051 11.8382877,27.3791453 11.1870548,26.3564444 C10.3380822,25.0232479 11.0596575,24.1184957 11.3443151,23.8379487 L11.3443151,23.8379487 Z M18.6324658,23.8374017 C18.9036986,24.1042735 19.6439726,25.0149744 18.789726,26.3564444 C18.1384247,27.3790769 16.9512329,27.6880684 16.164863,27.4596923 C15.9415753,27.3948718 15.689863,27.2691282 15.5493836,27.0273504 C17.1676027,26.7785299 18.439589,25.4705641 18.6324658,23.8374017 L18.6324658,23.8374017 Z M9.82328767,17.8210598 C9.01952055,16.5895385 8.77760274,15.3702564 8.74054795,15.1603419 L8.74054795,9.54953846 C8.93171233,9.55849573 9.16568493,9.56540171 9.43513699,9.56540171 C10.4719863,9.56540171 12.0612329,9.46352137 13.7441781,8.97839316 C15.4773288,8.47876923 16.9465753,7.68205128 18.1228767,6.60533333 C18.5485616,7.4162735 19.4623973,8.67815385 21.2361644,9.36109402 L21.2361644,15.1602735 C21.1986301,15.3727863 20.9563699,16.5908376 20.1534247,17.8211282 C19.0021233,19.585094 17.280411,20.5550769 15.0360959,20.7044786 L14.9405479,20.7044786 C12.6963014,20.5550085 10.974589,19.5850256 9.82328767,17.8210598 L9.82328767,17.8210598 Z M5.7389726,19.5335385 L5.7389726,9.6285812 C5.7389726,6.60882051 6.75116438,4.3262906 8.74746575,2.84430769 C10.3273288,1.67152137 12.5437671,1.02564103 14.9883562,1.02564103 C17.4329452,1.02564103 19.6493836,1.67152137 21.2292466,2.84437607 C23.2255479,4.32635897 24.2377397,6.60888889 24.2377397,9.62864957 L24.2377397,19.5316239 C23.6175342,19.8841026 21.7518493,20.757265 19.6400685,19.9584957 C20.2425342,19.4391111 20.6985616,18.8704957 21.0376712,18.3448205 C22.0262329,16.8125128 22.2492466,15.3378462 22.2581507,15.2758291 C22.2617123,15.2514872 22.2634932,15.2268718 22.2634932,15.2022564 L22.2634932,8.9982906 C22.2634932,8.77531624 22.1191781,8.57791453 21.9064384,8.50988034 C19.4578767,7.72704274 18.8156164,5.65340171 18.7900685,5.56752137 C18.7387671,5.38960684 18.5953425,5.25305983 18.414863,5.21039316 C18.2342466,5.16765812 18.044863,5.22550427 17.9191096,5.3614359 C16.8207534,6.54837607 14.2580822,8.53969231 9.43506849,8.53969231 C8.73273973,8.53969231 8.29089041,8.4894359 8.28684932,8.48895726 C8.14068493,8.47138462 7.995,8.51774359 7.88547945,8.61504274 C7.77582192,8.71234188 7.71308219,8.85182906 7.71308219,8.99822222 L7.71308219,15.202188 C7.71308219,15.2268034 7.71486301,15.2514188 7.71842466,15.2757607 C7.72739726,15.3377778 7.95041096,16.8124444 8.93890411,18.3447521 C9.27808219,18.8704957 9.73431507,19.4393162 10.3370548,19.9588376 C8.21171233,20.7675214 6.35958904,19.8915556 5.7389726,19.5335385 L5.7389726,19.5335385 Z M14.8904795,21.7289573 C14.9015753,21.7297094 14.9126027,21.7300513 14.9236986,21.7300513 L15.0529452,21.7300513 C15.0640411,21.7300513 15.0750685,21.7297094 15.0861644,21.7289573 C15.6682877,21.6912821 16.2024658,21.6036923 16.6938356,21.4781538 L16.6938356,23.288 C16.6938356,23.5712821 16.9237671,23.8008205 17.2075342,23.8008205 L17.6016438,23.8008205 C17.4102055,25.0690598 16.3113014,26.0444444 14.9883562,26.0444444 C13.665411,26.0444444 12.5665068,25.0689915 12.3750685,23.8008205 L12.7691781,23.8008205 C13.0529452,23.8008205 13.2828767,23.5712821 13.2828767,23.288 L13.2828767,21.4781538 C13.7742466,21.6036923 14.3083562,21.6912821 14.8904795,21.7289573 L14.8904795,21.7289573 Z M5.07246575,29.9003761 C5.07246575,23.8711111 9.49212329,23.8008889 9.68212329,23.8008205 L10.1028082,23.8008205 C9.69547945,24.5548034 9.52178082,25.6529915 10.3200685,26.9066667 C11.0453425,28.0456752 12.2639041,28.5513846 13.3084932,28.5513162 C13.5887671,28.5513162 13.8567123,28.5149402 14.0989726,28.4445812 C14.4547945,28.3411966 14.7541781,28.1731282 14.9884247,27.954735 C15.2226712,28.1731282 15.5220548,28.3411966 15.8778767,28.4445812 C16.1202055,28.5149402 16.3879452,28.5513162 16.6683562,28.5513162 C17.7128767,28.5513162 18.9315753,28.0455385 19.6567808,26.9066667 C20.4550685,25.6529915 20.2813699,24.5548034 19.8740411,23.8008205 L20.2983562,23.8008205 L20.2989726,23.8008205 C20.3394521,23.8008205 21.9912329,23.8135385 23.2972603,25.1080342 C24.3636301,26.1649231 24.9043151,27.7772991 24.9043151,29.9003761 L24.9043151,30.9511111 L5.07246575,30.9511111 L5.07246575,29.9003761 L5.07246575,29.9003761 Z" id="Shape"></path>
                                <ellipse id="Oval" cx="11.3419863" cy="11.8972991" rx="0.613150685" ry="0.612102564"></ellipse>
                                <ellipse id="Oval" cx="18.6346575" cy="11.8972991" rx="0.613082192" ry="0.612034188"></ellipse>
                                <path d="M14.8993151,15.2054701 L15.0773973,15.2054701 C15.6093836,15.2054701 16.0440411,14.7870769 16.0717123,14.2627692 C16.0734247,14.2454701 16.0743836,14.2279658 16.0743836,14.210188 L16.0743836,12.9918632 C16.0743836,12.7085812 15.8444521,12.4790427 15.5606849,12.4790427 C15.2769178,12.4790427 15.0469863,12.7085812 15.0469863,12.9918632 L15.0469863,14.1798291 L14.9289041,14.1798291 C14.9131507,13.9107009 14.689589,13.6973675 14.4160959,13.6973675 C14.1323973,13.6973675 13.9023973,13.926906 13.9023973,14.210188 C13.9023973,14.7590427 14.349589,15.2054701 14.8993151,15.2054701 L14.8993151,15.2054701 Z" id="Shape"></path>
                                <path d="M18.0954795,16.5591795 C17.874589,16.3814017 17.5511644,16.4158632 17.3731507,16.6364444 C17.3676712,16.6432137 16.7506164,17.3159658 15.114863,17.3159658 C13.4166438,17.3159658 12.5882192,16.6129231 12.5468493,16.5767521 C12.3371233,16.3885812 12.0143151,16.4043761 11.8240411,16.6127863 C11.6328767,16.8220855 11.6478767,17.1464615 11.8575342,17.3372308 C11.9025342,17.3782564 12.9854795,18.3415385 15.114863,18.3415385 C17.2536301,18.3416068 18.085137,17.3889231 18.1728767,17.2802735 C18.3510274,17.0598291 18.3163699,16.7370256 18.0954795,16.5591795 Z" id="Shape"></path>
                            </g>
                        </g>
                    </g>
                    <g id="man-2-copy" transform="translate(58.000000, 56.000000)" fill="#1A6FB6">
                        <g id="Capa_1">
                            <g id="Group">
                                <path d="M55,77.999826 L55,75.326008 C55,69.202916 53.3846563,64.4771061 50.1988922,61.279764 C46.1389319,57.205184 41.042983,57.1956148 40.8343739,57.1956148 L34.3676634,57.1956148 L34.3676634,53.0309101 C38.498537,51.3006185 41.1102818,48.420105 42.7017009,45.9223609 C45.185905,42.0233329 45.7461547,38.2709752 45.7687024,38.1131698 C45.7776526,38.0510568 45.7821277,37.6465391 45.7821277,37.6465391 C46.6888545,37.4205312 47.4776792,36.9476371 48.1040229,36.2466471 C49.9315902,34.2010928 49.8255645,30.9738251 49.6950977,29.6812825 C49.5957846,28.6975652 49.1553302,27.8720013 48.4215838,27.2938456 C48.2775196,27.1804066 48.1265706,27.0800167 47.9713186,26.9916317 L47.9713186,21.4955855 C47.9713186,14.6509733 44.8891705,9.9416921 42.3032437,7.19636579 C39.5133549,4.23425282 36.7250153,2.88429484 36.6076296,2.82827133 C36.1976404,2.63253699 35.7167379,2.66855211 35.340312,2.92257178 L33.915677,3.88280094 C28.6050947,-0.663455263 23.3229123,0.0223978545 23.0902064,0.0551072371 C22.452847,0.145579997 21.9786572,0.696767891 21.9786572,1.34730183 L21.9786572,2.67899127 C17.1918353,2.14328814 14.0012518,3.71751417 13.8544336,3.79163224 C13.5428969,3.94908964 13.3076093,4.22711939 13.2017556,4.56256455 C13.095902,4.8980097 13.1287769,5.26233655 13.2926348,5.57307568 L13.9787041,6.87327364 C14.1602904,7.6323749 13.7002144,8.14754767 12.0055235,9.66209648 C11.2278865,10.3571709 10.3464614,11.1448058 9.43388255,12.1596666 C6.63986293,15.266362 7.06620351,24.1841924 7.26362484,26.8545307 C7.01439547,26.9728413 6.77256724,27.1169017 6.54760675,27.2940195 C5.81386033,27.8720013 5.37340594,28.6975652 5.27409285,29.6816305 C5.14379821,30.9741731 5.03777246,34.2014408 6.86533978,36.2468211 C7.49856828,36.9556404 8.29840867,37.4306224 9.21770017,37.6534986 L9.21770017,37.9261348 C9.25367319,38.2711491 9.81409504,42.0235069 12.2982991,45.9225349 C13.8897182,48.420279 16.5012909,51.3007925 20.6323366,53.031084 L20.6323366,57.1957888 L14.1747485,57.1957888 C13.9606315,57.1989205 8.86141232,57.2046621 4.80110783,61.279938 C1.61534369,64.4772801 -7.10542736e-15,69.2032639 -7.10542736e-15,75.326182 L-7.10542736e-15,78 L55,77.999826 Z M40.7067433,60 L40.7082547,60 C40.8075055,60 44.8574732,60.0320156 48.0596951,63.2907224 C50.6743056,65.9512881 52,70.010385 52,75.3547536 L52,78 L39,78 L42.926534,73.9443456 C43.2985144,73.5601584 43.3972613,72.9790579 43.1737372,72.4886683 L41.8300736,69.5403064 L44.1689317,65.8233978 C44.4977522,65.3008205 44.4164707,64.6121407 43.9754683,64.1852659 L39.6524351,60.0001721 L40.7067433,60.0001721 L40.7067433,60 Z M15.3468452,69.1051873 L13,65.6727603 L16,63 L16,75 L14.0541086,73.1503994 L15.4370873,70.3575733 C15.6373808,69.9530867 15.6034483,69.480263 15.3468452,69.1051873 L15.3468452,69.1051873 Z M19,63 C20.7084847,66.3129143 24.1201653,68.5791917 28.0439859,68.5791917 C31.9004613,68.5791917 35.2634842,66.3909813 37,63.1704913 L37,78 L19,78 L19,63 L19,63 Z M39.5627293,70.3574672 L40.9458914,73.150253 L39,75 L39,63 L42,65.6727218 L39.6529714,69.1050993 C39.3965517,69.4801695 39.3626192,69.9529865 39.5627293,70.3574672 L39.5627293,70.3574672 Z M46.290943,34.6413859 C46.201982,34.7839028 46.1047543,34.9014168 46,35 L46,29 C46.1019164,29.0169663 46.2038328,29.0408977 46.3010606,29.0748303 C46.3542397,29.1055483 46.4095164,29.1298369 46.4668907,29.1457316 C46.5773207,29.2016311 46.6771396,29.2718181 46.7565998,29.362186 C46.8450672,29.4627337 46.9388402,29.6136445 46.9640108,29.9694011 C47.0738239,31.5304798 46.9548803,33.5773306 46.290943,34.6413859 L46.290943,34.6413859 Z M11.6587286,14.1637868 C12.4837524,13.2646495 13.3162418,12.5354658 14.0508117,11.891947 C15.8499957,10.3159194 17.5493504,8.82744889 16.7762377,6.33886657 C16.7517579,6.2600824 16.7198125,6.18387849 16.6807489,6.11111493 L16.6283168,6.01375283 C18.0014468,5.63256126 20.4042941,5.2331358 23.4366735,5.82315704 C23.8189762,5.89746876 24.2143002,5.79838647 24.5148297,5.55360506 C24.8153592,5.30847962 24.9896698,4.94294168 24.9896698,4.55727765 L24.9896698,3 C25.492983,3.02528662 26.1416129,3.09512587 26.8872942,3.260091 C29.265488,3.78594958 31.4617321,4.98026955 33.4150872,6.8101955 C33.855725,7.22338239 34.5267514,7.27963223 35.0319743,6.94626162 L36.655806,5.87373029 C38.8423276,7.1377175 46,12.0139076 46,21.6589488 L46,23 C45.9984375,22.9986239 45.9970485,22.9969037 45.9956596,22.9955275 L43.2575595,20.4427826 L43.2575595,17.4422751 C43.2575595,17.0552349 43.0822072,16.6888369 42.7799415,16.4437115 C42.4398275,16.1681389 39.1353916,13.7507719 27.9755201,13.7507719 C16.8158222,13.7507719 13.5112127,16.1681389 13.1710987,16.4437115 C12.868833,16.6888369 12.6934807,17.055407 12.6934807,17.4422751 L12.6934807,20.4426105 L10,22.9538992 C10.0095489,19.3623384 10.4203247,15.5136109 11.6587286,14.1637868 L11.6587286,14.1637868 Z M8.69388062,34.6230543 C8.04420713,33.5633728 7.92767647,31.5245931 8.0352711,29.9698479 C8.0597848,29.6153162 8.15156024,29.4651783 8.23814312,29.3648492 C8.42133172,29.1526283 8.7122357,29.0457173 9,29 L9,35 C8.88926569,34.8982478 8.78698438,34.7747932 8.69388062,34.6230543 L8.69388062,34.6230543 Z M14.6861512,44.6261184 C12.6920986,41.4766998 12.0919286,38.3587562 12,37.8215837 L12,24.3266983 L14.71113,21.7011628 C14.9670348,21.4532102 15.1121495,21.1076851 15.1121495,20.7460729 L15.1121495,17.8823769 C16.2897196,17.2965931 19.7721325,16 27.5201359,16 C35.2681393,16 38.7507222,17.2965931 39.9282923,17.8823769 L39.9282923,20.7462478 C39.9282923,21.10786 40.073407,21.453385 40.3293118,21.7013377 L43,24.2875295 L43,37.8214088 C42.9068819,38.3647014 42.3062022,41.4796724 40.3138488,44.6262932 C37.4576041,49.1373532 33.1862362,51.6181039 27.6181818,52 L27.3814783,52 C21.8137638,51.6179291 17.5423959,49.1371783 14.6861512,44.6261184 L14.6861512,44.6261184 Z M21.7827146,59.7373607 C22.513587,59.7373607 23.1061194,59.1701948 23.1061194,58.4706114 L23.1061194,54 C24.3720003,54.3101002 25.7483413,54.5266299 27.2480237,54.6195248 C27.2766093,54.6212138 27.3050184,54.6222272 27.3336039,54.6222272 L27.6662196,54.6222272 C27.6948052,54.6222272 27.7232143,54.6213827 27.7517998,54.6195248 C29.2516587,54.526461 30.6278233,54.3101002 31.8937041,54 L31.8937041,58.4706114 C31.8937041,59.1701948 32.4860601,59.7373607 33.217109,59.7373607 L35,59.7373607 C34.4960474,63.2692264 31.3260517,66 27.5,66 C23.6741248,66 20.5039526,63.2692264 20,59.7373607 L21.7827146,59.7373607 L21.7827146,59.7373607 Z M14.3758029,60 L15.3438305,60 L10.9926928,64.1851338 C10.5488233,64.6120127 10.4668444,65.300699 10.7978026,65.8232813 L13.1516968,69.5402255 L11.7992979,72.4887877 C11.5743206,72.979182 11.6737095,73.560288 12.0481082,73.9443068 L16,78 L3,78 L3,75.3549004 C3,60.1771203 13.9069172,60 14.3758029,60 Z" id="Shape"></path>
                                <circle id="Oval" cx="18.5" cy="27.5" r="1.5"></circle>
                                <circle id="Oval" cx="37.5" cy="27.5" r="1.5"></circle>
                                <path d="M28.1605087,37 L28.8394913,37 C30.5365089,37 31.9216896,35.6062498 31.9931522,33.8664262 C31.9975418,33.8204165 32,33.7738611 32,33.7265784 L32,26.3639257 C32,25.610675 31.4105651,25 30.6831214,25 C29.9556776,25 29.3662428,25.610675 29.3662428,26.3639257 L29.3662428,33.7265784 C29.3662428,34.0273694 29.1299069,34.2721486 28.8394913,34.2721486 L28.1605087,34.2721486 C27.8700931,34.2721486 27.6337572,34.0273694 27.6337572,33.7265784 C27.6337572,32.9733277 27.0441468,32.3626527 26.3168786,32.3626527 C25.5896105,32.3626527 25,32.9733277 25,33.7265784 C25,35.5316885 26.4176637,37 28.1605087,37 L28.1605087,37 Z" id="Shape"></path>
                                <path d="M36.7065251,43.2013137 C37.1656186,42.6198318 37.0763063,41.7686143 36.5070727,41.2998226 C35.9378391,40.8306703 35.1045517,40.922265 34.6456347,41.5033864 C34.6315142,41.5214168 33.0413668,43.2954327 28.8260376,43.2954327 C24.4470868,43.2954327 22.3124167,41.439198 22.2081014,41.3459806 C21.6679913,40.8503235 20.8359395,40.8917936 20.3456043,41.4411813 C19.8529746,41.9930934 19.8916295,42.8484579 20.431916,43.3515074 C20.5480573,43.4596901 23.3386257,46 28.8260376,46 C34.3376308,46.0001803 36.4804202,43.4878176 36.7065251,43.2013137 L36.7065251,43.2013137 Z" id="Shape"></path>
                            </g>
                        </g>
                    </g>
                    <circle id="Oval-2" stroke="#1A6FB6" stroke-width="1.20000005" fill="#1A6FB6" cx="102" cy="155" r="7"></circle>
                    <circle id="Oval-2-Copy" stroke="#1A6FB6" stroke-width="1.20000005" fill="#1A6FB6" cx="132" cy="155" r="7"></circle>
                    <circle id="Oval-2-Copy-2" fill="#1A6FB6" cx="162" cy="155" r="7"></circle>
                    <g id="Chat-Item" transform="translate(161.000000, 63.000000)">
                        <use id="Chat-Bg" stroke="#1A6FB6" mask="url(#mask-8)" stroke-width="4" fill="#FFFFFF" transform="translate(43.000000, 13.500000) scale(-1, 1) translate(-43.000000, -13.500000) " xlink:href="#path-7"></use>
                        <g id="Details" transform="translate(43.500000, 10.500000) scale(-1, 1) translate(-43.500000, -10.500000) translate(9.000000, 6.000000)" fill="#1A6FB6">
                            <circle id="Avatar" cx="4.5" cy="4.5" r="4.5"></circle>
                            <rect id="text" x="16" y="1" width="53" height="2"></rect>
                            <rect id="text" x="31" y="7" width="38" height="2"></rect>
                        </g>
                    </g>
                    <g id="Chat-Item-Copy" transform="translate(204.000000, 42.500000) scale(-1, 1) translate(-204.000000, -42.500000) translate(161.000000, 29.000000)" fill="#1A6FB6">
                        <use id="Chat-Bg" stroke="#1A6FB6" mask="url(#mask-10)" stroke-width="4" fill-opacity="0.2" transform="translate(43.000000, 13.500000) scale(-1, 1) translate(-43.000000, -13.500000) " xlink:href="#path-9"></use>
                        <g id="Details" transform="translate(44.568807, 10.500000) scale(-1, 1) translate(-44.568807, -10.500000) translate(9.568807, 6.000000)">
                            <circle id="Avatar" cx="5.06880734" cy="4.5" r="4.5"></circle>
                            <rect id="text" x="16.5688073" y="1" width="53" height="2"></rect>
                            <rect id="text" x="16.5688073" y="7" width="38" height="2"></rect>
                        </g>
                    </g>
                    <g id="logo_matchtalent_blue-copy" transform="translate(211.000000, 9.000000)" fill="#1A6FB6">
                        <g id="logo-matchtalent" transform="translate(23.000000, 5.000000) scale(1, -1) translate(-23.000000, -5.000000) ">
                            <polygon id="path20" points="3.7029463 2.88867717 3.00190202 2.88867717 3.00190202 6.98751305 4.09517939 6.98751305 5.34865254 4.41333322 6.60255461 6.98751305 7.69004177 6.98751305 7.69004177 2.88867717 6.98878304 2.88867717 6.98878304 6.09015857 5.53908611 3.24656076 5.14685302 3.24656076 3.7029463 6.09015857"></polygon>
                            <path d="M10.6443354,4.04994698 L10.6443354,4.31365068 L9.89568274,4.31365068 C9.4165965,4.31365068 9.17683894,4.16507925 9.17683894,3.86772478 C9.17683894,3.71534383 9.23602775,3.59894171 9.35504871,3.51894171 C9.4736408,3.43894171 9.6391979,3.39894171 9.85129113,3.39894171 C10.0631699,3.39894171 10.2482422,3.45756605 10.4069368,3.57481473 C10.5649881,3.69185176 10.6443354,3.85015863 10.6443354,4.04994698 L10.6443354,4.04994698 L10.6443354,4.04994698 Z M11.3097806,2.88867717 L10.7037387,2.88867717 L10.7037387,3.30497346 C10.442107,2.99597876 10.0919065,2.84169305 9.65227948,2.84169305 C9.32330979,2.84169305 9.05116994,2.93375654 8.83521656,3.1172486 C8.61904874,3.3009523 8.51117927,3.54645494 8.51117927,3.8531216 C8.51117927,4.16021154 8.62634011,4.38984116 8.85601843,4.54243375 C9.08569674,4.69460306 9.396438,4.77100517 9.78867109,4.77100517 L10.6503401,4.77100517 L10.6503401,4.88846549 C10.6503401,5.30264537 10.4165872,5.50984113 9.94929579,5.50984113 C9.65613962,5.50984113 9.35118857,5.40423267 9.03422821,5.19322738 L8.73699745,5.60359775 C9.1212958,5.90476176 9.55727714,6.0550263 10.0442981,6.0550263 C10.4165872,6.0550263 10.7206804,5.96232789 10.9565778,5.77671943 C11.1920463,5.59089933 11.3097806,5.29862421 11.3097806,4.89989406 L11.3097806,2.88867717 L11.3097806,2.88867717 Z" id="path22"></path>
                            <path d="M13.021967,5.48063478 L13.021967,3.8973544 C13.021967,3.74857133 13.0614263,3.63026446 13.1405591,3.54264541 C13.2201209,3.45439144 13.3307782,3.41058192 13.4733889,3.41058192 C13.6159997,3.41058192 13.7526057,3.47894171 13.8832071,3.61587292 L14.1568481,3.15259251 C13.9228808,2.94518511 13.6646803,2.84169305 13.381389,2.84169305 C13.0980976,2.84169305 12.8564099,2.93862427 12.6565405,3.13206341 C12.4562421,3.32550256 12.3563074,3.58645494 12.3563074,3.91492054 L12.3563074,5.48063478 L11.9584985,5.48063478 L11.9584985,6.00825383 L12.3563074,6.00825383 L12.3563074,6.98751305 L13.021967,6.98751305 L13.021967,6.00825383 L13.8536127,6.00825383 L13.8536127,5.48063478 L13.021967,5.48063478 L13.021967,5.48063478 Z" id="path24"></path>
                            <path d="M16.0882047,2.84169305 C15.6487921,2.84169305 15.270284,2.98941792 14.9533236,3.28444437 C14.6363633,3.57968244 14.478312,3.9652909 14.478312,4.44253957 C14.478312,4.91936495 14.6436547,5.30730146 14.9741255,5.60677235 C15.3050253,5.90560832 15.7081954,6.0550263 16.1834215,6.0550263 C16.658862,6.0550263 17.0609599,5.8929099 17.3895008,5.56825383 L16.997482,5.09333321 C16.7238411,5.32804219 16.4489134,5.44550251 16.1714121,5.44550251 C15.8943399,5.44550251 15.6537246,5.35428559 15.449566,5.17269829 C15.245622,4.9906877 15.1435427,4.756402 15.1435427,4.46878295 C15.1435427,4.18158719 15.2443353,3.93820095 15.4465637,3.73904752 C15.6487921,3.53947081 15.8969134,3.43978827 16.1922141,3.43978827 C16.4873002,3.43978827 16.7658736,3.57269832 17.027291,3.8389417 L17.4193096,3.41650786 C17.0350113,3.03322744 16.591524,2.84169305 16.0882047,2.84169305" id="path26"></path>
                            <path d="M18.774862,4.57756602 L18.774862,2.88867717 L18.1092023,2.88867717 L18.1092023,7.23386225 L18.774862,7.23386225 L18.774862,5.43936494 C18.8698643,5.63089933 19.0133328,5.78116387 19.205482,5.89100514 C19.3976313,6.00042313 19.6047921,6.0550263 19.8265356,6.0550263 C20.1829552,6.0550263 20.471179,5.94751308 20.6909925,5.73269827 C20.9105915,5.51767183 21.0208199,5.206984 21.0208199,4.80021152 L21.0208199,2.88867717 L20.3551604,2.88867717 L20.3551604,4.60084644 C20.3551604,5.17566125 20.1134727,5.462857 19.6303118,5.462857 C19.4006335,5.462857 19.2007641,5.38772473 19.0302746,5.2370369 C18.8599995,5.08677237 18.774862,4.86666654 18.774862,4.57756602" id="path28"></path>
                            <polygon id="path30" points="26.7552721 6.19576705 26.7552721 2.88867717 25.8284096 2.88867717 25.8284096 6.19576705 24.6521392 6.19576705 24.6521392 6.98751305 27.9321858 6.98751305 27.9321858 6.19576705"></polygon>
                            <path d="M29.9587592,4.09079356 L29.9587592,4.24296286 L29.4003256,4.24296286 C29.0439061,4.24296286 28.8656963,4.13354487 28.8656963,3.91492054 C28.8656963,3.80148138 28.9079434,3.71449725 28.9930809,3.65396816 C29.0782184,3.59322743 29.1998128,3.56317451 29.3587219,3.56317451 C29.5169876,3.56317451 29.6568104,3.61079356 29.777547,3.70687821 C29.8984981,3.80232795 29.9587592,3.93015863 29.9587592,4.09079356 L29.9587592,4.09079356 L29.9587592,4.09079356 Z M30.8558128,2.88867717 L30.0181624,2.88867717 L30.0181624,3.26984119 C29.7882697,2.98433856 29.5039061,2.84169305 29.1655005,2.84169305 C28.8266659,2.84169305 28.5427312,2.93862427 28.312624,3.13206341 C28.0831602,3.32550256 27.9682138,3.58370362 27.9682138,3.90603165 C27.9682138,4.22857132 28.0872347,4.47005279 28.3250623,4.63026443 C28.5622463,4.79047606 28.8871414,4.87047606 29.2991041,4.87047606 L29.9647638,4.87047606 L29.9647638,4.88846549 C29.9647638,5.22455013 29.784624,5.39238083 29.4241298,5.39238083 C29.2690809,5.39238083 29.1060971,5.3623279 28.9334631,5.30158717 C28.7610435,5.24105806 28.6160739,5.16571416 28.4970529,5.07576706 L28.0988152,5.64465594 C28.5187126,5.94560832 28.9984421,6.09629614 29.5369317,6.09629614 C29.9250901,6.09629614 30.2422649,6.00042313 30.4875984,5.80867711 C30.7333606,5.61735435 30.8558128,5.31428559 30.8558128,4.89989406 L30.8558128,2.88867717 L30.8558128,2.88867717 Z" id="path32"></path>
                            <polygon id="path34" points="32.562209 2.88867717 31.67116 2.88867717 31.67116 7.23957654 32.562209 7.23957654"></polygon>
                            <path d="M35.3192066,5.21650781 C35.1967544,5.31809511 35.0470667,5.3691004 34.870787,5.3691004 C34.6945073,5.3691004 34.5330248,5.31640198 34.3867684,5.21079352 C34.2402975,5.10518506 34.1547311,4.96253956 34.1313558,4.78285702 L35.5330154,4.78285702 C35.5139291,4.9701586 35.4425165,5.11470887 35.3192066,5.21650781 L35.3192066,5.21650781 L35.3192066,5.21650781 Z M36.1752997,3.34603167 C35.8143767,3.00994702 35.3919059,2.84169305 34.9066006,2.84169305 C34.4210807,2.84169305 34.0202695,2.98941792 33.7033091,3.28444437 C33.3863488,3.57968244 33.2278687,3.975238 33.2278687,4.47195756 C33.2278687,4.96846549 33.3891367,5.36338611 33.7118873,5.65650779 C34.0346378,5.94941784 34.4163628,6.09629614 34.8557754,6.09629614 C35.2960458,6.09629614 35.6691926,5.96529086 35.9758592,5.70328029 C36.2827403,5.4412697 36.4362881,5.08148135 36.4362881,4.62433851 L36.4362881,4.15555544 L34.1073371,4.15555544 C34.135216,3.98328032 34.2259293,3.84253959 34.3807637,3.73290995 C34.5351693,3.62349197 34.7095189,3.56888879 34.9035982,3.56888879 C35.2162695,3.56888879 35.4742556,3.67259251 35.6756262,3.87978827 L36.1752997,3.34603167 L36.1752997,3.34603167 Z" id="path36"></path>
                            <path d="M37.9704792,4.64783057 L37.9704792,2.88867717 L37.0785725,2.88867717 L37.0785725,6.04359773 L37.9704792,6.04359773 L37.9704792,5.69185171 C38.2394022,5.9612697 38.5426378,6.09629614 38.8791133,6.09629614 C39.2160176,6.09629614 39.4980224,5.97883583 39.725985,5.74412684 C39.9535187,5.50984113 40.0676074,5.1970369 40.0676074,4.80613744 L40.0676074,2.88867717 L39.1765585,2.88867717 L39.1765585,4.671111 C39.1765585,5.15597871 38.9964186,5.39851838 38.6359245,5.39851838 C38.4570713,5.39851838 38.3020224,5.33481468 38.1692764,5.20783056 C38.0363161,5.08084643 37.9704792,4.89417978 37.9704792,4.64783057" id="path38"></path>
                            <path d="M41.8928101,5.41015859 L41.8928101,3.9968253 C41.8928101,3.8757671 41.9243345,3.78095229 41.9873835,3.71238086 C42.0508614,3.64402108 42.1261341,3.609947 42.2136306,3.609947 C42.3800456,3.609947 42.5205117,3.68402108 42.6354582,3.83259249 L42.967859,3.21714278 C42.6903579,2.96677241 42.3989173,2.84169305 42.0916073,2.84169305 C41.7845117,2.84169305 41.525239,2.94137559 41.3133603,3.14074067 C41.101267,3.34010573 40.9951131,3.61164013 40.9951131,3.9557671 L40.9951131,5.41015859 L40.6211085,5.41015859 L40.6211085,6.04359773 L40.9951131,6.04359773 L40.9951131,6.98751305 L41.8928101,6.98751305 L41.8928101,6.04359773 L42.665267,6.04359773 L42.665267,5.41015859 L41.8928101,5.41015859 L41.8928101,5.41015859 Z" id="path40"></path>
                            <polygon id="path42" points="22.4537897 9.92232779 22.4537897 0.753015854 0.763235411 0.753015854 0.763235411 9.16931194 21.6907687 9.16931194 21.6907687 9.92232779 0 9.92232779 0 0 23.2170251 0 23.2170251 9.16931194 45.2071691 9.16931194 45.2071691 0.753015854 23.9800461 0.753015854 23.9800461 0 45.9697611 0 45.9697611 9.92232779"></polygon>
                        </g>
                    </g>
                </g>
            </g>
        </g>
    </g>
</svg>