<?xml version="1.0" encoding="UTF-8"?>
<svg width="266px" height="209px" viewBox="0 0 266 209" version="1.1" xmlns="http://www.w3.org/2000/svg" xmlns:xlink="http://www.w3.org/1999/xlink">
    <!-- Generator: Sketch 40.3 (33839) - http://www.bohemiancoding.com/sketch -->
    <title>videoconferencia_1</title>
    <desc>Created with Sketch.</desc>
    <defs>
        <rect id="path-1" x="0" y="0" width="266" height="179.458647" rx="5.28000019"></rect>
        <mask id="mask-2" maskContentUnits="userSpaceOnUse" maskUnits="objectBoundingBox" x="0" y="0" width="266" height="179.458647" fill="white">
            <use xlink:href="#path-1"></use>
        </mask>
    </defs>
    <g id="Page-1" stroke="none" stroke-width="1" fill="none" fill-rule="evenodd">
        <g id="Desktop-HD" transform="translate(-896.000000, -613.000000)">
            <g id="screen-1" transform="translate(288.000000, 613.000000)">
                <g id="videoconferencia_1" transform="translate(608.000000, 0.000000)">
                    <g id="desktop" stroke="#1A6FB6">
                        <use id="Rectangle-5" mask="url(#mask-2)" stroke-width="3.52000013" xlink:href="#path-1"></use>
                        <ellipse id="Oval-6" cx="13.2119205" cy="13.1954887" rx="4.40397351" ry="4.39849624"></ellipse>
                        <ellipse id="Oval-7" cx="30.8278146" cy="13.1954887" rx="4.40397351" ry="4.39849624"></ellipse>
                        <ellipse id="Oval-8" cx="48.4437086" cy="13.1954887" rx="4.40397351" ry="4.39849624"></ellipse>
                        <path d="M133.880795,179.458647 L133.880795,207.506836" id="Line-3" stroke-width="1.76000006" stroke-linecap="square"></path>
                        <path d="M99,207.759398 L169.463576,207.759398" id="Line-4" stroke-width="1.76000006" stroke-linecap="square"></path>
                    </g>
                    <g id="comment_1-copy" transform="translate(56.000000, 82.187817)" fill="#1A6FB6">
                        <g id="text" transform="translate(36.763996, 6.024919)">
                            <rect id="Rectangle-473" x="0" y="0" width="30.636663" height="2.83525611"></rect>
                            <rect id="Rectangle-473-Copy-15" x="34.0407366" y="0" width="10.212221" height="2.83525611"></rect>
                            <rect id="Rectangle-473-Copy" opacity="0.5" x="0" y="7.08814029" width="85.1018415" height="2.83525611"></rect>
                            <rect id="Rectangle-473-Copy-12" opacity="0.5" x="0" y="14.1762806" width="85.1018415" height="2.83525611"></rect>
                        </g>
                        <rect id="Rectangle-471" opacity="0.2" x="0" y="0" width="29.9558482" height="31.1878173" rx="2.60000014"></rect>
                        <path d="M18.7224051,12.227042 C18.7224051,14.3357637 17.1735516,15.9483156 15.1481278,15.9483156 C13.122704,15.9483156 11.5738504,14.3357637 11.5738504,12.227042 C11.5738504,10.1183203 13.122704,8.50576834 15.1481278,8.50576834 C17.1735516,8.50576834 18.7224051,10.1183203 18.7224051,12.227042 L18.7224051,12.227042 Z M7.82936942,21.7398449 C7.82936942,19.1466228 12.5950725,17.7203507 14.9779241,17.7203507 C17.3607757,17.7203507 22.1264788,19.1466228 22.1264788,21.7398449 L22.1264788,23.0364559 L7.82936942,23.0364559 L7.82936942,21.7398449 L7.82936942,21.7398449 Z" id="user" opacity="0.8"></path>
                    </g>
                    <g id="comment_1-copy-2" transform="translate(56.230088, 123.375635)" fill="#1A6FB6">
                        <g id="text" transform="translate(36.763996, 6.024919)">
                            <rect id="Rectangle-473" x="0" y="0" width="30.636663" height="2.83525611"></rect>
                            <rect id="Rectangle-473-Copy-15" x="34.0407366" y="0" width="10.212221" height="2.83525611"></rect>
                            <rect id="Rectangle-473-Copy" opacity="0.5" x="0" y="7.08814029" width="85.1018415" height="2.83525611"></rect>
                            <rect id="Rectangle-473-Copy-12" opacity="0.5" x="0" y="14.1762806" width="85.1018415" height="2.83525611"></rect>
                        </g>
                        <rect id="Rectangle-471" opacity="0.2" x="0" y="0" width="29.9558482" height="31.1878173" rx="2.60000014"></rect>
                        <path d="M18.7224051,12.227042 C18.7224051,14.3357637 17.1735516,15.9483156 15.1481278,15.9483156 C13.122704,15.9483156 11.5738504,14.3357637 11.5738504,12.227042 C11.5738504,10.1183203 13.122704,8.50576834 15.1481278,8.50576834 C17.1735516,8.50576834 18.7224051,10.1183203 18.7224051,12.227042 L18.7224051,12.227042 Z M7.82936942,21.7398449 C7.82936942,19.1466228 12.5950725,17.7203507 14.9779241,17.7203507 C17.3607757,17.7203507 22.1264788,19.1466228 22.1264788,21.7398449 L22.1264788,23.0364559 L7.82936942,23.0364559 L7.82936942,21.7398449 L7.82936942,21.7398449 Z" id="user" opacity="0.8"></path>
                    </g>
                    <g id="comment_1-copy-3" transform="translate(48.000000, 33.000000)" fill="#1A6FB6">
                        <rect id="Rectangle-471-Copy-2" opacity="0.133491848" x="0" y="0" width="170" height="46" rx="2.60000014"></rect>
                        <g id="text" transform="translate(44.763996, 14.024919)">
                            <rect id="Rectangle-473" x="0" y="0" width="30.636663" height="2.83525611"></rect>
                            <rect id="Rectangle-473-Copy-15" x="34.0407366" y="0" width="10.212221" height="2.83525611"></rect>
                            <rect id="Rectangle-473-Copy" opacity="0.5" x="0" y="7.08814029" width="85.1018415" height="2.83525611"></rect>
                            <rect id="Rectangle-473-Copy-12" opacity="0.5" x="0" y="14.1762806" width="85.1018415" height="2.83525611"></rect>
                        </g>
                        <rect id="Rectangle-471" opacity="0.2" x="8" y="8" width="29.9558482" height="31.1878173" rx="2.60000014"></rect>
                        <path d="M26.7224051,20.227042 C26.7224051,22.3357637 25.1735516,23.9483156 23.1481278,23.9483156 C21.122704,23.9483156 19.5738504,22.3357637 19.5738504,20.227042 C19.5738504,18.1183203 21.122704,16.5057683 23.1481278,16.5057683 C25.1735516,16.5057683 26.7224051,18.1183203 26.7224051,20.227042 L26.7224051,20.227042 Z M15.8293694,29.7398449 C15.8293694,27.1466228 20.5950725,25.7203507 22.9779241,25.7203507 C25.3607757,25.7203507 30.1264788,27.1466228 30.1264788,29.7398449 L30.1264788,31.0364559 L15.8293694,31.0364559 L15.8293694,29.7398449 L15.8293694,29.7398449 Z" id="user" opacity="0.8"></path>
                    </g>
                    <g id="but-send" transform="translate(198.000000, 59.000000) rotate(-360.000000) translate(-198.000000, -59.000000) translate(186.000000, 53.000000)" fill="#1A6FB6">
                        <path d="M0,3.49795617 C0,3.11924688 0.312521585,2.81224235 0.687409791,2.81224235 L7.54115603,2.81224235 C7.92080198,2.81224235 8.22856582,3.11660659 8.22856582,3.49795617 C8.22856582,3.87666545 7.91604424,4.18366999 7.54115603,4.18366999 L0.687409791,4.18366999 C0.307763847,4.18366999 0,3.87930574 0,3.49795617 Z M2.05714146,6.24081144 C2.05714146,5.86210216 2.35480208,5.55509762 2.7411716,5.55509762 L7.54453567,5.55509762 C7.92231509,5.55509762 8.22856582,5.85946187 8.22856582,6.24081144 C8.22856582,6.61952073 7.9309052,6.92652526 7.54453567,6.92652526 L2.7411716,6.92652526 C2.36339218,6.92652526 2.05714146,6.62216102 2.05714146,6.24081144 Z M24,1.97959132 C24,1.30612158 23.4489793,0.755100894 22.7755096,0.755100894 L11.5101977,0.755100894 C10.836728,0.755100894 10.2857073,1.30612158 10.2857073,1.97959132 L10.2857073,10.3061262 C10.2857073,10.9795959 10.836728,11.5306166 11.5101977,11.5306166 L22.7755096,11.5306166 C23.4489793,11.5306166 24,10.9795959 24,10.3061262 L24,1.97959132 Z M4.11428291,8.98366672 C4.11428291,8.60495743 4.42352282,8.2979529 4.79367306,8.2979529 L7.54917568,8.2979529 C7.92439249,8.2979529 8.22856582,8.60231714 8.22856582,8.98366672 C8.22856582,9.362376 7.91932591,9.66938054 7.54917568,9.66938054 L4.79367306,9.66938054 C4.41845624,9.66938054 4.11428291,9.36501629 4.11428291,8.98366672 Z M23.0204077,2.26275473 C23.0204077,2.91326526 22.3928563,3.76275549 21.8954071,4.15306181 C20.8698964,4.95663365 19.8443856,5.76785856 18.826528,6.57908346 C18.4209155,6.90816526 17.6862213,7.61224725 17.1505067,7.61224725 L17.1428536,7.61224725 L17.1352006,7.61224725 C16.599486,7.61224725 15.8647918,6.90816526 15.4591793,6.57908346 C14.4413216,5.76785856 13.4158109,4.95663365 12.3903002,4.15306181 C11.7015243,3.60969419 11.2652996,2.85204074 11.2652996,1.97959132 C11.2652996,1.84948921 11.3800956,1.73469323 11.5101977,1.73469323 L22.7755096,1.73469323 C23.0663261,1.73469323 23.0204077,2.0714281 23.0204077,2.26275473 L23.0204077,2.26275473 Z M23.0204077,10.3061262 C23.0204077,10.4362283 22.9056117,10.5510243 22.7755096,10.5510243 L11.5101977,10.5510243 C11.3800956,10.5510243 11.2652996,10.4362283 11.2652996,10.3061262 L11.2652996,4.42857216 C11.426014,4.61224572 11.6020345,4.78061315 11.7933611,4.93367446 C12.8877494,5.77551162 13.9897908,6.63265492 15.0535669,7.52041047 C15.6275467,8.00255358 16.3392818,8.59183959 17.1352006,8.59183959 L17.1428536,8.59183959 L17.1505067,8.59183959 C17.9464255,8.59183959 18.6581605,8.00255358 19.2321404,7.52041047 C20.2959165,6.63265492 21.3979579,5.77551162 22.4923462,4.93367446 C22.6836728,4.78061315 22.8596933,4.61224572 23.0204077,4.42857216 L23.0204077,10.3061262 Z" id="Combined-Shape"></path>
                    </g>
                    <g id="logo-matchtalent" transform="translate(234.000000, 14.000000) scale(1, -1) translate(-234.000000, -14.000000) translate(211.000000, 9.000000)" fill="#1A6FB6">
                        <polygon id="path20" points="3.7029463 2.88867717 3.00190202 2.88867717 3.00190202 6.98751305 4.09517939 6.98751305 5.34865254 4.41333322 6.60255461 6.98751305 7.69004177 6.98751305 7.69004177 2.88867717 6.98878304 2.88867717 6.98878304 6.09015857 5.53908611 3.24656076 5.14685302 3.24656076 3.7029463 6.09015857"></polygon>
                        <path d="M10.6443354,4.04994698 L10.6443354,4.31365068 L9.89568274,4.31365068 C9.4165965,4.31365068 9.17683894,4.16507925 9.17683894,3.86772478 C9.17683894,3.71534383 9.23602775,3.59894171 9.35504871,3.51894171 C9.4736408,3.43894171 9.6391979,3.39894171 9.85129113,3.39894171 C10.0631699,3.39894171 10.2482422,3.45756605 10.4069368,3.57481473 C10.5649881,3.69185176 10.6443354,3.85015863 10.6443354,4.04994698 L10.6443354,4.04994698 L10.6443354,4.04994698 Z M11.3097806,2.88867717 L10.7037387,2.88867717 L10.7037387,3.30497346 C10.442107,2.99597876 10.0919065,2.84169305 9.65227948,2.84169305 C9.32330979,2.84169305 9.05116994,2.93375654 8.83521656,3.1172486 C8.61904874,3.3009523 8.51117927,3.54645494 8.51117927,3.8531216 C8.51117927,4.16021154 8.62634011,4.38984116 8.85601843,4.54243375 C9.08569674,4.69460306 9.396438,4.77100517 9.78867109,4.77100517 L10.6503401,4.77100517 L10.6503401,4.88846549 C10.6503401,5.30264537 10.4165872,5.50984113 9.94929579,5.50984113 C9.65613962,5.50984113 9.35118857,5.40423267 9.03422821,5.19322738 L8.73699745,5.60359775 C9.1212958,5.90476176 9.55727714,6.0550263 10.0442981,6.0550263 C10.4165872,6.0550263 10.7206804,5.96232789 10.9565778,5.77671943 C11.1920463,5.59089933 11.3097806,5.29862421 11.3097806,4.89989406 L11.3097806,2.88867717 L11.3097806,2.88867717 Z" id="path22"></path>
                        <path d="M13.021967,5.48063478 L13.021967,3.8973544 C13.021967,3.74857133 13.0614263,3.63026446 13.1405591,3.54264541 C13.2201209,3.45439144 13.3307782,3.41058192 13.4733889,3.41058192 C13.6159997,3.41058192 13.7526057,3.47894171 13.8832071,3.61587292 L14.1568481,3.15259251 C13.9228808,2.94518511 13.6646803,2.84169305 13.381389,2.84169305 C13.0980976,2.84169305 12.8564099,2.93862427 12.6565405,3.13206341 C12.4562421,3.32550256 12.3563074,3.58645494 12.3563074,3.91492054 L12.3563074,5.48063478 L11.9584985,5.48063478 L11.9584985,6.00825383 L12.3563074,6.00825383 L12.3563074,6.98751305 L13.021967,6.98751305 L13.021967,6.00825383 L13.8536127,6.00825383 L13.8536127,5.48063478 L13.021967,5.48063478 L13.021967,5.48063478 Z" id="path24"></path>
                        <path d="M16.0882047,2.84169305 C15.6487921,2.84169305 15.270284,2.98941792 14.9533236,3.28444437 C14.6363633,3.57968244 14.478312,3.9652909 14.478312,4.44253957 C14.478312,4.91936495 14.6436547,5.30730146 14.9741255,5.60677235 C15.3050253,5.90560832 15.7081954,6.0550263 16.1834215,6.0550263 C16.658862,6.0550263 17.0609599,5.8929099 17.3895008,5.56825383 L16.997482,5.09333321 C16.7238411,5.32804219 16.4489134,5.44550251 16.1714121,5.44550251 C15.8943399,5.44550251 15.6537246,5.35428559 15.449566,5.17269829 C15.245622,4.9906877 15.1435427,4.756402 15.1435427,4.46878295 C15.1435427,4.18158719 15.2443353,3.93820095 15.4465637,3.73904752 C15.6487921,3.53947081 15.8969134,3.43978827 16.1922141,3.43978827 C16.4873002,3.43978827 16.7658736,3.57269832 17.027291,3.8389417 L17.4193096,3.41650786 C17.0350113,3.03322744 16.591524,2.84169305 16.0882047,2.84169305" id="path26"></path>
                        <path d="M18.774862,4.57756602 L18.774862,2.88867717 L18.1092023,2.88867717 L18.1092023,7.23386225 L18.774862,7.23386225 L18.774862,5.43936494 C18.8698643,5.63089933 19.0133328,5.78116387 19.205482,5.89100514 C19.3976313,6.00042313 19.6047921,6.0550263 19.8265356,6.0550263 C20.1829552,6.0550263 20.471179,5.94751308 20.6909925,5.73269827 C20.9105915,5.51767183 21.0208199,5.206984 21.0208199,4.80021152 L21.0208199,2.88867717 L20.3551604,2.88867717 L20.3551604,4.60084644 C20.3551604,5.17566125 20.1134727,5.462857 19.6303118,5.462857 C19.4006335,5.462857 19.2007641,5.38772473 19.0302746,5.2370369 C18.8599995,5.08677237 18.774862,4.86666654 18.774862,4.57756602" id="path28"></path>
                        <polygon id="path30" points="26.7552721 6.19576705 26.7552721 2.88867717 25.8284096 2.88867717 25.8284096 6.19576705 24.6521392 6.19576705 24.6521392 6.98751305 27.9321858 6.98751305 27.9321858 6.19576705"></polygon>
                        <path d="M29.9587592,4.09079356 L29.9587592,4.24296286 L29.4003256,4.24296286 C29.0439061,4.24296286 28.8656963,4.13354487 28.8656963,3.91492054 C28.8656963,3.80148138 28.9079434,3.71449725 28.9930809,3.65396816 C29.0782184,3.59322743 29.1998128,3.56317451 29.3587219,3.56317451 C29.5169876,3.56317451 29.6568104,3.61079356 29.777547,3.70687821 C29.8984981,3.80232795 29.9587592,3.93015863 29.9587592,4.09079356 L29.9587592,4.09079356 L29.9587592,4.09079356 Z M30.8558128,2.88867717 L30.0181624,2.88867717 L30.0181624,3.26984119 C29.7882697,2.98433856 29.5039061,2.84169305 29.1655005,2.84169305 C28.8266659,2.84169305 28.5427312,2.93862427 28.312624,3.13206341 C28.0831602,3.32550256 27.9682138,3.58370362 27.9682138,3.90603165 C27.9682138,4.22857132 28.0872347,4.47005279 28.3250623,4.63026443 C28.5622463,4.79047606 28.8871414,4.87047606 29.2991041,4.87047606 L29.9647638,4.87047606 L29.9647638,4.88846549 C29.9647638,5.22455013 29.784624,5.39238083 29.4241298,5.39238083 C29.2690809,5.39238083 29.1060971,5.3623279 28.9334631,5.30158717 C28.7610435,5.24105806 28.6160739,5.16571416 28.4970529,5.07576706 L28.0988152,5.64465594 C28.5187126,5.94560832 28.9984421,6.09629614 29.5369317,6.09629614 C29.9250901,6.09629614 30.2422649,6.00042313 30.4875984,5.80867711 C30.7333606,5.61735435 30.8558128,5.31428559 30.8558128,4.89989406 L30.8558128,2.88867717 L30.8558128,2.88867717 Z" id="path32"></path>
                        <polygon id="path34" points="32.562209 2.88867717 31.67116 2.88867717 31.67116 7.23957654 32.562209 7.23957654"></polygon>
                        <path d="M35.3192066,5.21650781 C35.1967544,5.31809511 35.0470667,5.3691004 34.870787,5.3691004 C34.6945073,5.3691004 34.5330248,5.31640198 34.3867684,5.21079352 C34.2402975,5.10518506 34.1547311,4.96253956 34.1313558,4.78285702 L35.5330154,4.78285702 C35.5139291,4.9701586 35.4425165,5.11470887 35.3192066,5.21650781 L35.3192066,5.21650781 L35.3192066,5.21650781 Z M36.1752997,3.34603167 C35.8143767,3.00994702 35.3919059,2.84169305 34.9066006,2.84169305 C34.4210807,2.84169305 34.0202695,2.98941792 33.7033091,3.28444437 C33.3863488,3.57968244 33.2278687,3.975238 33.2278687,4.47195756 C33.2278687,4.96846549 33.3891367,5.36338611 33.7118873,5.65650779 C34.0346378,5.94941784 34.4163628,6.09629614 34.8557754,6.09629614 C35.2960458,6.09629614 35.6691926,5.96529086 35.9758592,5.70328029 C36.2827403,5.4412697 36.4362881,5.08148135 36.4362881,4.62433851 L36.4362881,4.15555544 L34.1073371,4.15555544 C34.135216,3.98328032 34.2259293,3.84253959 34.3807637,3.73290995 C34.5351693,3.62349197 34.7095189,3.56888879 34.9035982,3.56888879 C35.2162695,3.56888879 35.4742556,3.67259251 35.6756262,3.87978827 L36.1752997,3.34603167 L36.1752997,3.34603167 Z" id="path36"></path>
                        <path d="M37.9704792,4.64783057 L37.9704792,2.88867717 L37.0785725,2.88867717 L37.0785725,6.04359773 L37.9704792,6.04359773 L37.9704792,5.69185171 C38.2394022,5.9612697 38.5426378,6.09629614 38.8791133,6.09629614 C39.2160176,6.09629614 39.4980224,5.97883583 39.725985,5.74412684 C39.9535187,5.50984113 40.0676074,5.1970369 40.0676074,4.80613744 L40.0676074,2.88867717 L39.1765585,2.88867717 L39.1765585,4.671111 C39.1765585,5.15597871 38.9964186,5.39851838 38.6359245,5.39851838 C38.4570713,5.39851838 38.3020224,5.33481468 38.1692764,5.20783056 C38.0363161,5.08084643 37.9704792,4.89417978 37.9704792,4.64783057" id="path38"></path>
                        <path d="M41.8928101,5.41015859 L41.8928101,3.9968253 C41.8928101,3.8757671 41.9243345,3.78095229 41.9873835,3.71238086 C42.0508614,3.64402108 42.1261341,3.609947 42.2136306,3.609947 C42.3800456,3.609947 42.5205117,3.68402108 42.6354582,3.83259249 L42.967859,3.21714278 C42.6903579,2.96677241 42.3989173,2.84169305 42.0916073,2.84169305 C41.7845117,2.84169305 41.525239,2.94137559 41.3133603,3.14074067 C41.101267,3.34010573 40.9951131,3.61164013 40.9951131,3.9557671 L40.9951131,5.41015859 L40.6211085,5.41015859 L40.6211085,6.04359773 L40.9951131,6.04359773 L40.9951131,6.98751305 L41.8928101,6.98751305 L41.8928101,6.04359773 L42.665267,6.04359773 L42.665267,5.41015859 L41.8928101,5.41015859 L41.8928101,5.41015859 Z" id="path40"></path>
                        <polygon id="path42" points="22.4537897 9.92232779 22.4537897 0.753015854 0.763235411 0.753015854 0.763235411 9.16931194 21.6907687 9.16931194 21.6907687 9.92232779 0 9.92232779 0 0 23.2170251 0 23.2170251 9.16931194 45.2071691 9.16931194 45.2071691 0.753015854 23.9800461 0.753015854 23.9800461 0 45.9697611 0 45.9697611 9.92232779"></polygon>
                    </g>
                </g>
            </g>
        </g>
    </g>
</svg>